<svg width="19" height="19" viewBox="0 0 19 19" fill="none" xmlns="http://www.w3.org/2000/svg">
<g clip-path="url(#clip0_68_4619)">
<path d="M13.4583 10.6084V12.9834C13.4583 16.15 12.1916 17.4167 9.02492 17.4167H6.01659C2.84992 17.4167 1.58325 16.15 1.58325 12.9834V9.97502C1.58325 6.80835 2.84992 5.54169 6.01659 5.54169H8.39159" stroke="#455A64" stroke-width="1.5" stroke-linecap="round" stroke-linejoin="round"/>
<path d="M9.18342 1.58331H12.3501M5.54175 3.95831C5.54175 2.64415 6.60258 1.58331 7.91675 1.58331H9.99091M17.4167 6.33331V11.2337C17.4167 12.4608 16.4192 13.4583 15.1922 13.4583M17.4167 6.33331H15.0417C13.2605 6.33331 12.6667 5.73956 12.6667 3.95831V1.58331L17.4167 6.33331ZM13.4584 10.6083H10.9251C9.02508 10.6083 8.39175 9.97498 8.39175 8.07498V5.54165L13.4584 10.6083Z" stroke="#455A64" stroke-width="1.5" stroke-linecap="round" stroke-linejoin="round"/>
</g>
<defs>
<clipPath id="clip0_68_4619">
<rect width="19" height="19" fill="white"/>
</clipPath>
</defs>
</svg>
