<svg width="159" height="58" viewBox="0 0 159 58" fill="none" xmlns="http://www.w3.org/2000/svg">
<path d="M81.2299 17.0923L77.8143 25.8817H75.654L79.7702 15.3752L75.9167 5.50896H78.2814L81.4343 13.6581L84.6164 5.50896H86.7475L82.9231 15.3752L87.0102 25.8817H84.6164L81.2299 17.0923ZM88.6617 10.4275C88.6617 8.85592 89.0412 7.61415 89.8003 6.70223C90.5787 5.7709 91.7562 5.30524 93.3327 5.30524C94.9091 5.30524 96.0866 5.7709 96.8651 6.70223C97.6435 7.61415 98.0328 8.85592 98.0328 10.4275V20.9632C98.0328 22.5153 97.6435 23.7571 96.8651 24.6885C96.0866 25.6198 94.9091 26.0855 93.3327 26.0855C91.7562 26.0855 90.5787 25.6198 89.8003 24.6885C89.0412 23.7571 88.6617 22.5153 88.6617 20.9632V10.4275ZM90.9096 21.0796C90.9096 22.0109 91.1042 22.7385 91.4935 23.2624C91.9022 23.7668 92.5153 24.0191 93.3327 24.0191C94.1695 24.0191 94.7825 23.7668 95.1719 23.2624C95.5611 22.7385 95.7557 22.0109 95.7557 21.0796V10.3111C95.7557 9.37979 95.5611 8.66189 95.1719 8.15742C94.7825 7.63355 94.1695 7.37162 93.3327 7.37162C92.5153 7.37162 91.9022 7.63355 91.4935 8.15742C91.1042 8.66189 90.9096 9.37979 90.9096 10.3111V21.0796ZM104.65 5.50896C106.265 5.50896 107.433 5.95522 108.153 6.84775C108.874 7.72086 109.234 8.93353 109.234 10.4857V12.9305C109.234 14.5603 108.845 15.7923 108.066 16.6267C107.307 17.4416 106.11 17.849 104.475 17.849H102.461V25.8817H100.184V5.50896H104.65ZM104.475 15.8118C105.331 15.8118 105.964 15.608 106.373 15.2006C106.781 14.7737 106.986 14.0655 106.986 13.076V10.3693C106.986 9.438 106.801 8.7395 106.431 8.27384C106.081 7.80818 105.487 7.57534 104.65 7.57534H102.461V15.8118H104.475ZM110.842 10.4275C110.842 8.85592 111.222 7.61415 111.981 6.70223C112.759 5.7709 113.937 5.30524 115.513 5.30524C117.09 5.30524 118.267 5.7709 119.046 6.70223C119.823 7.61415 120.213 8.85592 120.213 10.4275V20.9632C120.213 22.5153 119.823 23.7571 119.046 24.6885C118.267 25.6198 117.09 26.0855 115.513 26.0855C113.937 26.0855 112.759 25.6198 111.981 24.6885C111.222 23.7571 110.842 22.5153 110.842 20.9632V10.4275ZM113.09 21.0796C113.09 22.0109 113.284 22.7385 113.674 23.2624C114.083 23.7668 114.696 24.0191 115.513 24.0191C116.349 24.0191 116.962 23.7668 117.352 23.2624C117.741 22.7385 117.936 22.0109 117.936 21.0796V10.3111C117.936 9.37979 117.741 8.66189 117.352 8.15742C116.962 7.63355 116.349 7.37162 115.513 7.37162C114.696 7.37162 114.083 7.63355 113.674 8.15742C113.284 8.66189 113.09 9.37979 113.09 10.3111V21.0796ZM127.034 13.92C128.63 13.92 129.827 14.308 130.625 15.0842C131.442 15.8409 131.851 17.0438 131.851 18.693V20.9341C131.851 22.5251 131.472 23.7475 130.713 24.6012C129.954 25.4548 128.767 25.8817 127.151 25.8817H122.392V5.50896H131.005V7.57534H124.64V13.92H127.034ZM127.151 23.8153C127.988 23.8153 128.601 23.602 128.99 23.1751C129.38 22.7288 129.574 22.0303 129.574 21.0796V18.5475C129.574 17.558 129.36 16.8789 128.932 16.5103C128.504 16.1416 127.871 15.9573 127.034 15.9573H124.64V23.8153H127.151ZM138.548 5.50896C140.163 5.50896 141.331 5.95522 142.051 6.84775C142.771 7.72086 143.131 8.93353 143.131 10.4857V12.9305C143.131 14.5603 142.741 15.7923 141.964 16.6267C141.204 17.4416 140.008 17.849 138.373 17.849H136.358V25.8817H134.081V5.50896H138.548ZM138.373 15.8118C139.229 15.8118 139.862 15.608 140.27 15.2006C140.679 14.7737 140.883 14.0655 140.883 13.076V10.3693C140.883 9.438 140.698 8.7395 140.329 8.27384C139.978 7.80818 139.384 7.57534 138.548 7.57534H136.358V15.8118H138.373ZM147.22 21.7781L146.432 25.8817H144.33L148.242 5.50896H151.541L155.453 25.8817H153.176L152.388 21.7781H147.22ZM147.512 19.8281H152.067L149.76 8.07011L147.512 19.8281ZM84.7612 48.2169C84.586 48.9736 84.372 49.643 84.1189 50.2251C83.8854 50.8072 83.5642 51.2923 83.1555 51.6803C82.7468 52.0683 82.231 52.3497 81.6083 52.5243C81.0049 52.6989 80.2362 52.7668 79.302 52.728V50.6908C80.1778 50.7295 80.8298 50.6034 81.258 50.3124C81.7056 50.0019 82.0267 49.4587 82.2213 48.6826L82.6884 47.3438L77.9883 32.3262H80.2654L82.3381 39.3984L83.7394 44.5207L84.9363 39.3984L86.7755 32.3262H89.1402L84.7612 48.2169ZM94.278 43.8513L93.0811 45.8595V52.6989H90.804V32.3262H93.0811V42.1633L98.5111 32.3262H100.817L95.6501 41.6103L100.993 52.6989H98.657L94.278 43.8513ZM107.216 32.3262C108.831 32.3262 109.999 32.7724 110.719 33.665C111.44 34.5381 111.799 35.7508 111.799 37.3029V39.7477C111.799 41.3775 111.411 42.6095 110.632 43.4439C109.873 44.2588 108.676 44.6662 107.041 44.6662H105.027V52.6989H102.749V32.3262H107.216ZM107.041 42.629C107.897 42.629 108.53 42.4252 108.938 42.0178C109.347 41.5909 109.552 40.8827 109.552 39.8932V37.1865C109.552 36.2552 109.367 35.5567 108.997 35.091C108.647 34.6254 108.053 34.3925 107.216 34.3925H105.027V42.629H107.041ZM115.89 48.5953L115.101 52.6989H112.999L116.911 32.3262H120.21L124.122 52.6989H121.845L121.057 48.5953H115.89ZM116.182 46.6453H120.736L118.429 34.8873L116.182 46.6453ZM128.176 32.3262V52.6989H125.899V32.3262H128.176ZM132.795 43.5312V52.6989H130.518V32.3262H132.795V41.4939H137.816V32.3262H140.093V52.6989H137.816V43.5312H132.795ZM144.74 48.5953L143.952 52.6989H141.85L145.762 32.3262H149.061L152.973 52.6989H150.695L149.907 48.5953H144.74ZM145.032 46.6453H149.586L147.28 34.8873L145.032 46.6453Z" fill="#455A64"/>
<path d="M30.961 52.6989H22.4701L23.411 41.8033L24.046 35.6306L22.6583 34.2511L20.7061 32.3806L19.6712 29.7151L19.3183 26.8159L18.8715 19.7547V16.4814L21.2941 13.9328L23.3404 14.1667V12.1325C23.9284 11.4544 25.2549 9.97207 25.857 9.46703C26.4592 8.962 27.5662 9.45924 28.0445 9.77099L32.8191 19.7547L34.9124 20.1288L36.7235 19.7547L37.7349 17.3465L39.8282 18.4455V21.9058L35.3829 23.2386L31.3608 26.8159L30.961 31.8195V52.6989Z" fill="#66A1E6"/>
<path d="M30.8776 52.595H40.9662L40.1685 41.6629V35.5766L43.3594 32.2291L48.1691 27.5238L49.1075 25.0425V22.7016L48.1691 17.2004L46.034 13.853L41.4355 11.2779L40.7316 7.57928L39.4177 6.08109L37.2123 5.61292L35.3353 6.31518C35.1242 7.22034 34.5986 8.69355 34.1857 7.34518C33.7727 5.99682 32.2774 6.0967 31.5815 6.31518L29.3526 7.34518L28.6721 9.03064L29.024 11.2779L31.5815 17.2004L33.7868 20.2671L36.2034 19.8223L37.5408 17.2004L39.9339 18.4879V21.3204L38.315 21.9525L35.3353 23.2399L32.3322 25.8384L30.8776 28.6241V31.2225V52.595Z" fill="#FFD749"/>
<path d="M25.8043 36.5957C25.2423 36.3276 24.5384 35.9107 23.8002 35.3554M23.8002 35.3554C21.6173 33.7136 19.1343 30.8622 19.1343 27.0708C19.1343 21.9971 19.1343 19.1685 19.1343 18.3884M23.8002 35.3554L22.4928 51.5969M19.1343 18.3884C18.0633 16.8907 19.3927 14.3397 21.0131 14.1759M19.1343 18.3884L22.4928 22.7882C24.5126 25.1752 27.5658 24.2157 27.5658 21.1266M27.5658 21.1266C26.9081 19.9955 25.2172 17.0218 23.714 14.1759C22.211 11.3302 24.5439 9.82303 25.8982 9.42519M27.5658 21.1266C28.6931 23.8412 33.4138 22.7882 32.2629 19.1373M32.2629 19.1373C30.8538 15.6924 29.2959 11.9917 28.6931 10.5719C28.2781 9.589 28.2703 7.33298 31.5583 6.17221M32.2629 19.1373C32.9618 20.8457 37.4533 21.3418 37.3594 16.68M37.3594 16.68L39.9898 18.0608C39.9898 18.9345 39.9898 20.8925 39.9898 21.735C31.967 23.1953 29.9457 29.6139 29.9379 32.6407M37.3594 16.68C35.6684 15.7361 33.0144 13.2164 35.2457 9.75283M35.2457 9.75283L35.6684 9.42519L41.8217 11.8219M35.2457 9.75283C34.776 9.42519 34.1395 8.62346 34.5881 7.50615C35.6684 4.81486 39.8489 5.42334 40.4831 7.76359L41.8217 11.8219M41.8217 11.8219L45.462 13.2398C45.7987 13.4114 46.5095 13.8623 46.6599 14.2929C46.8101 14.7236 48.1629 19.1529 48.8205 21.3138C49.3059 22.5775 49.7553 25.6526 47.6698 27.8431C45.5842 30.0336 41.6808 33.764 39.9898 35.3554M39.9898 35.3554C39.6923 35.644 38.9 36.2213 38.111 36.2213M39.9898 35.3554L40.9057 51.9713M45.8848 6.0084L50.5115 1.39806M52.226 13.4973L58.4968 10.6889M61.7613 9.33158L64.9554 7.85721M52.179 29.4111L58.6376 31.7677M64.8144 34.0215L61.2446 32.7189M12.9105 28.3112L1.35541 31.845M18.2653 9.26138L7.97845 1.35126M12.9339 15.6971L7.08983 13.4086M1.40238 11.1804L4.33812 12.3303" stroke="#455A64" stroke-width="2" stroke-linecap="round" stroke-linejoin="round"/>
</svg>
