<svg width="42" height="42" viewBox="0 0 42 42" fill="none" xmlns="http://www.w3.org/2000/svg">
<rect x="0.291016" width="41.4179" height="41.4179" rx="20.709" fill="#455A64"/>
<path d="M31.7856 19.0094V27.6705C31.7856 28.5402 31.0806 29.2452 30.2109 29.2452H12.8887C12.019 29.2452 11.314 28.5402 11.314 27.6705V19.0094C11.314 18.5746 11.6665 18.222 12.1013 18.222C12.2103 18.1981 12.3231 18.1981 12.432 18.222L21.5498 24.521L30.6833 18.222C30.7872 18.2003 30.8943 18.2003 30.9983 18.222C31.433 18.222 31.7856 18.5746 31.7856 19.0094ZM11.7077 14.9466L11.8336 15.0725L21.5498 21.3715L31.2975 15.0725H31.3919C31.6748 14.9181 31.8316 14.6041 31.7856 14.2852C31.7856 13.8504 31.433 13.4978 30.9983 13.4978H12.1013C11.6665 13.4978 11.314 13.8504 11.314 14.2852C11.3181 14.56 11.468 14.8119 11.7077 14.9466Z" fill="white"/>
</svg>
