<svg width="42" height="42" viewBox="0 0 42 42" fill="none" xmlns="http://www.w3.org/2000/svg">
<rect width="41.4179" height="41.4179" rx="20.709" fill="#455A64"/>
<path d="M28.4598 16.334C27.3959 11.565 23.3126 9.41791 19.7258 9.41791H19.7157C16.139 9.41791 12.0456 11.5547 10.9817 16.3237C9.79627 21.6502 12.6805 25.2254 15.6719 29.2889C17.1918 31.3534 19.2182 33.4179 19.7157 33.4179C20.2132 33.4179 22.7645 30.5792 23.7776 29.2889C26.3554 26.006 29.6452 21.6605 28.4598 16.334ZM19.7258 21.5057C19.3067 21.5057 18.8917 21.4215 18.5044 21.2581C18.1172 21.0947 17.7654 20.8552 17.469 20.5533C17.1726 20.2513 16.9375 19.8929 16.7771 19.4984C16.6167 19.1039 16.5342 18.681 16.5342 18.254C16.5342 17.827 16.6167 17.4042 16.7771 17.0097C16.9375 16.6152 17.1726 16.2567 17.469 15.9548C17.7654 15.6529 18.1172 15.4133 18.5044 15.2499C18.8917 15.0865 19.3067 15.0024 19.7258 15.0024C20.5723 15.0024 21.3841 15.345 21.9826 15.9548C22.5812 16.5646 22.9175 17.3917 22.9175 18.254C22.9175 19.1164 22.5812 19.9435 21.9826 20.5533C21.3841 21.1631 20.5723 21.5057 19.7258 21.5057Z" fill="white"/>
</svg>
