<svg width="42" height="42" viewBox="0 0 42 42" fill="none" xmlns="http://www.w3.org/2000/svg">
<rect x="0.291016" width="41.4179" height="41.4179" rx="20.709" fill="#455A64"/>
<path d="M31 26.5135C31 26.8555 30.9239 27.207 30.7621 27.549C30.6004 27.891 30.3911 28.214 30.1152 28.518C29.649 29.031 29.1352 29.4015 28.5548 29.639C27.984 29.8765 27.3656 30 26.6996 30C25.7291 30 24.692 29.772 23.5979 29.3065C22.5038 28.841 21.4096 28.214 20.325 27.4255C19.2195 26.6181 18.1764 25.7289 17.2043 24.7655C16.2422 23.7984 15.3548 22.7599 14.5498 21.659C13.7697 20.576 13.1417 19.493 12.685 18.4195C12.2283 17.3365 12 16.301 12 15.313C12 14.667 12.1142 14.0495 12.3425 13.4795C12.5709 12.9 12.9324 12.368 13.4367 11.893C14.0456 11.2945 14.7116 11 15.4156 11C15.682 11 15.9484 11.057 16.1863 11.171C16.4337 11.285 16.6525 11.456 16.8237 11.703L19.031 14.8095C19.2023 15.047 19.326 15.2655 19.4116 15.4745C19.4972 15.674 19.5448 15.8735 19.5448 16.054C19.5448 16.282 19.4782 16.51 19.345 16.7285C19.2213 16.947 19.0406 17.175 18.8122 17.403L18.0891 18.1535C17.9845 18.258 17.9369 18.3815 17.9369 18.5335C17.9369 18.6095 17.9464 18.676 17.9654 18.752C17.994 18.828 18.0225 18.885 18.0416 18.942C18.2128 19.2555 18.5078 19.664 18.9264 20.158C19.3545 20.652 19.8112 21.1555 20.306 21.659C20.8197 22.1625 21.3145 22.628 21.8187 23.0555C22.3135 23.4735 22.7226 23.7585 23.0461 23.9295C23.0936 23.9485 23.1507 23.977 23.2173 24.0055C23.2934 24.034 23.3696 24.0435 23.4552 24.0435C23.6169 24.0435 23.7406 23.9865 23.8453 23.882L24.5684 23.1695C24.8062 22.932 25.0346 22.7515 25.2534 22.6375C25.4722 22.5045 25.691 22.438 25.9289 22.438C26.1097 22.438 26.3 22.476 26.5093 22.5615C26.7186 22.647 26.9374 22.7705 27.1753 22.932L30.3245 25.1645C30.5719 25.3355 30.7431 25.535 30.8478 25.7725C30.9429 26.01 31 26.2475 31 26.5135Z" fill="white"/>
</svg>
