<svg aria-hidden="true" style="position: absolute; width: 0; height: 0; overflow: hidden;" version="1.1" xmlns="http://www.w3.org/2000/svg" xmlns:xlink="http://www.w3.org/1999/xlink">
<defs>
<symbol id="envelop_icon" viewBox="0 0 32 32">
<path fill="#455a64" style="fill: var(--color1, #455a64)" d="M16 0h-0c8.714 0 15.778 7.064 15.778 15.778v-0c0 8.714-7.064 15.778-15.778 15.778h0c-8.714 0-15.778-7.064-15.778-15.778v0c0-8.714 7.064-15.778 15.778-15.778z"></path>
<path fill="#fff" style="fill: var(--color2, #fff)" d="M24.218 14.483v6.599c0 0.663-0.537 1.2-1.2 1.2h-13.198c-0.663 0-1.2-0.537-1.2-1.2v-6.599c0-0.331 0.269-0.6 0.6-0.6 0.083-0.018 0.169-0.018 0.252 0l6.947 4.799 6.959-4.799c0.079-0.017 0.161-0.017 0.24 0 0.331 0 0.6 0.269 0.6 0.6zM8.92 11.388l0.096 0.096 7.403 4.799 7.427-4.799h0.072c0.216-0.118 0.335-0.357 0.3-0.6 0-0.331-0.269-0.6-0.6-0.6h-14.398c-0.331 0-0.6 0.269-0.6 0.6 0.003 0.209 0.117 0.401 0.3 0.504z"></path>
</symbol>
<symbol id="map_point_icon" viewBox="0 0 32 32">
<path fill="#455a64" style="fill: var(--color1, #455a64)" d="M15.778 0h-0c8.714 0 15.778 7.064 15.778 15.778v-0c0 8.714-7.064 15.778-15.778 15.778h0c-8.714 0-15.778-7.064-15.778-15.778v0c0-8.714 7.064-15.778 15.778-15.778z"></path>
<path fill="#fff" style="fill: var(--color2, #fff)" d="M21.684 12.445c-0.811-3.634-3.922-5.269-6.654-5.269h-0.008c-2.725 0-5.844 1.628-6.654 5.262-0.903 4.058 1.294 6.782 3.573 9.878 1.158 1.573 2.702 3.146 3.081 3.146s2.323-2.163 3.095-3.146c1.964-2.501 4.471-5.812 3.567-9.87zM15.029 16.385c-0.319 0-0.636-0.064-0.931-0.189s-0.563-0.307-0.789-0.537c-0.226-0.23-0.405-0.503-0.527-0.804s-0.185-0.623-0.185-0.948c0-0.325 0.063-0.647 0.185-0.948s0.301-0.574 0.527-0.804c0.226-0.23 0.494-0.413 0.789-0.537s0.611-0.189 0.931-0.189c0.645 0 1.263 0.261 1.719 0.726s0.712 1.095 0.712 1.752c0 0.657-0.256 1.287-0.712 1.752s-1.075 0.726-1.719 0.726z"></path>
</symbol>
<symbol id="phone_icon" viewBox="0 0 300 300">
<path fill="#455a64" style="fill: var(--color1, #455a64)" d="M16 0h-0c8.714 0 15.778 7.064 15.778 15.778v-0c0 8.714-7.064 15.778-15.778 15.778h0c-8.714 0-15.778-7.064-15.778-15.778v0c0-8.714 7.064-15.778 15.778-15.778z"></path>
<path fill="#fff" style="fill: var(--color2, #fff)" d="M23.619 20.201c0 0.261-0.058 0.528-0.181 0.789s-0.283 0.507-0.493 0.738c-0.355 0.391-0.747 0.673-1.189 0.854-0.435 0.181-0.906 0.275-1.413 0.275-0.739 0-1.53-0.174-2.363-0.528s-1.667-0.832-2.494-1.433c-0.842-0.615-1.637-1.293-2.378-2.027-0.733-0.737-1.409-1.528-2.022-2.367-0.594-0.825-1.073-1.65-1.421-2.468-0.348-0.825-0.522-1.614-0.522-2.367 0-0.492 0.087-0.963 0.261-1.397 0.174-0.442 0.449-0.847 0.834-1.209 0.464-0.456 0.971-0.68 1.508-0.68 0.203 0 0.406 0.043 0.587 0.13 0.188 0.087 0.355 0.217 0.486 0.405l1.682 2.367c0.13 0.181 0.225 0.347 0.29 0.507 0.065 0.152 0.101 0.304 0.101 0.442 0 0.174-0.051 0.347-0.152 0.514-0.094 0.166-0.232 0.34-0.406 0.514l-0.551 0.572c-0.080 0.080-0.116 0.174-0.116 0.29 0 0.058 0.007 0.109 0.022 0.166 0.022 0.058 0.043 0.101 0.058 0.145 0.13 0.239 0.355 0.55 0.674 0.926 0.326 0.376 0.674 0.76 1.051 1.144 0.391 0.384 0.768 0.738 1.153 1.064 0.377 0.318 0.689 0.536 0.935 0.666 0.036 0.014 0.080 0.036 0.13 0.058 0.058 0.022 0.116 0.029 0.181 0.029 0.123 0 0.217-0.043 0.297-0.123l0.551-0.543c0.181-0.181 0.355-0.318 0.522-0.405 0.167-0.101 0.333-0.152 0.515-0.152 0.138 0 0.283 0.029 0.442 0.094s0.326 0.159 0.507 0.282l2.399 1.701c0.189 0.13 0.319 0.282 0.399 0.463 0.072 0.181 0.116 0.362 0.116 0.565z"></path>
</symbol>
</defs>
</svg>
