<svg aria-hidden="true" style="position: absolute; width: 0; height: 0; overflow: hidden;" version="1.1" xmlns="http://www.w3.org/2000/svg" xmlns:xlink="http://www.w3.org/1999/xlink">
<defs>
<symbol id="Kharkiv" viewBox="0 0 36 32">
<path fill="#9cb8fc" stroke="#7b9ae3" stroke-linejoin="round" stroke-linecap="butt" stroke-miterlimit="4" stroke-width="0.4848" d="M7.615 3.473l0.79-0.437 0.527 0.087 1.229-1.484 0.527-0.262h2.633l0.527 0.262 0.966 1.659 0.966 0.087 0.527-0.262 0.263-0.349 1.229 0.698 0.527 0.873 0.878-0.175 0.439-0.873 2.282-1.484h1.756l1.053-0.698 0.702-0.873h1.755l0.527 1.222 0.351 0.175h0.878v1.833l1.755 1.921 1.58 0.436 1.756 1.746 0.351 0.873-0.615 0.698 0.351 0.437-0.615 1.222 0.263 0.175 0.351 0.175v0.786l-0.439 1.135 0.351 1.048-0.264 0.611-0.439 0.698-0.175 0.873 0.175 0.96 0.439 0.349 0.264 0.349-0.088 0.262v0.436l1.405 1.309 0.527 0.786-0.263 0.436v0.524l0.263 0.349-0.175 0.349-0.351 0.611 0.351 0.436v0.349l-0.527 0.349-0.878 0.262h-1.404l-0.439-0.611-0.965-0.087-0.351-0.524v-0.436l0.263-0.087-0.263-0.611-0.263 0.175-0.175 0.436h-0.615l-0.614-0.262-0.263-0.524-0.702 0.175-0.175 0.611v0.524h-0.702v0.524l0.263 0.262v0.175l-1.229 1.048-0.175 0.698-0.439 0.436-0.965 0.349v0.611h-0.351l-0.614-0.349h-0.966l-0.176 0.611h-0.614l-0.527-0.437-0.263 0.175v0.611l0.527 0.611v1.484h-0.878v0.611h-0.966l-0.439-0.611-0.439-0.437-0.527 0.524v0.96h-0.439l-0.088 0.437-0.79 0.262-0.176-1.31-0.351-0.349v-0.087l-0.878-0.698-0.527-0.175 0.176-1.048-1.404-1.135h-0.527l0.088-0.873-0.088-0.786-0.702-0.349-0.702 0.175-0.702 0.786-1.755-0.611-1.053-0.349-1.141 0.349-1.317-1.222-1.317-0.96-0.79-0.611h-1.492v-0.611l-0.527-0.524 0.527-0.349-0.263-0.262v-0.349l0.439-0.524 0.702 0.436 1.317-0.087 0.351-0.349 0.878-0.786v-1.309l-0.176-0.262v-0.524h1.053l0.351-0.436-0.702-0.524-0.088-0.175h0.79l0.088-0.262-0.439-0.349-0.351-0.437-0.088-0.349 0.263-0.262-0.088-0.262-0.176-0.262-0.614 0.262-0.702 0.087-0.702-0.786-0.439-0.524v-1.135l-0.263-0.262-0.527-0.087-0.176 0.175-0.439-0.175-0.351-0.524-1.053-0.175-0.79-0.262v-0.698l-0.263-0.349-0.176-0.262 0.614-0.873 0.351-0.087v-0.349h-0.176v-1.135l0.439-0.262 0.527-0.349 0.614-0.436 0.351-0.524h0.439l0.527 0.262 0.439-0.524 0.088-0.436h0.439l0.263-0.524 0.351 0.087 0.176-0.087v-0.349l0.263-0.349 0.79 0.698 0.878-0.262z"></path>
</symbol>
<symbol id="Cherkasy" viewBox="0 0 42 32">
<path fill="#9cb8fc" stroke="#7b9ae3" stroke-linejoin="round" stroke-linecap="butt" stroke-miterlimit="4" stroke-width="0.5" d="M5.76 31.75l-1.027-0.189v-0.566l0.374-0.471-0.187-1.226-0.654-0.849-0.56-0.283-0.093-0.472-0.654-0.189 0.654-0.471-0.28-0.377-0.654-0.189h-0.374v-1.132l-0.374-0.377h-0.28l0.093-1.226-0.467-0.283-0.374-0.189-0.28-0.283 0.56-0.472v-0.283l-0.654-0.283-0.28-0.566 0.467-0.472 0.56-0.283 0.467-0.66 0.093-0.849 0.747 0.283h0.56l0.467-0.283 0.56-0.66v-0.566h0.934l0.747-0.377 1.027-0.849 0.093 0.566 0.374 0.283 1.027-0.094 0.56 0.472 0.467 0.283 0.28-0.943 0.374-0.755h1.868l0.467-0.472 0.841 0.66h0.467l0.374-0.377 1.401 0.094 0.187-0.377v-0.566l0.56-0.849 0.841-0.754 0.374-0.377 0.56-0.849 0.28-0.472-0.747-0.472 0.467-0.377 0.467-0.283-0.187-1.226 0.187-0.66v-0.472l0.093-0.283 0.093-1.037 1.401-0.849 0.841-0.094 0.654 0.377 1.774 0.472h0.56l0.374-0.377 0.374-0.66 0.56-0.472 0.467-0.66v-0.566l0.56-0.283v-0.283l-0.373-0.472v-0.566l0.56-0.66 0.654-0.283 0.28-0.283v-0.377l-0.187-0.283v-0.472l0.28-0.283h0.747l0.467 0.472 0.28 0.472 1.027 0.472 0.28 0.66v1.132l0.934 0.472 1.214 1.226v0.566l-0.28 0.66-0.374 0.472 0.467 0.66 0.747 0.754 1.027 0.189 0.187 1.32 0.654 0.283 1.028 0.943 0.467 1.037-0.467 1.226 0.467 0.943 1.868 0.849 0.654 1.132 1.588 2.169 0.84 1.132-0.28 0.377-2.242-0.377-1.775 1.132 0.654 1.037-0.28 0.377-2.522 1.132h-0.84l-1.214-2.075h-1.774l-1.494 1.698v0.849l-0.187 0.283-1.214-0.472-1.027 1.132h-0.56l-0.747-1.415h-1.214l-0.28 0.472h-1.681v1.32l-1.401 1.886h-0.467l-0.841-0.189h-1.027l-1.027 0.566-0.841-0.377-2.615-0.189-0.841-0.095-1.027 0.849-1.027 1.226v1.603h-0.654l-0.467-0.377h-0.56l-0.467 0.849h-0.467l-1.027 0.849-0.654-0.377-1.401 0.566z"></path>
</symbol>
<symbol id="Chernihiv" viewBox="0 0 28 32">
<path fill="#9cb8fc" stroke="#7b9ae3" stroke-linejoin="round" stroke-linecap="butt" stroke-miterlimit="4" stroke-width="0.4741" d="M0.811 16.913l-0.164 0.664-0.246 0.913 0.246 0.249 0.41 0.664v2.157l0.492 0.498v1.079l1.067 0.83 0.082 0.332-0.328 0.498 0.164 0.913h0.903l0.246 0.249 0.903-0.083 0.656-0.498h0.656l0.164 0.498 0.492 0.415 0.492 0.83v0.415h-0.246v0.415l0.821 0.83v0.498l0.41 0.332 0.246-0.332h0.492l0.492 0.332 0.492-0.332h1.559l0.246-0.498 0.328-0.249 0.656-0.166 0.328-0.581 0.41-0.249 0.492 0.415v0.415l0.656 0.415h0.656v0.498h-0.328l-0.328 0.332 0.164 0.498 0.903 0.581v0.332l0.492 0.581 0.903 0.166 0.492-0.332 0.492-0.415 0.328-0.332 0.328 0.332h0.328l0.328-0.332 0.492 0.581h0.492l0.41 0.166 0.164-0.166h0.492l0.492 0.166 0.41-0.415 0.82-0.332 0.738-0.415 0.164-0.332 0.328-0.166 0.656-0.747 0.164-0.379v-0.285l0.246-0.415 0.082-0.913-0.164-0.166-0.328-0.249v-0.415l0.164-0.332 0.575-0.083 0.246-0.332 0.082-0.249-0.246-0.458-0.41-0.040-0.082-0.415 0.246-0.083 0.164-0.581 0.082-0.415 0.41-0.332v-0.913l-0.164-0.249v-0.996l-0.82 0.083-0.246-0.249-0.164-0.332-0.492-0.083-0.164-0.249-0.328-0.166v-1.079l0.246-0.083 0.246-0.498 0.492-0.83v-0.581l-0.164-0.332-0.328-0.332 0.164-0.664 0.328-0.332 0.41-0.249 0.082-0.249 0.082-0.498 0.164-0.332-0.082-1.161 0.164-0.415v-0.249l-0.246-0.166-0.246-0.332 0.328-0.166-0.164-0.498-0.246-0.332-0.492-0.249v-1.493l0.164-0.332 0.328-0.249 0.082-0.415 0.328-0.332h0.328l0.41-0.332 0.657-0.332 0.328-0.249v-1.079h0.246l0.328-0.332 0.328-0.166v-0.332l-0.574-0.415-0.328-0.415-0.574-0.415-0.164-0.332 0.164-0.332 0.328-0.332v-0.913l0.328-0.083v-0.83h-1.231l-0.164-0.166h-0.328l-1.887 1.327-0.574 0.747h-0.246l-0.656-0.498-1.067 0.249-1.477-0.83h-1.969l-0.492 2.987-1.477 1.41-1.067-0.249-0.985 0.083-0.492-0.747h-5.005l-0.985 0.83-0.821-0.664-1.805 0.415-0.164 0.913-1.395 1.161-0.164 0.581-1.231 1.576-0.164 0.913-0.738 0.83 0.164 0.83-0.492 0.332 0.082 0.913 0.574 0.664-0.082 1.161 0.492 0.581v0.913l-0.492 0.249z"></path>
</symbol>
<symbol id="Chernivtsi" viewBox="0 0 62 32">
<path fill="#9cb8fc" stroke="#7b9ae3" stroke-linejoin="round" stroke-linecap="butt" stroke-miterlimit="4" stroke-width="0.7356" d="M1.103 30.345l-0.736 0.184 0.552 0.92 3.862-0.184 4.782-5.333 11.77-0.368 2.943-1.287 5.701-0.184 2.943-3.862 0.368-2.207 1.103-0.552 2.023-0.184 0.736-0.552h0.92l0.552 0.552 1.103-0.184 1.103-1.103 3.31-0.184 1.103-1.655v-2.023l0.736-0.736 1.287-0.184 1.471 1.655 1.287 0.184 0.736-1.287 0.552-0.184 2.023 0.92 1.103 0.552 1.287-1.103 1.839-1.471 1.839 0.184 1.839-0.92-0.184-0.736v-1.471l0.184-0.92-1.655-2.207-0.92-0.368h-1.103l-1.287 0.736-0.368 1.287-1.103-0.736h-1.471l-0.92 0.92-0.552-0.368-1.287-0.184v-0.552l-1.287-0.184-0.736 0.552-0.92 0.736-0.552-0.552-0.368-0.552-0.368-1.103-2.207 0.552 0.368 0.92-0.736 0.92-0.552 0.368v-0.92l-0.92-0.184-0.736-0.368-0.184 2.391-0.368 1.471h-0.552l-0.736-0.368-0.184-0.92-0.736-1.655-2.023-0.184-0.552 0.736h-1.103l-0.92-0.552-1.287-0.552h-1.471l-0.736-0.552-0.736-0.92v-0.92l-0.92-0.92h-1.103l-0.736 0.552-0.736 0.368-1.471-0.184-0.552-0.368-0.92-1.655-0.368-0.368h-0.552l-0.736 0.736h-0.184l-0.736-0.736-0.92-0.184-0.368-0.184-0.736 0.184-1.471 0.736v0.552l0.552 1.839v0.736l0.552 0.736v1.471l-0.552 0.184v1.287l-0.552 0.92h-1.287l-0.368-0.368h-1.287l-0.92 0.368-1.287 0.368-1.103 0.92-0.92 1.471h-0.92l-0.552 1.287-0.736 0.552h-1.287l-0.184 1.839h-0.184l-0.736 1.103-1.103 1.103h-0.92l-0.552 0.552-0.368 1.287-0.552 0.368-0.184 1.287-0.552 0.184v2.023l0.368 0.736v1.103l0.736 0.552v2.207l-0.368 0.184-1.103 2.207z"></path>
</symbol>
<symbol id="Crimea" viewBox="0 0 52 32">
<path fill="#9cb8fc" stroke="#7b9ae3" stroke-linejoin="round" stroke-linecap="butt" stroke-miterlimit="4" stroke-width="0.5926" d="M13.083 2.166v-1.122l0.927-0.748h0.556l2.316 2.337 0.741-0.093 0.834-0.561 0.649 0.28 0.093 0.841 0.556 0.935 0.463-0.187 0.278-0.654 2.039-0.187 0.463 0.467-0.185 0.748 0.185 0.654 0.741-0.187h0.741v0.467l-0.556 0.561 0.185 0.841 1.297-0.748 1.019 0.187 1.39-0.28-0.927 1.122 0.185 0.748 1.205-0.093 0.556 0.935 1.297 0.187 1.019 1.309 0.556 0.935-0.834 1.683 1.483 1.496 0.741-0.187 2.873 1.215 1.668-0.748 1.575-0.467 1.205-1.589-0.278-0.935 0.741-0.28 0.185 0.654 0.649 0.654 0.834 0.374 0.649-0.093 0.463-1.122 1.39-0.561 2.502 0.187 2.131 0.093 1.297 0.187 0.278 0.841-0.278 0.561-1.205-0.467-0.649 0.28-0.092 0.841-0.556 0.374-0.278 1.589 0.093 1.028 0.556 0.374 0.093 0.654-1.575 0.561-0.649 0.654h-0.741l-0.649-0.374-0.927-0.187-0.927 0.935-1.668 0.467-0.463-0.467-0.649-0.748-1.483-1.028-1.575-0.093-1.483 1.122-0.37 0.654-0.278 1.589h-1.019l-0.278 0.654-0.927 0.28-0.649 0.841v1.122l-0.463 0.093-0.834-0.561-0.741-0.093-0.649 0.467-1.853-0.093-0.556 0.561-2.687 1.215-0.556 1.309-0.556 1.963h-0.834l-1.297 1.122-0.649 1.122-1.297 0.468-0.556 0.654h-0.741l-0.371-0.748h-0.371l-0.741 0.655h-1.019l-0.927-0.561-0.741-0.935h-0.371l-1.39-0.527-0.649-0.688-0.185-0.467 0.834-0.28 0.649-0.561 0.371-0.935-0.185-1.309 0.093-1.028 0.834-1.028 0.093-1.122-0.556-2.43-1.853-1.776-1.112-0.467-0.927 0.467-1.019-0.093-2.409-2.15-1.205-0.654-1.761-0.28-0.834 0.748-1.205 0.374-0.463-0.187-0.649-0.654 0.093-1.402 2.131-1.776 1.205-0.561 1.112-1.496 2.039-0.748 0.741-0.654 0.463-0.654 0.741 0.28 1.019-0.374 1.946-1.589h0.927l0.371-0.374h1.112l0.556-0.935 0.093-0.561-0.278-0.187-0.463 0.28-0.556-0.187-0.463-0.841v-1.122z"></path>
</symbol>
<symbol id="Dnipro" viewBox="0 0 47 32">
<path fill="#9cb8fc" d="M44.38 9.537l-0.289-0.868h-0.963v0.675h-1.059l-0.481-0.675-0.482-0.482-0.578 0.579v1.061h-0.482l-0.096 0.482-0.866 0.289-0.193-1.447-0.385-0.386v-0.096l-0.963-0.772-0.578-0.193 0.193-1.158-1.541-1.254h-0.578l0.097-0.965-0.097-0.868-0.77-0.386-0.77 0.193-0.77 0.868-1.926-0.675-1.156-0.386-1.252 0.386-1.444-1.351-1.444-1.061-0.867-0.675h-2.793l-1.444-0.096-0.867 0.772-1.156 0.675-1.156 0.289-0.674 0.386-0.674 1.158-0.77 1.351-0.482 0.579v0.386l0.482 0.386v1.061l-0.193 0.965-0.963-0.579-1.156-0.675-1.156-0.193-0.963 0.193-0.482 0.579-1.059 0.482-1.252-0.289-1.348 0.289 0.481 0.868 1.252 0.579 1.156 0.482-0.289 0.675-1.252 0.772-1.348 0.868-0.963 0.386v0.965l0.385 1.447v0.965l0.578 0.868-0.193 0.772-0.77 0.675-1.059 0.675-0.867 0.482-1.156 1.64-0.963 0.482-0.578 0.386-0.289 0.772v0.868l0.674 0.675-0.193 0.579v1.736l0.385 0.772h-0.867l-0.385 0.482 0.385 1.061 0.289 0.579 0.867 0.579h0.674l0.385 0.482h1.348l0.578 1.061 0.578-0.482 0.867-0.193 0.578-0.868h0.481l0.578 0.675 0.963 0.579h1.252l1.444-0.386h2.889l1.252 0.675 1.83-0.675 1.83-0.868h3.37l1.444-0.579-0.481-1.254 0.289-0.675v-1.64l-0.674-0.482 0.385-0.579-0.385-0.579-0.963-0.579-0.289-0.675 0.674-0.386h0.578l0.193-0.482-0.77-0.772-0.674-0.386v-0.386h0.482v-0.386l-0.193-0.482v-0.579h0.193l0.385 0.482 0.77 0.096 0.867-0.386v-0.289h2.119l0.385-0.386 1.059 0.096 0.578 0.579 0.77-0.289 0.77 0.096v0.193l1.059-0.386 0.77-0.289 1.156 0.096 1.059 0.579 0.77-0.579h0.77l0.193 1.254h0.482l0.193-0.289 0.289 0.289-0.289 0.579 0.481 0.772 0.77 0.386v0.579l-0.77 0.289 0.193 0.579 0.867 0.289 0.289-0.482 0.193-0.386h0.482l0.193 0.579 0.578 0.289 0.674-0.096 0.289-0.386h0.77l0.481 0.193 0.578-0.482 0.193-0.868 1.156-0.579-0.289-0.193v-0.579l-0.674-0.579v-1.351l0.481-0.386h1.444l0.674 0.772h1.059l0.096-0.772v-0.868l-0.289-0.772 0.289-0.096 0.289-0.675v-0.772l-0.481-0.868-1.059-0.386 0.096-2.219v-1.158l0.674-0.579-0.289-0.386-0.77-0.096-0.482 0.482-0.481-0.386z"></path>
<path fill="none" stroke="#7b9ae3" stroke-linejoin="round" stroke-linecap="butt" stroke-miterlimit="4" stroke-width="0.5517" d="M0.95 22.077l-0.674-0.386M0.95 22.077l0.578-0.386 0.963-0.482 1.156-1.64 0.867-0.482 1.059-0.675 0.77-0.675 0.193-0.772-0.578-0.868v-0.965l-0.385-1.447v-0.965l0.963-0.386 1.348-0.868 1.252-0.772 0.289-0.675-1.156-0.482-1.252-0.579-0.481-0.868 1.348-0.289 1.252 0.289 1.059-0.482 0.482-0.579 0.963-0.193 1.156 0.193 1.156 0.675 0.963 0.579 0.193-0.965v-1.061l-0.482-0.386v-0.386l0.482-0.579 0.77-1.351 0.674-1.158 0.674-0.386 1.156-0.289 1.156-0.675 0.867-0.772 1.444 0.096h2.793l0.867 0.675 1.444 1.061 1.444 1.351 1.252-0.386 1.156 0.386 1.926 0.675 0.77-0.868 0.77-0.193 0.77 0.386 0.097 0.868-0.097 0.965h0.578l1.541 1.254-0.193 1.158 0.578 0.193 0.963 0.772v0.096l0.385 0.386 0.193 1.447 0.866-0.289 0.096-0.482h0.482v-1.061l0.578-0.579 0.482 0.482 0.481 0.675h1.059v-0.675h0.963l0.289 0.868 0.481 0.386 0.482-0.482 0.77 0.096 0.289 0.386-0.674 0.579v1.158l-0.096 2.219 1.059 0.386 0.481 0.868v0.772l-0.289 0.675-0.289 0.096 0.289 0.772v0.868l-0.096 0.772h-1.059l-0.674-0.772h-1.444l-0.481 0.386v1.351l0.674 0.579v0.579l0.289 0.193-1.156 0.579-0.193 0.868-0.578 0.482-0.481-0.193h-0.77l-0.289 0.386-0.674 0.096-0.578-0.289-0.193-0.579h-0.482l-0.193 0.386-0.289 0.482-0.867-0.289-0.193-0.579 0.77-0.289v-0.579l-0.77-0.386-0.481-0.772 0.289-0.579-0.289-0.289-0.193 0.289h-0.482l-0.193-1.254h-0.77l-0.77 0.579-1.059-0.579-1.156-0.096-0.77 0.289-1.059 0.386v-0.193l-0.77-0.096-0.77 0.289-0.578-0.579-1.059-0.096-0.385 0.386h-2.119v0.289l-0.867 0.386-0.77-0.096-0.385-0.482h-0.193v0.579l0.193 0.482v0.386h-0.481v0.386l0.674 0.386 0.77 0.772-0.193 0.482h-0.578l-0.674 0.386 0.289 0.675 0.963 0.579 0.385 0.579-0.385 0.579 0.674 0.482v1.64l-0.289 0.675 0.481 1.254-1.444 0.579h-3.37l-1.83 0.868-1.83 0.675-1.252-0.675h-2.889l-1.444 0.386h-1.252l-0.963-0.579-0.578-0.675h-0.481l-0.578 0.868-0.867 0.193-0.578 0.482-0.578-1.061h-1.348l-0.385-0.482h-0.674l-0.867-0.579-0.289-0.579-0.385-1.061 0.385-0.482h0.867l-0.385-0.772v-1.736l0.193-0.579-0.674-0.675v-0.868l0.289-0.772z"></path>
</symbol>
<symbol id="Donetsk" viewBox="0 0 24 32">
<path fill="#9cb8fc" style="fill: var(--color1, #9cb8fc); stroke: var(--color2, #7b9ae3)" stroke="#7b9ae3" stroke-linejoin="round" stroke-linecap="butt" stroke-miterlimit="4" stroke-width="0.4812" d="M23.594 14.299l0.226 1.058-0.226 0.227-0.452 0.302h-0.753l-0.377 0.227-0.377 0.529v1.209l-0.151 0.605-0.904 0.378-0.603 0.605-0.904 0.076-1.13 0.378-0.452 0.378-0.226 0.756 0.151 1.361-0.151 0.831-0.527 0.68 0.226 0.605 0.829-0.076v0.605l-0.678 0.529-0.226 0.605 0.527 0.68-0.226 0.68-0.301 0.605-0.452-0.605h-2.561l-0.452 0.605-0.527 0.227-1.13 0.151-0.151-0.378-0.377-0.151-0.377 0.151-1.055 2.041-0.678 0.832-0.452-0.302h-0.603l-1.657 1.058-0.452-0.605 0.151-0.454 0.301-0.227h0.452v-0.302l-0.226-0.076v-0.378l0.377-0.302-0.377-0.151h-0.527l-0.151-0.151-0.226-0.529-0.527-0.605-0.377-0.151-0.527-0.529 0.226-0.302 0.301-0.454 0.226-0.227-0.527-0.076v-0.302l0.301-0.378 0.527 0.302h0.452l0.301-0.453 0.151-0.832h0.753l0.151-0.529 0.301-0.454-0.301-0.378-0.904-0.076-0.904-0.68-0.301-0.378-0.527-0.302-0.527 0.454-0.301-0.302-0.678-0.378-0.603-0.302v-0.605l-0.452-0.227-0.301-0.907-0.904-0.302v-0.983l-0.377-0.227-0.151-0.302 0.904-0.453-0.226-0.151v-0.453l-0.527-0.453v-1.058l0.377-0.302h1.13l0.527 0.605h0.829l0.075-0.605v-0.68l-0.226-0.605 0.226-0.076 0.226-0.529v-0.605l-0.377-0.68-0.829-0.302 0.075-1.738v-0.907l0.527-0.454-0.226-0.302-0.603-0.076-0.377 0.378-0.377-0.302-0.226-0.68v-1.285l-0.452-0.529v-0.529l0.226-0.151 0.452 0.378h0.527l0.151-0.529h0.829l0.527 0.302h0.301v-0.529l0.829-0.302 0.377-0.378 0.151-0.605 1.055-0.907v-0.151l-0.226-0.227v-0.454h0.603v-0.454l0.151-0.529 0.603-0.151 0.226 0.454 0.527 0.227h0.527l0.151-0.378 0.226-0.151 0.226 0.529-0.226 0.076v0.378l0.301 0.454 0.829 0.076 0.377 0.529h1.205l0.753-0.227 0.452-0.302v-0.302h1.13l0.753 0.302v0.529l0.527 0.605v0.907l0.377 0.529-0.527 0.529v0.454l0.377 0.529 0.151 1.209 0.377 0.151 0.151 0.756h0.603l0.452 0.454 0.452 0.68v0.227l-0.452 0.302v0.605l1.055 0.151 0.603-0.151 0.377 0.605v0.529l0.753 0.605 0.904-0.076 0.452 0.454-0.075 0.605 0.301 0.454h1.883l0.151 0.756z"></path>
</symbol>
<symbol id="Kherson" viewBox="0 0 49 32">
<path fill="#9cb8fc" style="fill: var(--color1, #9cb8fc)" d="M35.909 2.028l-1.407-0.761h-3.248l-1.624 0.435h-1.408l-1.083-0.652-0.65-0.761h-0.541l-0.65 0.979-0.974 0.217-0.65 0.544-0.65-1.196h-1.516l-0.433-0.544h-0.758v1.087l0.325 0.979-0.325 0.652-0.758-0.435 0.433 1.305 0.65 0.761v1.74l0.217 0.87-0.541 0.761-0.758 0.652-0.974 0.217-0.65 1.196 1.083 0.435 1.299 1.087-0.541 0.979h-0.758l0.325 0.761-0.758 0.87h-1.516l0.866 0.979-0.866 0.761-1.732-0.326-0.325-0.761h-1.408l-1.191 0.761h-1.299l-0.758 0.761h-1.083l-1.299 1.305h-1.407l-1.299 0.326 0.433 1.631 0.866 0.652 0.758 0.218 0.65 0.761 1.299-0.326 1.083 0.87 1.299-0.217 1.191-1.305 0.325 0.652-1.516 1.522-0.541 0.87-0.325 0.153-2.057-0.479-1.624-0.544h-2.382l-1.516-0.326-1.299-0.326-1.624 0.652 0.866 1.305 0.974-0.621 1.083 0.186 1.516 0.87 1.299-0.326 0.433 0.435-0.325 1.087-1.407 0.87-1.191-0.218-0.866 0.218v0.761l0.974 0.326 1.299-0.326 1.083 0.761h0.758l1.083 1.305 1.407 0.326 0.866 1.087 1.299 0.652h1.732l1.407-0.544h1.841l0.758-0.761h1.191l1.732 0.218 0.541-0.652h0.541l0.758 0.435 0.974-1.087h0.541v0.652l0.974 0.217 0.433 0.652h0.541l0.325 0.544 1.083 0.484 0.974-0.702v-0.978h0.758l1.083-0.87-0.217-0.652 1.624-0.87 0.758 0.435 1.083-0.435 0.541 0.435v0.761l0.866 0.652 0.866-0.217 0.325-1.196 0.974-1.196 0.866 0.217 0.974 2.066h0.433l0.541-1.087 0.758 0.217 0.433 0.87h0.65l0.433 0.435-1.083 0.435v0.978l0.866 1.087 0.866-0.217 0.866-1.631h0.866l0.866 1.196 1.516 0.435v-1.087l-0.758-0.761v-0.544h-0.433l1.299-2.936 0.866-0.217 0.65 0.544 0.65-0.326 0.433-0.87-0.433-0.87-0.433-2.392v-0.435l-1.083-0.218-1.407-0.326-0.325-0.87-0.974-0.218-0.866-0.652 0.433-0.652v-0.761l-1.191-0.217-0.217-0.87h0.65l0.325-0.761 0.433-1.413 0.433-0.217v-0.761l-1.191-0.979-0.65-0.544-1.191-0.217-0.325-0.761v-1.522l-0.974-1.196-0.325-1.413 0.541-1.196-0.974-0.979h-0.65l-0.325 0.435v0.326h-1.516l-0.866-1.74v-1.848z"></path>
<path fill="none" stroke="#7b9ae3" style="stroke: var(--color2, #7b9ae3)" stroke-linejoin="round" stroke-linecap="butt" stroke-miterlimit="4" stroke-width="0.5766" d="M4.944 16.924v0.761l0.325 0.326M5.269 18.012l1.299-0.326h1.407l1.299-1.305h1.083l0.758-0.761h1.299l1.191-0.761h1.408l0.325 0.761 1.732 0.326 0.866-0.761-0.866-0.979h1.516l0.758-0.87-0.325-0.761h0.758l0.541-0.979-1.299-1.087-1.083-0.435 0.65-1.196 0.974-0.217 0.758-0.652 0.541-0.761-0.217-0.87v-1.74l-0.65-0.761-0.433-1.305 0.758 0.435 0.325-0.652-0.325-0.979v-1.087h0.758l0.433 0.544h1.516l0.65 1.196 0.65-0.544 0.974-0.217 0.65-0.979h0.541l0.65 0.761 1.083 0.652h1.408l1.624-0.435h3.248l1.407 0.761v1.848l0.866 1.74h1.516v-0.326l0.325-0.435h0.65l0.974 0.979-0.541 1.196 0.325 1.413 0.974 1.196v1.522l0.325 0.761 1.191 0.217 0.65 0.544 1.191 0.979v0.761l-0.433 0.217-0.433 1.413-0.325 0.761h-0.65l0.217 0.87 1.191 0.217v0.761l-0.433 0.652 0.866 0.652 0.974 0.218 0.325 0.87 1.407 0.326 1.083 0.217v0.435l0.433 2.392 0.433 0.87-0.433 0.87-0.65 0.326-0.65-0.544-0.866 0.217-1.299 2.936h0.433v0.544l0.758 0.761v1.087l-1.516-0.435-0.866-1.196h-0.866l-0.866 1.631-0.866 0.217-0.866-1.087v-0.978l1.083-0.435-0.433-0.435h-0.65l-0.433-0.87-0.758-0.217-0.541 1.087h-0.433l-0.974-2.066-0.866-0.217-0.974 1.196-0.325 1.196-0.866 0.217-0.866-0.652v-0.761l-0.541-0.435-1.083 0.435-0.758-0.435-1.624 0.87 0.217 0.652-1.083 0.87h-0.758v0.978l-0.974 0.702-1.083-0.484-0.325-0.544h-0.541l-0.433-0.652-0.974-0.217v-0.652h-0.541l-0.974 1.087-0.758-0.435h-0.541l-0.541 0.652-1.732-0.218h-1.191l-0.758 0.761h-1.841l-1.407 0.544h-1.732l-1.299-0.652-0.866-1.087-1.407-0.326-1.083-1.305h-0.758l-1.083-0.761-1.299 0.326-0.974-0.326v-0.761l0.866-0.218 1.191 0.218 1.407-0.87 0.325-1.087-0.433-0.435-1.299 0.326-1.516-0.87-1.083-0.186-0.974 0.621-0.866-1.305 1.624-0.652 1.299 0.326 1.516 0.326h2.382l1.624 0.544 2.057 0.479 0.325-0.153 0.541-0.87 1.516-1.522-0.325-0.652-1.191 1.305-1.299 0.217-1.083-0.87-1.299 0.326-0.65-0.761-0.758-0.218-0.866-0.652-0.433-1.631z"></path>
</symbol>
<symbol id="Khmelnytskyi" viewBox="0 0 17 32">
<path fill="#9cb8fc" style="fill: var(--color1, #9cb8fc); stroke: var(--color2, #7b9ae3)" stroke="#7b9ae3" stroke-linejoin="round" stroke-linecap="butt" stroke-miterlimit="4" stroke-width="0.4741" d="M11.378 29.184v0.355h-0.474l-0.553 0.318-0.158 0.556-0.474-0.318h-0.632l-0.395 0.397-0.237-0.159-0.553-0.079v-0.238l-0.553-0.079-0.316 0.238-0.395 0.318-0.237-0.238-0.158-0.238-0.158-0.476-0.948 0.238 0.158 0.397-0.316 0.397-0.237 0.159v-0.397l-0.395-0.079-0.316-0.159-0.079 1.032-0.158 0.635h-0.237l-0.316-0.159-0.079-0.397-0.316-0.715-0.869-0.079-0.237-0.318-0.395-0.556-0.316-0.556-0.237-0.556-0.474-0.397 0.237-0.794v-0.794l0.158-0.238-0.395-0.476v-0.556l0.237-0.159-0.237-0.238v-1.271l0.237-0.159v-0.476l-0.316-0.318 0.316-0.238 0.158-0.635v-0.715l-0.158-0.238v-0.794l0.395-0.318 0.158-0.238v-1.191l-0.158-0.397-0.237-0.794-0.158-0.794-0.237-0.873 0.237-0.318 0.553-0.556 0.316-0.953-0.316-0.397 0.158-0.556 0.158-0.238v-0.476l-0.474-0.635v-0.873l-0.237-0.159 0.158-1.191 0.395-0.318 0.158-0.556 0.158-0.238-0.158-0.476v-0.318l0.632-0.159-0.316-0.397-0.237-0.079 0.079-0.397h0.158l0.474-0.079 0.316-0.238 0.237-0.318 0.474-0.556h1.106v-0.238l0.237-0.159 0.237-0.318v-0.238h0.395l0.316-0.397v-0.397l0.632-0.318 0.237-0.318v-0.318l0.316-0.079h0.395l0.079-0.476v-0.238h0.316l0.474-0.159v-0.159l0.316-0.079 0.316 0.159h0.395l0.237-0.159 0.158-0.238h0.395l0.237-0.238 0.316-0.238 0.316 0.476 0.237 0.476 0.474 0.238 0.237 0.318 0.079 0.397-0.158 0.318-0.316 0.238 0.158 0.476 0.316 0.318 0.316 0.635 0.632 0.318 0.158 0.397 0.948 0.874 0.316-0.159 0.079-0.159h0.316l0.237 0.238v0.397l0.158 0.238v0.715l0.158 0.238v1.509l-0.395 0.079-0.553 0.238v0.238l0.237 0.318-0.237 0.556-0.316 0.238 0.316 0.397 0.395 0.556 0.237 0.556 0.395 0.159 0.632 0.318 0.316 0.238 0.395 0.476v0.318l-0.474 0.159-0.158 0.159 0.158 0.556 0.237 0.476-0.158 0.318-0.158 0.476 0.079 0.794-0.316 0.079-0.316 0.238 0.158 0.476 0.316 0.476 0.316 0.556v0.635l0.316 0.318v0.476l0.158 0.318-0.158 0.079v0.556l0.158 0.476-0.079 0.794-0.237 0.079-0.553 0.238-0.316 0.159-0.474-0.159-0.395-0.318h-0.237l-0.474 0.079-0.079 0.318h-0.79l-0.158 0.079-0.158 0.556-0.553 0.397-0.158 0.318-0.079 2.541-0.079 0.318 0.158 0.238-0.079 0.556-0.079 0.238-0.079 1.112-0.316 0.598z"></path>
</symbol>
<symbol id="Ivano-Frankivsk" viewBox="0 0 25 32">
<path fill="#9cb8fc" style="fill: var(--color1, #9cb8fc); stroke: var(--color2, #7b9ae3)" stroke="#7b9ae3" stroke-linejoin="round" stroke-linecap="butt" stroke-miterlimit="4" stroke-width="0.4848" d="M11.449 28.485l-0.56-0.748v-0.748l0.374-0.374 0.187-0.561v-0.655l-0.747-0.561-0.467-0.842 0.467-0.561v-0.468l-0.374-0.374v-0.561l-0.934-0.842-0.654-0.748-0.467-0.468h-0.56l-0.467 0.374-0.84-0.374-0.187-0.842 0.187-1.029 0.187-0.281v-0.561h-0.84v0.281l-0.934 0.281-0.654-0.468-0.56-0.094v-0.561l-0.654-0.561-0.28-0.374v-0.655l-0.28-0.374h-0.747l-0.28-0.561-0.56-0.561-0.467-0.187-0.093-0.187v-0.935l0.374-0.374v-0.655l-0.28-0.374v-0.655l0.28-0.281v-0.374l0.28-0.374 0.093-0.655 0.374-0.187 0.374-0.281h0.467l0.093-0.748 0.28-0.468 0.28-0.281h0.56l0.28 0.281h1.494l0.374-0.374 0.28 0.187 0.374 0.187 0.467-0.374h0.467l1.214 0.187 0.374-0.093 0.187-0.094h0.56l0.28-0.187h1.214l0.187-0.655-0.187-0.374-0.56-0.094-0.28-0.655 0.28-0.655 0.28-0.281 0.187-0.561v-0.561l-0.187-0.281 0.28-0.374 0.187-0.187 0.28-0.374-0.28-0.468 0.187-0.374 0.187-0.187 1.214 0.094 0.56 0.093 0.093 0.281h0.467l0.56 0.374h0.28l0.747 1.496v0.655l0.28 1.029v0.935l0.467 0.374 0.093 0.468-0.374 0.561-0.467 0.093 0.187 0.281v0.655h0.28l0.28 0.374h0.934l0.093 0.374-0.28 0.281-0.28 0.187-0.467 0.094v0.468l0.28 0.187 0.187 0.468 0.56 0.468h0.654l0.467 0.281 0.374 0.374v0.655l0.093 0.468 0.28-0.281h0.56l-0.093 0.655v0.655h0.28l0.28-0.468h1.027l0.374 0.187 0.654 0.187v0.281l0.56 0.281h0.467l0.374 0.561 0.374 0.281v0.748l0.28 0.281-0.093 0.748-0.374 0.094-0.747 0.374v0.281l0.28 0.935v0.374l0.28 0.374v0.748l-0.28 0.094v0.655l-0.28 0.468h-0.654l-0.187-0.187h-0.654l-0.467 0.187-0.654 0.187-0.56 0.468-0.467 0.748h-0.467l-0.28 0.655-0.374 0.281h-0.654l-0.093 0.935h-0.093l-0.374 0.561-0.56 0.561h-0.467l-0.28 0.28-0.187 0.655-0.28 0.187-0.093 0.655-0.28 0.094v1.029l0.187 0.374v0.561l0.374 0.28v1.122l-0.187 0.094-0.56 1.122-0.374 0.094-0.747-1.029-0.934-0.187-0.747-0.842v-0.655l-0.467-0.561z"></path>
</symbol>
<symbol id="Kropyvnytskyi" viewBox="0 0 61 32">
<path fill="#9cb8fc" style="fill: var(--color1, #9cb8fc); stroke: var(--color2, #7b9ae3)" stroke="#7b9ae3" stroke-linejoin="round" stroke-linecap="butt" stroke-miterlimit="4" stroke-width="0.6957" d="M48.078 24.538l0.829 0.474 0.711-0.474 1.184-0.593 1.421-2.016 1.066-0.593 1.303-0.83 0.947-0.83 0.237-0.949-0.711-1.067v-1.186l-0.474-1.779v-1.186l1.184-0.474 1.658-1.067 1.54-0.949 0.355-0.83-1.421-0.593-1.539-0.711-0.592-1.067 1.658-0.356 1.54 0.356 1.303-0.593 0.592-0.711v-0.949l-1.066-0.949-1.539 0.356-1.066 0.593-0.829-0.474h-1.54l-0.237-0.474-1.895-0.119-0.711-1.186 0.237-0.237v-0.83l-0.592-0.474-2.25-0.949-2.843-0.474-2.25 1.423 0.829 1.304-0.355 0.474-3.198 1.423h-1.066l-1.539-2.609h-2.25l-1.895 2.134v1.067l-0.237 0.356-1.54-0.593-1.303 1.423h-0.711l-0.948-1.779h-1.54l-0.355 0.593h-2.132v1.66l-1.777 2.372h-0.592l-1.066-0.237h-1.303l-1.303 0.711-1.066-0.474-3.316-0.237-1.066-0.119-1.303 1.067-1.303 1.541v2.016h-0.829l-0.592-0.474h-0.711l-0.592 1.067h-0.592l-1.303 1.067-0.829-0.474-1.777 0.711-0.237 0.474-0.711 0.83-0.948 0.474-0.474-0.711-0.355-0.237-0.592 0.356-1.066 1.067 0.829 0.949 1.184 0.474 1.066 0.949 0.474 0.83v0.83l0.237 0.593 0.829 0.356h2.961l0.947-0.711 0.355 0.356h3.316l0.947-0.593h1.303l0.711 0.593 0.355-0.356 1.066 0.356 0.829-0.356 0.592-0.949h2.606l0.592 0.949 0.592 1.186h1.777l0.711 0.237 0.711-0.593 0.711 0.593-0.237 0.474v0.83l0.829-0.474 0.829-1.067 1.066 0.237h1.184v1.304l-0.592 0.356v0.593l0.948 1.067 1.184 0.474v1.067l-0.474 0.593 0.474 1.304h2.724l0.592 0.593 0.947 0.593 1.421-1.66h2.014l1.777 0.711 1.539-0.237 0.829-0.474 0.237-0.83v-0.949l0.355-0.711-0.355-0.474v-0.356l0.592-0.711h1.066l0.474 0.474 1.895-1.897h0.711z"></path>
</symbol>
<symbol id="Kyiv" viewBox="0 0 25 32">
<path fill="#9cb8fc" style="fill: var(--color1, #9cb8fc); stroke: var(--color2, #7b9ae3)" stroke="#7b9ae3" stroke-linejoin="round" stroke-linecap="butt" stroke-miterlimit="4" stroke-width="0.4414" d="M1.815 1.527l-1.304 0.145 0.507 0.726-0.145 0.653-0.652 0.653v0.871l0.072 0.435 1.014 0.29 0.507 0.798v0.798l-0.507 0.29-0.435 0.218v0.145l0.507 0.218 0.507 0.798v0.508l-0.072 0.58 0.072 0.363 0.652 0.073 0.072 0.943-0.217 0.29-0.217 0.363-0.435 0.363v0.435l0.29 0.363v0.29l-0.507 0.363v0.218h0.29l0.072 0.435-0.29 0.145-0.29 0.29v0.218l0.58 0.218h0.725l0.145 0.943v0.29l0.435 0.145 0.217 0.363 0.145 0.073v1.306l0.217 0.218v0.653l-0.217 0.218h-0.362l0.072 1.088 0.217 0.363 0.29 0.145v0.508l-0.29 0.363-0.507 0.508-0.507 0.145-0.072 0.29-0.58 0.145-0.29 0.363h-0.435v0.363l0.145 0.218-0.072 0.435-0.072 0.363 0.435 0.073v0.58h0.072l0.362 0.218-0.145 0.29-0.217 0.363 0.072 0.363 0.435 0.363 0.145 0.218-0.29 0.435 0.145 0.218 0.217 0.29-0.072 0.435-0.507 0.29-0.072 0.508 0.29 0.145 0.29 0.508 0.435 0.29 0.725 0.798 0.145 0.653 0.58 0.218h0.435l0.362-0.218 0.435-0.508v-0.435h0.725l0.58-0.29 0.797-0.653 0.072 0.435 0.29 0.218 0.797-0.072 0.435 0.363 0.362 0.218 0.217-0.725 0.29-0.58h1.449l0.362-0.363 0.652 0.508h0.362l0.29-0.29 1.087 0.072 0.145-0.29v-0.435l0.435-0.653 0.652-0.58 0.29-0.29 0.435-0.653 0.217-0.363-0.58-0.363 0.362-0.29 0.362-0.218-0.145-0.943 0.145-0.508v-0.363l0.072-0.218 0.072-0.798 1.087-0.653 0.652-0.073 0.507 0.29 1.377 0.363h0.435l0.29-0.29 0.29-0.508 0.435-0.363 0.362-0.508v-0.435l0.435-0.218v-0.218l-0.29-0.363v-0.435l0.435-0.508 0.507-0.218 0.217-0.218v-0.29l-0.145-0.218v-0.363l0.217-0.218h0.58l0.145-0.363 0.29-0.58 0.072-0.508-0.435-0.508v-0.29l-0.797-0.508-0.145-0.435 0.29-0.29h0.29v-0.435h-0.58l-0.58-0.363v-0.363l-0.435-0.363-0.362 0.218-0.29 0.508-0.58 0.145-0.29 0.218-0.217 0.435h-1.377l-0.435 0.29-0.435-0.29h-0.435l-0.217 0.29-0.362-0.29v-0.435l-0.725-0.725v-0.363h0.217v-0.363l-0.435-0.725-0.435-0.363-0.145-0.435h-0.58l-0.58 0.435-0.797 0.073-0.217-0.218h-0.797l-0.145-0.798 0.29-0.435-0.072-0.29-0.942-0.726v-0.943l-0.435-0.435v-1.886l-0.362-0.58-0.217-0.218 0.217-0.798h-0.435l-0.29-0.29h-0.725l-0.217-0.653-0.145-0.871-1.232-1.016h-2.101l-0.725 0.508h-0.87l-0.29-0.145v-0.653l-0.797 0.145-0.29 0.363-0.58 0.29-0.435 0.508z"></path>
</symbol>
<symbol id="Luhansk" viewBox="0 0 23 32">
<path fill="#9cb8fc" style="fill: var(--color1, #9cb8fc); stroke: var(--color2, #7b9ae3)" stroke="#7b9ae3" stroke-linejoin="round" stroke-linecap="butt" stroke-miterlimit="4" stroke-width="0.4741" d="M1.332 3.225l-0.313-0.786h0.938l0.625-0.629-0.391-1.258 0.391-0.314h0.938l0.391 0.472v0.314l1.485 0.472 0.547-0.314 1.016 0.157 0.704 0.865 1.329 0.236 0.625 0.55h0.782l0.938-0.943h0.625l0.625 1.101 0.625 0.629 0.391 0.157 0.938-0.55 0.547 0.55 0.782-0.157 0.547 1.415 1.485 0.393 0.313 0.314 0.625-0.157 1.095-0.943h1.173v0.236l-0.469 1.101v0.55l1.095 1.415 0.313 0.314-0.313 1.337v0.55l-0.625 0.943-0.704 0.708-0.313 0.865-0.625 0.236-0.782 0.55h-0.625l0.156 0.943 0.86 0.708 1.798 0.393 0.86-0.393 0.313 0.157v0.472l-0.469 0.865h-0.704l-1.251-0.236-0.547 0.708-0.391 0.943v0.786l0.156 0.943 1.564 0.472 0.313 0.157v0.865l0.86 1.258v0.55l-0.469 0.629v0.315l1.095-0.157 0.313 0.157-0.078 0.472-0.86 0.708 0.156 0.708-0.391 0.315v1.022l-0.469 0.786 0.469 1.179v0.629l-0.313 0.865-1.798 0.236-1.407 0.472-0.469-0.079-0.938-0.393-1.329 0.708-0.547-0.157-0.625-0.55-0.235-1.101-0.156-0.786h-1.954l-0.313-0.472 0.078-0.629-0.469-0.472-0.938 0.079-0.782-0.629v-0.55l-0.391-0.629-0.625 0.157-1.095-0.157v-0.629l0.469-0.314v-0.236l-0.469-0.708-0.469-0.472h-0.625l-0.156-0.786-0.391-0.157-0.156-1.258-0.391-0.55v-0.472l0.547-0.55-0.391-0.55v-0.943l-0.547-0.629v-0.55l-0.782-0.314h-1.173l-0.313-0.393 0.313-0.55 0.156-0.314-0.235-0.314v-0.472l0.235-0.393-0.469-0.708-1.251-1.179v-0.393l0.078-0.236-0.235-0.314-0.391-0.314-0.156-0.865 0.156-0.786 0.391-0.629 0.235-0.55-0.313-0.943 0.391-1.022v-0.708l-0.313-0.157-0.235-0.157 0.547-1.101-0.313-0.393 0.547-0.629z"></path>
</symbol>
<symbol id="Lutsk" viewBox="0 0 31 32">
<path fill="#9cb8fc" style="fill: var(--color1, #9cb8fc); stroke: var(--color2, #7b9ae3)" stroke="#7b9ae3" stroke-linejoin="round" stroke-linecap="butt" stroke-miterlimit="4" stroke-width="0.4741" d="M25.857 2.678v-1.274h-0.427l-1.281-0.318-1.388-0.425-0.747-0.425h-2.455l-1.174 0.425h-7.473l-1.495 1.061-0.213 0.955-0.32 0.743-1.281 1.168-1.174 0.743-0.854 0.425h-0.747l-0.961-0.425-0.641-0.425h-1.494l-1.174 0.212-0.32 0.637 1.067 2.866v0.743l-0.747 1.274v0.425l1.174 1.486 1.174 1.592v0.637l0.747 2.441 0.747 2.123 0.747 0.849v0.637h-1.067l-0.427 0.212v0.743l0.747 1.168 0.427 1.062 0.32 0.849 0.641 0.319 0.534 0.637 0.641 0.425 0.534-0.637 0.427-0.212 0.854 0.425v0.849h0.427l0.64 0.637-0.32 0.425-0.32 0.319v1.061l0.32 0.531 0.534-0.319 1.388 0.319v0.425l0.747 0.531 0.534 1.168 0.534-0.531h0.854l1.495 0.212 0.854 0.318h0.747l0.854-0.531v-0.637l-0.32-0.531-0.534-0.425v-0.531l0.534-0.319v-0.531l0.32-0.743 0.534 0.212h1.174v-1.061h1.067v-1.274h3.309l1.281 0.849h1.067l0.534-0.637v-1.911l0.534-0.318 0.427-0.531h0.64l0.427-0.637v-1.168h0.427v-0.955h0.854v-0.425l-0.214-0.212v-0.849l-0.32-0.425h-0.961l-0.214-0.212 0.214-0.955 0.961-0.318 0.32-0.531-0.64-1.061-1.067-0.318-0.427-0.955-0.427-0.849-0.214-0.849h-2.882l-0.32-2.123v-0.955l0.534-0.849v-0.849l-0.214-0.318-0.64-0.743v-1.062l0.854-0.955 0.534-0.849 0.64-0.743z"></path>
</symbol>
<symbol id="Lviv" viewBox="0 0 31 32">
<path fill="#9cb8fc" style="fill: var(--color1, #9cb8fc); stroke: var(--color2, #7b9ae3)" stroke="#7b9ae3" stroke-linejoin="round" stroke-linecap="butt" stroke-miterlimit="4" stroke-width="0.4923" d="M1.517 27.395v-1.18l0.182-0.817-0.272-0.545-0.726-0.817-0.454-0.545v-0.545l0.726-1.634-0.091-1.453-0.272-0.726-0.182-0.908v-1.271l0.182-0.545 1.634-1.634 1.452-1.544 1.452-1.634 1.361-1.453 1.815-1.634 0.998-1.18 1.18-0.636 0.908-0.636 0.726-0.908 0.726-1.090 0.635-0.091 1.271-0.091 1.452-0.182 0.635-1.090 0.545-0.545 0.181-0.363v-1.090l0.272-0.363 0.545 0.272 0.454 0.545 0.545 0.363 0.454-0.545 0.363-0.182 0.726 0.363v0.726h0.363l0.545 0.545-0.272 0.363-0.272 0.272v0.908l0.272 0.454 0.454-0.272 1.18 0.272v0.363l0.635 0.454 0.454 0.999 0.454-0.454h0.726l1.271 0.182 0.726 0.272h0.091l0.091 0.363-0.182 0.182 0.182 0.272 0.363 0.363 0.091-0.182 0.635-0.182 0.272 0.182 0.091 0.363h-0.182v0.454l-0.454 0.182v0.272l0.272 0.272v0.272l-0.272 0.272-0.091 0.454 0.272 0.363v0.454h0.272l0.272 0.272 0.182 0.454h0.363l0.363 0.182 0.181-0.182h0.545l0.181 0.636v0.454l-0.181 0.726-0.182 0.454-0.363 0.636-0.635 0.182-0.544 0.363h-1.634l-0.454 0.545 0.091 0.272 0.091 1.18h-0.363l-0.817 0.182-0.363 0.091v0.817l-0.272 0.272h-0.363l-0.182 0.454h-0.908l-0.545 0.182v0.272l-0.454 0.363-0.272 0.272v0.454h-0.272l-0.545-0.363h-0.454l-0.091-0.272-0.545-0.091-1.18-0.091-0.181 0.182-0.182 0.363 0.272 0.454-0.272 0.363-0.182 0.182-0.272 0.363 0.182 0.272v0.545l-0.182 0.545-0.272 0.272-0.272 0.636 0.272 0.636 0.545 0.091 0.182 0.363-0.182 0.636h-1.18l-0.272 0.182h-0.545l-0.181 0.091-0.363 0.091-1.18-0.182h-0.454l-0.454 0.363-0.363-0.181-0.272-0.182-0.363 0.363h-1.452l-0.272-0.272h-0.545l-0.272 0.272-0.272 0.454-0.091 0.726h-0.454l-0.363 0.272-0.363 0.182-0.091 0.636-0.272 0.363v0.363l-0.272 0.273v0.636l0.272 0.363v0.636l-0.363 0.363v0.817h-0.363l-0.272-0.182h-0.817l-0.272-0.454-0.726-0.363h-0.726l-0.998-0.363v-0.454l-0.182-0.726h-0.726l-0.726-0.181-0.545-0.726-0.454-0.363-0.272-0.545z"></path>
</symbol>
<symbol id="Mykolaiv" viewBox="0 0 39 32">
<path fill="#9cb8fc" style="fill: var(--color1, #9cb8fc); stroke: var(--color2, #7b9ae3)" stroke="#7b9ae3" stroke-linejoin="round" stroke-linecap="butt" stroke-miterlimit="4" stroke-width="0.4741" d="M13.13 28.548l-0.309 0.518v2.178l0.619-0.104 1.031 0.518 0.516 0.104 0.825-0.415 1.135-1.244 0.309-0.726-0.413-0.83 0.413-0.208 1.031-0.415-0.309 0.83-0.309 1.141v1.452l0.619 0.207 0.722-0.933h0.825l0.309 0.311 1.135 0.311 1.031-0.311 0.516-0.622v-1.244l-0.516-0.726 0.309-0.518 0.619 0.207v0.726l0.309 0.311 1.238-0.311h1.341l1.238-1.244h1.031l0.722-0.726h1.238l1.135-0.726h1.341l0.309 0.726 1.65 0.311 0.825-0.726-0.825-0.933h1.444l0.722-0.83-0.309-0.726h0.722l0.516-0.933-1.238-1.037-1.032-0.415 0.619-1.141 0.928-0.207 0.722-0.622 0.516-0.726-0.206-0.83v-1.659l-0.619-0.726-0.413-1.244 0.722 0.415 0.31-0.622-0.31-0.933v-1.037l-0.928-0.622-0.309-0.622-0.413-1.141 0.413-0.519h0.928l-0.413-0.83v-1.867l0.206-0.622-0.722-0.726v-0.933l0.309-0.83-0.722-0.415h-0.619l-1.65 1.659-0.412-0.415h-0.928l-0.516 0.622v0.311l0.309 0.415-0.309 0.622v0.83l-0.206 0.726-0.722 0.415-1.341 0.207-1.547-0.622h-1.754l-1.238 1.452-0.825-0.519-0.516-0.519h-2.372l-0.413-1.141 0.413-0.519v-0.933l-1.031-0.415-0.825-0.933v-0.519l0.516-0.311v-1.141h-1.031l-0.928-0.207-0.722 0.933-0.722 0.415v-0.726l0.206-0.415-0.619-0.519-0.619 0.519-0.619-0.207h-1.547l-0.516-1.037-0.516-0.83h-2.269l-0.516 0.83-0.722 0.311-0.928-0.311-0.309 0.311-0.619-0.519h-1.135l-0.825 0.519h-2.888l-0.309-0.311-0.825 0.622 0.413 0.83-1.444 0.415v0.311l0.206 0.519v0.933l0.825 0.519 0.206 1.659 0.206 0.933 0.722 0.726v0.519l0.413 0.207v2.178h0.516l0.206 0.519h0.928l0.413-0.311 0.619-0.207 0.619 0.519 0.619 0.207 0.516-0.726 0.413 0.726 0.516 0.622 0.722 0.933-0.309 0.726v2.593l0.516 1.556h1.238l0.516 0.311h0.516v-0.311h1.031l0.413 0.311-0.413 0.726-0.413 0.519 0.413 0.519 0.722 0.311h0.825v0.519l0.413 0.519v0.83l-0.413 0.622v0.519l-0.309 0.518h-1.031l-1.238 0.207-0.309 0.415 0.722 1.244 1.341 1.141v1.037z"></path>
</symbol>
<symbol id="Odesa" viewBox="0 0 23 32">
<path fill="#9cb8fc" style="fill: var(--color1, #9cb8fc); stroke: var(--color2, #7b9ae3)" stroke="#7b9ae3" stroke-linejoin="round" stroke-linecap="butt" stroke-miterlimit="4" stroke-width="0.4604" d="M6.41 2.132l-0.51 0.447 0.17 0.224 0.283 0.28h0.624l0.17-0.28 0.567 0.056 0.283 0.224v0.447l0.34 0.336-0.34 0.727 0.34 0.447-0.227 0.503v0.951l-0.397 0.503-0.113 0.503v0.391l0.34 0.336 0.567 0.112 0.624 0.839 0.227 0.615 0.397 0.112 0.454-0.447 0.34 0.056 0.227 0.168v0.839l-0.34 0.224 0.17 0.839-0.34 0.336v0.224h0.51l0.17 0.336-0.284 0.895 0.227 0.447 0.397 0.168 0.51 0.391 0.397 0.112h0.624l0.454 0.615v1.901l0.113 0.391-0.113 0.336-0.34 0.224 0.17 0.391 0.794 0.447 0.397 0.615-0.113 0.224h-1.191l-0.17 0.224h-0.567v-0.503l-0.057-0.168-0.397-0.336-0.283-0.056-0.34 0.391-0.057 0.336-0.397 0.112-0.283-0.336-0.454-0.056-0.17-0.727h-0.283l-0.34 0.447h-0.51l-0.397 0.503h-0.34l-0.057-1.51h-0.34l-0.51 0.224-1.077 0.671-0.113 0.783 0.113 0.336v0.727l0.624 0.783v0.336l-0.51 0.447-0.113 0.447 0.113 0.503v0.336l-0.624 0.168-0.51-0.056-0.567 0.503v0.839l-0.567 0.783h-0.624l-0.17 0.391-0.34 0.336h-0.227v0.559l0.34 0.391v0.503l-0.34 0.559-0.68 0.112-0.567-0.224-0.85 0.224-0.113 0.336 0.454 0.391 0.397 0.951 0.624 0.615 0.964 0.224 0.51 0.335 1.021 0.112 0.283-0.112-0.057-0.783 0.34-0.392h0.283v0.559l0.34 0.28 0.567-0.28 0.794-0.727 1.134-0.448 1.417-0.224 1.531 0.951 0.227 0.392v0.951h0.284l0.397-0.671 0.113-1.062-0.284-0.671-0.737-0.056-0.057-0.335 0.113-0.448v-0.279l-0.227-0.224-0.057-1.286 0.17-0.615h0.34l0.113 0.392 0.113 0.615 0.454 0.447h0.17l0.567-0.391-0.113-0.224-0.113-0.559 0.51-0.056 0.17-0.447 0.624-0.615h0.283l0.397 0.224h0.227v-0.559l0.283-0.112 0.227 0.336 0.227-0.056 0.454-0.671 1.077-1.174v-0.727l-0.34-0.447-0.057-0.391-0.794-0.447-0.964-0.783-0.113-0.615 0.283-0.447 0.454-0.224 0.34 0.056 0.113 0.503 0.454 0.391v0.559l0.624 0.447 0.113 0.559 0.567 0.391 0.567-0.28 0.68-0.951v-0.727l0.68-0.783v-1.286l0.227-0.447h0.85l1.020-0.391 0.68-0.224v-1.174l0.17-0.28v-0.559l-0.737-0.615-0.397-0.671 0.17-0.224 0.68-0.112h0.567l0.17-0.28v-0.28l0.227-0.336v-0.447l-0.227-0.28v-0.28h-0.454l-0.397-0.168-0.227-0.28 0.227-0.28 0.227-0.391-0.227-0.168h-0.567v0.168h-0.283l-0.284-0.168h-0.68l-0.283-0.839v-1.398l0.17-0.391-0.397-0.503-0.284-0.336-0.227-0.391-0.284 0.391-0.34-0.112-0.34-0.28-0.34 0.112-0.227 0.168h-0.51l-0.113-0.28h-0.284v-1.174l-0.227-0.112v-0.28l-0.397-0.391-0.113-0.503-0.113-0.895-0.454-0.28v-0.503l-0.113-0.28v-0.168l0.794-0.224-0.227-0.447h-1.417l-0.397-0.168-0.113-0.28v-0.391l-0.34 0.112h-0.397v0.112l-0.34 0.168-0.397-0.28-0.397 0.112h-0.34l-0.284 0.168 0.227 0.447v0.336l-0.397 0.224h-0.85l-0.397-0.224-0.34-0.112-0.454 0.336-0.567-0.112h-0.51l-0.51-0.447-0.624-0.112v0.671l-0.567 0.503z"></path>
</symbol>
<symbol id="Poltava" viewBox="0 0 40 32">
<path fill="#9cb8fc" style="fill: var(--color1, #9cb8fc); stroke: var(--color2, #7b9ae3)" stroke="#7b9ae3" stroke-linejoin="round" stroke-linecap="butt" stroke-miterlimit="4" stroke-width="0.4885" d="M0.714 6.848l-0.47-0.472 0.188-0.472 0.376-0.755 0.094-0.66 1.033 0.189 0.564-0.377 0.564-0.472 0.376-0.377 0.376 0.377h0.376l0.376-0.377 0.564 0.66h0.564l0.47 0.189 0.188-0.189h0.564l0.564 0.189 0.47-0.472 0.939-0.377 0.846-0.472 0.188-0.377 0.376-0.189 0.752-0.849 0.188-0.43h1.315l0.188 0.147 0.658-0.566 0.47 0.094 0.564 0.472 0.376 0.283 1.221-0.094 0.47-0.189h0.47l1.503 0.66 0.564-0.377 0.846-0.094 0.282-0.66h0.846l1.127 0.849 0.564-0.377 0.658-0.755 0.939-0.283 0.282 0.189 0.094 1.51 0.376 0.566 0.658 0.472 0.376 0.472v0.283l-0.188 0.283v0.472l0.846 0.566 0.094 0.566 0.846 0.472-0.094 0.566-0.376 0.283-0.188 0.283 0.188 0.283h0.845l0.188-0.283h0.376v0.283l1.127-0.094 0.094-0.283 0.282-0.189 0.47-0.189 0.47-0.472 0.376 0.189 0.282 0.189 0.564 0.094v1.226h0.188v0.377l-0.376 0.094-0.658 0.943 0.188 0.283 0.282 0.377v0.755l0.846 0.283 1.127 0.189 0.376 0.566 0.47 0.189 0.188-0.189 0.564 0.094 0.282 0.283v1.226l0.47 0.566 0.752 0.849 0.752-0.094 0.658-0.283 0.188 0.283 0.094 0.283-0.282 0.283 0.094 0.377 0.376 0.472 0.47 0.377-0.094 0.283h-0.845l0.094 0.189 0.752 0.566-0.376 0.472h-1.127v0.566l0.188 0.283v1.415l-0.939 0.849-0.376 0.377-1.409 0.094-0.752-0.472-0.47 0.566v0.377l0.282 0.283-0.564 0.377 0.564 0.566v0.66h-1.128l-1.409-0.094-0.845 0.755-1.128 0.661-1.127 0.283-0.658 0.377-0.658 1.132-0.752 1.321-0.47 0.566v0.377l0.47 0.377v1.038l-0.188 0.943-0.939-0.566-1.127-0.661-1.127-0.189-0.94 0.189v-0.755l-0.846-0.755-1.221 0.283-0.846 0.472-0.658-0.377h-1.221l-0.188-0.377-1.503-0.094-0.564-0.943 0.188-0.189v-0.66l-0.47-0.377-1.785-0.755 0.282-0.377-0.846-1.132-1.597-2.17-0.658-1.132-1.879-0.849-0.47-0.943 0.47-1.227-0.47-1.038-1.033-0.943-0.658-0.283-0.188-1.321-1.033-0.189-0.752-0.755-0.47-0.66 0.376-0.472 0.282-0.66v-0.566l-1.221-1.226-0.94-0.472v-1.132l-0.282-0.66-1.033-0.472-0.282-0.472z"></path>
</symbol>
<symbol id="Rivne" viewBox="0 0 30 32">
<path fill="#9cb8fc" style="fill: var(--color1, #9cb8fc); stroke: var(--color2, #7b9ae3)" stroke="#7b9ae3" stroke-linejoin="round" stroke-linecap="butt" stroke-miterlimit="4" stroke-width="0.4706" d="M8.325 1.771v-1.084h1l0.454-0.452h0.909l0.727 0.452 1.545 0.271 1.273 0.813 1.727 0.271 0.909 0.813h2.091l2 1.084h1.545l0.454-0.181 1.182 0.361 0.364 1.445 0.727 0.452 0.272 0.994h1.364l0.454-0.452 0.818-0.090 0.545 0.632h0.545l0.182 0.632-0.364 0.903-0.636 0.361-0.182 0.542v0.632h-0.273l-0.545-0.632-0.364 0.271 0.182 0.452v0.723l-0.727 0.903v0.361l0.273 0.361v0.361l-0.636 0.452v0.361l-0.454 0.361-0.182 0.632v0.361l-0.364 0.271-0.182 0.452-0.455 0.181-0.273 0.181h-0.364l0.091 0.452 0.182 0.181v1.174l0.182 0.090v0.542l-0.182 0.452v1.174l0.091 0.181 0.091 0.271 0.182 0.181v0.632l-0.364 0.181-0.091 0.452-0.182 0.542-0.182 0.271-0.273 0.632h-0.727l-0.364 0.271-0.273 0.271h-0.454l-0.182 0.271-0.273 0.181h-0.454l-0.364-0.181-0.364 0.090v0.181l-0.545 0.18h-0.364v0.271l-0.091 0.542h-0.454l-0.364 0.090v0.361l-0.273 0.361-0.727 0.361v0.452l-0.364 0.452h-0.454v0.271l-0.273 0.361-0.273 0.181v0.271h-1.273l-0.545 0.632-0.273 0.361-0.364 0.271-0.545 0.090-0.364-0.181v-0.813l0.182-0.542-0.364-0.090-0.273 0.181-0.364-0.181-0.454-0.361-0.182 0.181h-1.091l-0.182 0.181-0.454 0.181-0.182 0.271h-0.545v0.452l-0.454 0.181h-1.545l-0.182 0.181h-1.182l-0.182-0.181-0.364-0.090-0.182-0.090-0.091 0.271-0.364 0.271v0.181l0.364 0.181-0.091 0.452-0.364 0.452-0.273 0.271h-0.545l-0.182 0.181-0.364-0.181h-0.364l-0.182-0.452-0.273-0.271h-0.273v-0.452l-0.273-0.361 0.091-0.452 0.273-0.271v-0.271l-0.273-0.271v-0.271l0.454-0.181v-0.452h0.182l-0.091-0.361-0.273-0.181-0.636 0.181-0.091 0.181-0.364-0.361-0.182-0.271 0.182-0.181-0.091-0.361h0.636l0.727-0.452v-0.542l-0.273-0.452-0.454-0.361v-0.452l0.454-0.271v-0.452l0.273-0.632 0.454 0.181h1v-0.903h0.909v-1.084h2.818l1.091 0.723h0.909l0.454-0.542v-1.626l0.454-0.271 0.364-0.452h0.545l0.364-0.542v-0.994h0.364v-0.813h0.727v-0.361l-0.182-0.181v-0.723l-0.273-0.361h-0.818l-0.182-0.181 0.182-0.813 0.818-0.271 0.273-0.452-0.545-0.903-0.909-0.271-0.364-0.813-0.364-0.723-0.182-0.723h-2.454l-0.273-1.807v-0.813l0.454-0.723v-0.723l-0.182-0.271-0.545-0.632v-0.903l0.727-0.813 0.454-0.723 0.545-0.632z"></path>
</symbol>
<symbol id="Sumy" viewBox="0 0 25 32">
<path fill="#9cb8fc" d="M2.523 26.594h-1.068v-0.263l0.229-0.383 0.076-0.842-0.153-0.153-0.305-0.229v-0.383l0.153-0.306 0.534-0.076 0.229-0.306 0.076-0.23-0.229-0.422-0.381-0.037-0.076-0.383 0.229-0.077 0.153-0.536 0.076-0.383 0.381-0.306v-0.842l-0.152-0.23v-0.918l-0.763 0.077-0.229-0.23-0.153-0.306-0.458-0.077-0.152-0.23-0.305-0.153v-0.995l0.229-0.077 0.229-0.459 0.458-0.765v-0.536l-0.152-0.306-0.305-0.306 0.152-0.612 0.305-0.306 0.381-0.23 0.076-0.23 0.076-0.459 0.153-0.306-0.076-1.071 0.153-0.383v-0.23l-0.229-0.153-0.229-0.306 0.305-0.153-0.153-0.459-0.229-0.306-0.458-0.23v-1.377l0.153-0.306 0.305-0.23 0.076-0.383 0.305-0.306h0.305l0.381-0.306 0.61-0.306 0.305-0.23v-0.995h0.229l0.305-0.306 0.305-0.153v-0.306l-0.534-0.383-0.305-0.383-0.534-0.383-0.152-0.306 0.152-0.306 0.305-0.306v-0.842l0.305-0.077v-0.765h0.763l0.305 0.536h0.381l1.449-0.842 0.839 0.077 0.381 0.459 0.61 1.224 0.686 0.23 0.686 0.765 0.076 1.76 1.068 1.607 0.915 0.689 0.915 0.918 0.305 0.995-1.83 0.612-0.763 0.306v0.536l0.534 0.842 0.686 0.689-0.305 1.377v0.765l0.61 0.077 0.229 0.23-0.534 1.301 0.686 0.383 0.686-0.383 0.991 0.23 1.525 0.153 0.381 0.536h1.144l0.61-0.306 1.068-0.23 0.991 0.23v1.301l0.534 0.612 1.068-0.306 0.534 0.459-0.381 0.995 0.61 0.918 0.381 1.301 0.534 0.612-0.152 1.301-0.305 0.383 0.457 1.684 0.534 0.689 0.915 0.306v0.536l0.686 0.995-0.686 0.383-0.762 0.229-0.686-0.612-0.229 0.306v0.306l-0.153 0.077-0.305-0.077-0.229 0.459h-0.381l-0.076 0.383-0.381 0.459-0.457-0.229h-0.381l-0.305 0.459-0.534 0.383-0.458 0.306-0.381 0.23-0.458-0.076-0.229-0.153-0.305-0.153-0.381 0.383-0.381 0.153-0.229 0.153-0.076 0.23-0.915 0.076v-0.23h-0.305l-0.153 0.23h-0.686l-0.153-0.23 0.153-0.229 0.305-0.23 0.076-0.459-0.686-0.383-0.076-0.459-0.686-0.459v-0.383l0.153-0.23v-0.229l-0.305-0.383-0.534-0.383-0.305-0.459-0.076-1.224-0.229-0.153-0.763 0.23-0.534 0.612-0.457 0.306-0.915-0.689h-0.686l-0.229 0.536-0.686 0.077-0.457 0.306-1.22-0.536h-0.381l-0.381 0.153-0.991 0.077-0.305-0.23-0.458-0.383-0.381-0.076-0.534 0.459-0.153-0.12z"></path>
<path fill="none" stroke="#7b9ae3" stroke-linejoin="round" stroke-linecap="butt" stroke-miterlimit="4" stroke-width="0.4706" d="M1.455 26.594l-0.153 0.349M1.455 26.594h1.068l0.153 0.12 0.534-0.459 0.381 0.076 0.457 0.383 0.305 0.23 0.991-0.077 0.381-0.153h0.381l1.22 0.536 0.457-0.306 0.686-0.077 0.229-0.536h0.686l0.915 0.689 0.457-0.306 0.534-0.612 0.763-0.23 0.229 0.153 0.076 1.224 0.305 0.459 0.534 0.383 0.305 0.383v0.229l-0.153 0.23v0.383l0.686 0.459 0.076 0.459 0.686 0.383-0.076 0.459-0.305 0.23-0.153 0.229 0.153 0.23h0.686l0.153-0.23h0.305v0.23l0.915-0.076 0.076-0.23 0.229-0.153 0.381-0.153 0.381-0.383 0.305 0.153 0.229 0.153 0.458 0.076 0.381-0.23 0.458-0.306 0.534-0.383 0.305-0.459h0.381l0.457 0.229 0.381-0.459 0.076-0.383h0.381l0.229-0.459 0.305 0.077 0.152-0.077v-0.306l0.229-0.306 0.686 0.612 0.762-0.229 0.686-0.383-0.686-0.995v-0.536l-0.915-0.306-0.534-0.689-0.457-1.684 0.305-0.383 0.152-1.301-0.534-0.612-0.381-1.301-0.61-0.918 0.381-0.995-0.534-0.459-1.068 0.306-0.534-0.612v-1.301l-0.991-0.23-1.068 0.23-0.61 0.306h-1.144l-0.381-0.536-1.525-0.153-0.991-0.23-0.686 0.383-0.686-0.383 0.534-1.301-0.229-0.23-0.61-0.077v-0.765l0.305-1.377-0.686-0.689-0.534-0.842v-0.536l0.763-0.306 1.83-0.612-0.305-0.995-0.915-0.918-0.915-0.689-1.068-1.607-0.076-1.76-0.686-0.765-0.686-0.23-0.61-1.224-0.381-0.459-0.839-0.077-1.449 0.842h-0.381l-0.305-0.536h-0.763v0.765l-0.305 0.077v0.842l-0.305 0.306-0.152 0.306 0.152 0.306 0.534 0.383 0.305 0.383 0.534 0.383v0.306l-0.305 0.153-0.305 0.306h-0.229v0.995l-0.305 0.23-0.61 0.306-0.381 0.306h-0.305l-0.305 0.306-0.076 0.383-0.305 0.23-0.152 0.306v1.377l0.457 0.23 0.229 0.306 0.153 0.459-0.305 0.153 0.229 0.306 0.229 0.153v0.23l-0.153 0.383 0.076 1.071-0.153 0.306-0.076 0.459-0.076 0.23-0.381 0.23-0.305 0.306-0.152 0.612 0.305 0.306 0.153 0.306v0.536l-0.458 0.765-0.229 0.459-0.229 0.077v0.995l0.305 0.153 0.152 0.23 0.458 0.077 0.153 0.306 0.229 0.23 0.763-0.077v0.918l0.152 0.23v0.842l-0.381 0.306-0.076 0.383-0.153 0.536-0.229 0.077 0.076 0.383 0.381 0.037 0.229 0.422-0.076 0.23-0.229 0.306-0.534 0.076-0.153 0.306v0.383l0.305 0.229 0.153 0.153-0.076 0.842-0.229 0.383v0.263z"></path>
</symbol>
<symbol id="Ternopil" viewBox="0 0 19 32">
<path fill="#9cb8fc" stroke="#7b9ae3" stroke-linejoin="round" stroke-linecap="butt" stroke-miterlimit="4" stroke-width="0.4741" d="M18.347 31.006l0.284 0.379-0.284 0.379h-0.569l-0.474-0.284-0.664-0.284h-0.759l-0.379-0.284-0.379-0.473v-0.473l-0.474-0.473h-0.569l-0.379 0.284-0.379 0.189-0.759-0.095-0.284-0.189-0.474-0.852-0.19-0.189h-0.284l-0.379 0.379h-0.095l-0.379-0.379-0.474-0.095-0.19-0.095 0.095-0.757-0.284-0.284v-0.758l-0.379-0.284-0.379-0.568h-0.474l-0.569-0.284v-0.284l-0.664-0.189-0.379-0.189h-1.043l-0.284 0.473h-0.284v-0.663l0.095-0.663h-0.569l-0.284 0.284-0.095-0.473v-0.663l-0.379-0.379-0.474-0.284h-0.664l-0.569-0.473-0.19-0.473-0.284-0.189v-0.473l0.474-0.095 0.284-0.189 0.284-0.284-0.095-0.379h-0.948l-0.284-0.379h-0.284v-0.663l-0.19-0.284 0.474-0.095 0.379-0.568-0.095-0.473-0.474-0.379v-0.947l-0.284-1.041v-0.663l-0.759-1.515v-0.473l0.284-0.284 0.474-0.379v-0.284l0.569-0.189h0.948l0.19-0.473h0.379l0.284-0.284v-0.852l0.379-0.095 0.853-0.189h0.379l-0.095-1.231-0.095-0.284 0.474-0.568h1.707l0.569-0.379 0.664-0.189 0.379-0.663 0.19-0.473 0.19-0.757v-0.473l-0.19-0.663 0.284-0.284 0.379-0.473 0.095-0.473-0.379-0.189v-0.189l0.379-0.284 0.095-0.284 0.19 0.095 0.379 0.095 0.19 0.189h1.233l0.19-0.189h1.612l0.474-0.189v-0.473h0.569l0.19-0.284 0.474-0.189 0.19-0.189h1.138l0.19-0.189 0.474 0.379 0.379 0.189 0.284-0.189 0.379 0.095-0.19 0.568v0.852l0.19 0.189-0.095 0.473 0.284 0.095 0.379 0.473-0.759 0.189v0.379l0.19 0.568-0.19 0.284-0.19 0.663-0.474 0.379-0.19 1.42 0.284 0.189v1.041l0.569 0.757v0.568l-0.19 0.284-0.19 0.663 0.379 0.473-0.379 1.136-0.664 0.663-0.284 0.379 0.284 1.041 0.19 0.947 0.284 0.947 0.19 0.473v1.42l-0.19 0.284-0.474 0.379v0.947l0.19 0.284v0.852l-0.19 0.757-0.379 0.284 0.379 0.379v0.568l-0.284 0.189v1.515l0.284 0.284-0.284 0.189v0.663l0.474 0.568-0.19 0.284v0.947l-0.284 0.947 0.569 0.473 0.284 0.663 0.379 0.663 0.474 0.663z"></path>
</symbol>
<symbol id="Uzhhorod" viewBox="0 0 39 32">
<path fill="#9cb8fc" stroke="#7b9ae3" stroke-linejoin="round" stroke-linecap="butt" stroke-miterlimit="4" stroke-width="0.5203" d="M11.837 1.691l0.911 0.781 0.26 0.13v1.301l0.39 0.78 0.65 0.52 0.78 1.041 1.041 0.26h1.041l0.26 1.041v0.65l1.431 0.52h1.041l1.041 0.52 0.39 0.65h1.171l0.39 0.26h0.39l0.26 0.39 0.65 0.26 0.78 0.78 0.39 0.78h1.041l0.39 0.52v0.911l0.39 0.52 0.911 0.78v0.78l0.78 0.13 0.911 0.65 1.301-0.39v-0.39h1.171v0.781l-0.26 0.39-0.26 1.431 0.26 1.171 1.171 0.52 0.65-0.52h0.781l0.65 0.65 0.911 1.041 1.301 1.171v0.78l0.52 0.52v0.65l-0.65 0.78 0.65 1.171 1.041 0.78v0.911l-0.26 0.78-0.52 0.52v0.78l-0.26 0.39-2.341-0.26-1.821 0.65-0.52 0.65h-0.52l-0.78-0.65-0.911 0.26-0.65-0.78-0.911-1.041-0.65-0.26-1.171 0.78-0.65 0.39h-0.52l-0.65-0.911-1.171-0.52-1.821-0.52-1.041-0.78-0.65 0.52-1.041 0.26-1.301-1.171-2.602-2.472h-0.52l-1.561 1.821-0.39 1.041h-0.39l-0.52-0.78h-0.39l-0.52 0.39-0.39 0.39h-0.65l0.26-0.39-0.26-1.431-0.39-1.041-1.171-0.78h-1.431l-0.65-0.39-1.561-3.252h-1.951l-0.52-0.65-1.171-3.772h-0.78l-0.52-0.52-0.26-3.382 0.78-0.78 1.951-0.65 0.52-0.65 0.26-0.78 0.39-1.821 0.65-1.041v-1.431l0.911-0.52 0.26-0.78 2.211-1.821v-1.171l0.39-0.26 1.301 1.041 1.951 0.39z"></path>
</symbol>
<symbol id="Vinnytsia" viewBox="0 0 30 32">
<path fill="#9cb8fc" stroke="#7b9ae3" stroke-linejoin="round" stroke-linecap="butt" stroke-miterlimit="4" stroke-width="0.4885" d="M25.896 11.251l0.178 0.799-0.089 0.799-0.444 0.621-0.533 0.266-0.444 0.444 0.266 0.533 0.621 0.266v0.266l-0.533 0.444 0.266 0.266 0.355 0.178 0.444 0.266-0.089 1.154h0.266l0.355 0.355v1.065h0.355l0.621 0.178 0.266 0.355-0.621 0.444 0.621 0.178 0.089 0.444 0.533 0.266 0.621 0.799 0.177 1.154-0.355 0.444v0.533l0.976 0.177-0.178 0.355-0.533 0.621-0.71 0.355-0.355-0.533-0.266-0.178-0.444 0.266-0.799 0.799 0.621 0.71 0.888 0.355 0.799 0.71 0.355 0.621-0.533 0.178h-0.621v0.178l-0.533 0.266-0.621-0.444-0.621 0.178h-0.533l-0.444 0.266 0.355 0.71v0.533l-0.621 0.355h-1.331l-0.621-0.355-0.533-0.178-0.71 0.533-0.888-0.178h-0.799l-0.799-0.71-0.976-0.178v1.065l-0.888 0.799-0.799 0.71-0.888-2.219-1.953-0.621-1.243 0.266-0.178 0.533-0.621 0.533-0.266-0.355v-0.71h-0.799l-0.178-0.266 0.533-0.71-0.178-0.621h-0.71l-0.533 0.444h-0.355l-0.266-0.621-1.065-0.177-0.178-0.977-1.154-0.266-0.621-0.533-1.065-1.331-0.621-0.355h-1.154l-0.444-0.266h-1.243l-0.089-0.533v-0.621l0.089-0.444-0.799-1.065-0.444-0.177v-0.397l0.355-0.668 0.089-1.243 0.089-0.266 0.089-0.621-0.178-0.266 0.089-0.355 0.089-2.84 0.178-0.355 0.621-0.444 0.178-0.621 0.178-0.089h0.888l0.089-0.355 0.533-0.089h0.266l0.444 0.355 0.533 0.178 0.355-0.178 0.621-0.266 0.266-0.089 0.089-0.888-0.178-0.533v-0.621l0.178-0.089-0.178-0.355v-0.533l-0.355-0.355v-0.71l-0.355-0.621-0.355-0.533-0.178-0.533 0.355-0.266 0.355-0.089-0.089-0.888 0.178-0.533 0.178-0.355-0.266-0.533-0.178-0.621 0.178-0.178 0.533-0.178v-0.355l0.355-0.178 0.444-0.178 0.799 0.178h0.888l0.71-0.444 0.976 0.266 0.621-0.266 0.799 0.266 1.065-0.444h0.71l0.71 0.266 0.621-0.266 0.266 0.178 0.533 0.089 0.71-0.621 0.533-0.888h0.799l0.444 0.621v0.799l0.355 0.266 0.089 0.888-0.444 0.355-0.266 0.444 0.71 1.243 0.621 0.444h2.13l0.621-0.178 0.621-0.533 1.243-0.355 0.533 0.266-0.177 0.355-0.266 0.444 0.089 0.444 0.533 0.444 0.177 0.266-0.355 0.533 0.178 0.266 0.266 0.355-0.089 0.533-0.621 0.355-0.089 0.621 0.355 0.178 0.355 0.621 0.533 0.355 0.888 0.976z"></path>
</symbol>
<symbol id="Zaporizhzhia" viewBox="0 0 36 32">
<path fill="#9cb8fc" d="M3.132 11.744l-1.716 0.634v1.54l0.722 1.449h1.264v-0.272l0.271-0.362h0.542l0.813 0.815-0.451 0.996 0.271 1.177 0.813 0.996v1.268l0.271 0.634 0.993 0.181 0.542 0.453 0.993 0.815v0.634l-0.361 0.181-0.361 1.177-0.271 0.634h-0.542l0.181 0.725 0.993 0.181v0.634l-0.361 0.543 0.722 0.543 0.813 0.181 0.271 0.724 1.174 0.272 0.903 0.181v0.362l0.361 1.992 0.361 0.725 1.535-1.54-0.090-0.996-0.451-0.543v-0.362l0.451-0.091 0.722 1.087 0.181 1.087 0.361 0.362h0.451l0.632-1.087 1.084-0.906 1.445-0.905 0.903-1.449 1.264-0.996 1.535-0.725 1.264-0.272 1.445-0.181 0.632 0.725h0.361l0.452-1.087 1.174-0.906 1.445-0.453 0.722-0.362h0.722l0.993 0.634h0.542l0.452-0.543 0.090-0.724 1.716-1.449-0.542-0.724 0.181-0.543 0.361-0.272h0.542v-0.362l-0.271-0.091v-0.453l0.451-0.362-0.451-0.181h-0.632l-0.181-0.181-0.271-0.634-0.632-0.725-0.452-0.181-0.632-0.634 0.271-0.362 0.361-0.543 0.271-0.272-0.632-0.091v-0.362l0.361-0.453 0.632 0.362h0.542l0.361-0.543 0.181-0.996h0.903l0.181-0.634 0.361-0.543-0.361-0.453-1.083-0.091-1.084-0.815-0.361-0.453-0.632-0.362-0.632 0.543-0.361-0.362-0.813-0.453-0.722-0.362v-0.724l-0.542-0.272-0.361-1.087-1.083-0.362v-1.177l-0.451-0.272-0.181-0.362-0.181 0.815-0.542 0.453-0.451-0.181h-0.722l-0.271 0.362-0.632 0.091-0.542-0.272-0.181-0.543h-0.451l-0.181 0.362-0.271 0.453-0.813-0.272-0.181-0.543 0.722-0.272v-0.543l-0.722-0.362-0.451-0.724 0.271-0.543-0.271-0.272-0.181 0.272h-0.451l-0.181-1.177h-0.722l-0.722 0.543-0.993-0.543-1.083-0.091-0.722 0.272-0.993 0.362v-0.181l-0.722-0.091-0.722 0.272-0.542-0.543-0.993-0.091-0.361 0.362h-1.986v0.272l-0.813 0.362-0.722-0.091-0.361-0.453h-0.181v0.543l0.181 0.453v0.362h-0.451v0.362l0.632 0.362 0.722 0.724-0.181 0.453h-0.542l-0.632 0.362 0.271 0.634 0.903 0.543 0.361 0.543-0.361 0.543 0.632 0.453v1.54l-0.271 0.634 0.451 1.177-1.354 0.543h-3.16l-1.716 0.815z"></path>
<path fill="none" stroke="#7b9ae3" style="stroke: var(--color2, #7b9ae3)" stroke-linejoin="round" stroke-linecap="butt" stroke-miterlimit="4" stroke-width="0.4848" d="M0.242 11.744l1.174 0.634M1.416 12.378l1.716-0.634 1.716-0.815h3.16l1.354-0.543-0.451-1.177 0.271-0.634v-1.54l-0.632-0.453 0.361-0.543-0.361-0.543-0.903-0.543-0.271-0.634 0.632-0.362h0.542l0.181-0.453-0.722-0.724-0.632-0.362v-0.362h0.451v-0.362l-0.181-0.453v-0.543h0.181l0.361 0.453 0.722 0.091 0.813-0.362v-0.272h1.986l0.361-0.362 0.993 0.091 0.542 0.543 0.722-0.272 0.722 0.091v0.181l0.993-0.362 0.722-0.272 1.084 0.091 0.993 0.543 0.722-0.543h0.722l0.181 1.177h0.451l0.181-0.272 0.271 0.272-0.271 0.543 0.451 0.724 0.722 0.362v0.543l-0.722 0.272 0.181 0.543 0.813 0.272 0.271-0.453 0.181-0.362h0.451l0.181 0.543 0.542 0.272 0.632-0.091 0.271-0.362h0.722l0.451 0.181 0.542-0.453 0.181-0.815 0.181 0.362 0.451 0.272v1.177l1.083 0.362 0.361 1.087 0.542 0.272v0.724l0.722 0.362 0.813 0.453 0.361 0.362 0.632-0.543 0.632 0.362 0.361 0.453 1.084 0.815 1.083 0.091 0.361 0.453-0.361 0.543-0.181 0.634h-0.903l-0.181 0.996-0.361 0.543h-0.542l-0.632-0.362-0.361 0.453v0.362l0.632 0.091-0.271 0.272-0.361 0.543-0.271 0.362 0.632 0.634 0.452 0.181 0.632 0.724 0.271 0.634 0.181 0.181h0.632l0.451 0.181-0.451 0.362v0.453l0.271 0.091v0.362h-0.542l-0.361 0.272-0.181 0.543 0.542 0.724-1.716 1.449-0.090 0.724-0.452 0.543h-0.542l-0.993-0.634h-0.722l-0.722 0.362-1.445 0.453-1.174 0.906-0.452 1.087h-0.361l-0.632-0.725-1.445 0.181-1.264 0.272-1.535 0.725-1.264 0.996-0.903 1.449-1.445 0.905-1.084 0.906-0.632 1.087h-0.451l-0.361-0.362-0.181-1.087-0.722-1.087-0.451 0.091v0.362l0.451 0.543 0.090 0.996-1.535 1.54-0.361-0.725-0.361-1.992v-0.362l-0.903-0.181-1.174-0.272-0.271-0.724-0.813-0.181-0.722-0.543 0.361-0.543v-0.634l-0.993-0.181-0.181-0.725h0.542l0.271-0.634 0.361-1.177 0.361-0.181v-0.634l-0.993-0.815-0.542-0.453-0.993-0.181-0.271-0.634v-1.268l-0.813-0.996-0.271-1.177 0.451-0.996-0.813-0.815h-0.542l-0.271 0.362v0.272h-1.264l-0.722-1.449v-1.54z"></path>
</symbol>
<symbol id="Zhytomyr" viewBox="0 0 25 32">
<path fill="#9cb8fc" stroke="#7b9ae3" stroke-linejoin="round" stroke-linecap="butt" stroke-miterlimit="4" stroke-width="0.4848" d="M6.587 2.534l-0.569-0.327-0.081-0.082-0.569 0.327-0.163 0.491v0.573h-0.244l-0.488-0.573-0.325 0.246 0.163 0.409v0.655l-0.651 0.819v0.327l0.244 0.327v0.327l-0.569 0.409v0.327l-0.407 0.327-0.163 0.573v0.327l-0.325 0.246-0.163 0.409-0.407 0.164-0.244 0.164h-0.325l0.081 0.409 0.163 0.164v1.064l0.163 0.082v0.491l-0.163 0.409v1.064l0.081 0.164 0.081 0.246 0.163 0.164v0.573l-0.325 0.164-0.081 0.409-0.163 0.491-0.163 0.246-0.244 0.573h-0.651l0.325 0.491 0.244 0.491 0.488 0.246 0.244 0.327 0.081 0.409-0.163 0.327-0.325 0.246 0.163 0.491 0.325 0.327 0.325 0.655 0.651 0.327 0.163 0.409 0.976 0.9 0.325-0.164 0.081-0.164h0.325l0.244 0.246v0.409l0.163 0.246v0.737l0.163 0.246v1.555l-0.407 0.082-0.569 0.246v0.246l0.244 0.327-0.244 0.573-0.325 0.246 0.325 0.409 0.407 0.573 0.244 0.573 0.407 0.164 0.651 0.328 0.325 0.246 0.407 0.491 0.325-0.164 0.407-0.164 0.732 0.164h0.813l0.651-0.409 0.895 0.246 0.569-0.246 0.732 0.246 0.976-0.409h0.651l0.651 0.246 0.569-0.246 0.244 0.164 0.488 0.082 0.651-0.573 0.488-0.819h0.732l0.407 0.573v0.737l0.325 0.246 0.081 0.818-0.407 0.328-0.244 0.409 0.651 1.146 0.569 0.409h1.952l0.569-0.164 0.569-0.491 1.139-0.328v-0.655l-0.488-0.082 0.081-0.409 0.081-0.491-0.163-0.246v-0.409h0.488l0.325-0.409 0.651-0.164 0.081-0.328 0.569-0.164 0.569-0.573 0.325-0.409v-0.573l-0.325-0.164-0.244-0.409-0.081-1.228h0.407l0.244-0.246v-0.737l-0.244-0.246v-1.473l-0.163-0.082-0.244-0.409-0.488-0.164v-0.327l-0.163-1.064h-0.813l-0.651-0.246v-0.246l0.325-0.327 0.325-0.164-0.081-0.491h-0.325v-0.246l0.569-0.409v-0.327l-0.325-0.409v-0.491l0.488-0.409 0.244-0.409 0.244-0.327-0.081-1.064-0.732-0.082-0.081-0.409 0.081-0.655v-0.573l-0.569-0.9-0.569-0.246v-0.164l0.488-0.246 0.569-0.327v-0.9l-0.569-0.9-1.139-0.327-0.081-0.491v-0.982l0.732-0.737 0.163-0.737-0.569-0.819-0.244-0.737-0.407-0.573v-0.982l-0.813-1.31h-0.976l-0.651 0.819-1.22 0.082-0.895 1.064-0.081 0.819h-0.895l-0.244-1.146-0.081-0.819-1.545-0.164-0.732 0.491-0.407-0.082-0.976-1.473h-0.244l-0.813 0.982h-1.545l-0.813-0.819-0.651 0.655 0.081 0.737-0.813 0.737z"></path>
</symbol>
</defs>
</svg>
