<svg xmlns="http://www.w3.org/2000/svg" aria-hidden="true" style="position:absolute;width:0;height:0;overflow:hidden">
  <defs>
    <symbol id="Kharkiv" viewBox="0 0 36 32">
      <path fill="#748E9A" stroke="#455A64" stroke-linejoin="round" stroke-width=".485" d="m7.615 3.473.79-.437.527.087 1.229-1.484.527-.262h2.633l.527.262.966 1.659.966.087.527-.262.263-.349 1.229.698.527.873.878-.175.439-.873 2.282-1.484h1.756l1.053-.698.702-.873h1.755l.527 1.222.351.175h.878v1.833l1.755 1.921 1.58.436 1.756 1.746.351.873-.615.698.351.437-.615 1.222.263.175.351.175v.786l-.439 1.135.351 1.048-.264.611-.439.698-.175.873.175.96.439.349.264.349-.088.262v.436l1.405 1.309.527.786-.263.436v.524l.263.349-.175.349-.351.611.351.436v.349l-.527.349-.878.262h-1.404l-.439-.611-.965-.087-.351-.524v-.436l.263-.087-.263-.611-.263.175-.175.436h-.615l-.614-.262-.263-.524-.702.175-.175.611v.524h-.702v.524l.263.262v.175l-1.229 1.048-.175.698-.439.436-.965.349v.611h-.351l-.614-.349h-.966l-.176.611h-.614l-.527-.437-.263.175v.611l.527.611v1.484h-.878v.611h-.966l-.439-.611-.439-.437-.527.524v.96h-.439l-.088.437-.79.262-.176-1.31-.351-.349v-.087l-.878-.698-.527-.175.176-1.048-1.404-1.135h-.527l.088-.873-.088-.786-.702-.349-.702.175-.702.786-1.755-.611-1.053-.349-1.141.349-1.317-1.222-1.317-.96-.79-.611H2.879v-.611l-.527-.524.527-.349-.263-.262v-.349l.439-.524.702.436 1.317-.087.351-.349.878-.786v-1.309l-.176-.262v-.524H7.18l.351-.436-.702-.524-.088-.175h.79l.088-.262-.439-.349-.351-.437-.088-.349.263-.262-.088-.262-.176-.262-.614.262-.702.087-.702-.786-.439-.524v-1.135l-.263-.262-.527-.087-.176.175-.439-.175-.351-.524-1.053-.175-.79-.262v-.698l-.263-.349-.176-.262.614-.873.351-.087v-.349h-.176V6.526l.439-.262L2 5.915l.614-.436.351-.524h.439l.527.262.439-.524.088-.436h.439l.263-.524.351.087.176-.087v-.349l.263-.349.79.698.878-.262z"/>
    </symbol>
    <symbol id="Cherkasy" viewBox="0 0 42 32">
      <path fill="#748E9A" stroke="#455A64" stroke-linejoin="round" stroke-width=".5" d="m5.76 31.75-1.027-.189v-.566l.374-.471-.187-1.226-.654-.849-.56-.283-.093-.472-.654-.189.654-.471-.28-.377-.654-.189h-.374v-1.132l-.374-.377h-.28l.093-1.226-.467-.283-.374-.189-.28-.283.56-.472v-.283l-.654-.283-.28-.566.467-.472.56-.283.467-.66.093-.849.747.283h.56l.467-.283.56-.66v-.566h.934l.747-.377 1.027-.849.093.566.374.283 1.027-.094.56.472.467.283.28-.943.374-.755h1.868l.467-.472.841.66h.467l.374-.377 1.401.094.187-.377v-.566l.56-.849.841-.754.374-.377.56-.849.28-.472-.747-.472.467-.377.467-.283-.187-1.226.187-.66v-.472l.093-.283.093-1.037 1.401-.849.841-.094.654.377 1.774.472h.56l.374-.377.374-.66.56-.472.467-.66v-.566l.56-.283v-.283l-.373-.472v-.566l.56-.66.654-.283.28-.283v-.377l-.187-.283V.53l.28-.283h.747l.467.472.28.472 1.027.472.28.66v1.132l.934.472 1.214 1.226v.566l-.28.66-.374.472.467.66.747.754 1.027.189.187 1.32.654.283L35.83 11l.467 1.037-.467 1.226.467.943 1.868.849.654 1.132 1.588 2.169.84 1.132-.28.377-2.242-.377-1.775 1.132.654 1.037-.28.377-2.522 1.132h-.84l-1.214-2.075h-1.774l-1.494 1.698v.849l-.187.283-1.214-.472-1.027 1.132h-.56l-.747-1.415h-1.214l-.28.472H22.57v1.32l-1.401 1.886h-.467l-.841-.189h-1.027l-1.027.566-.841-.377-2.615-.189-.841-.095-1.027.849-1.027 1.226v1.603h-.654l-.467-.377h-.56l-.467.849h-.467l-1.027.849-.654-.377-1.401.566z"/>
    </symbol>
    <symbol id="Chernihiv" viewBox="0 0 28 32">
      <path fill="#748E9A" stroke="#455A64" stroke-linejoin="round" stroke-width=".474" d="m.811 16.913-.164.664-.246.913.246.249.41.664v2.157l.492.498v1.079l1.067.83.082.332-.328.498.164.913h.903l.246.249.903-.083.656-.498h.656l.164.498.492.415.492.83v.415H6.8v.415l.821.83v.498l.41.332.246-.332h.492l.492.332.492-.332h1.559l.246-.498.328-.249.656-.166.328-.581.41-.249.492.415v.415l.656.415h.656v.498h-.328l-.328.332.164.498.903.581v.332l.492.581.903.166.492-.332.492-.415.328-.332.328.332h.328l.328-.332.492.581h.492l.41.166.164-.166h.492l.492.166.41-.415.82-.332.738-.415.164-.332.328-.166.656-.747.164-.379v-.285l.246-.415.082-.913-.164-.166-.328-.249v-.415l.164-.332.575-.083.246-.332.082-.249-.246-.458-.41-.04-.082-.415.246-.083.164-.581.082-.415.41-.332v-.913l-.164-.249v-.996l-.82.083-.246-.249-.164-.332-.492-.083-.164-.249-.328-.166v-1.079l.246-.083.246-.498.492-.83v-.581l-.164-.332-.328-.332.164-.664.328-.332.41-.249.082-.249.082-.498.164-.332-.082-1.161.164-.415v-.249l-.246-.166-.246-.332.328-.166-.164-.498-.246-.332-.492-.249V8.614l.164-.332.328-.249.082-.415.328-.332h.328l.41-.332.657-.332.328-.249V5.294h.246l.328-.332.328-.166v-.332l-.574-.415-.328-.415-.574-.415-.164-.332.164-.332.328-.332V1.31l.328-.083v-.83h-1.231l-.164-.166h-.328l-1.887 1.327-.574.747h-.246l-.656-.498-1.067.249-1.477-.83h-1.969l-.492 2.987-1.477 1.41-1.067-.249-.985.083-.492-.747H8.025l-.985.83-.821-.664-1.805.415-.164.913-1.395 1.161-.164.581L1.46 9.522l-.164.913-.738.83.164.83-.492.332.082.913.574.664-.082 1.161.492.581v.913l-.492.249z"/>
    </symbol>
    <symbol id="Chernivtsi" viewBox="0 0 62 32">
      <path fill="#748E9A" stroke="#455A64" stroke-linejoin="round" stroke-width=".736" d="m1.103 30.345-.736.184.552.92 3.862-.184 4.782-5.333 11.77-.368 2.943-1.287 5.701-.184 2.943-3.862.368-2.207 1.103-.552 2.023-.184.736-.552h.92l.552.552 1.103-.184 1.103-1.103 3.31-.184 1.103-1.655v-2.023l.736-.736 1.287-.184 1.471 1.655 1.287.184.736-1.287.552-.184 2.023.92 1.103.552 1.287-1.103 1.839-1.471 1.839.184 1.839-.92-.184-.736V7.542l.184-.92-1.655-2.207-.92-.368h-1.103l-1.287.736-.368 1.287-1.103-.736h-1.471l-.92.92-.552-.368-1.287-.184V5.15l-1.287-.184-.736.552-.92.736-.552-.552-.368-.552-.368-1.103-2.207.552.368.92-.736.92-.552.368v-.92l-.92-.184-.736-.368-.184 2.391-.368 1.471h-.552l-.736-.368-.184-.92-.736-1.655-2.023-.184-.552.736h-1.103l-.92-.552-1.287-.552h-1.471l-.736-.552-.736-.92v-.92l-.92-.92h-1.103l-.736.552-.736.368-1.471-.184-.552-.368-.92-1.655-.368-.368h-.552l-.736.736h-.184l-.736-.736-.92-.184-.368-.184-.736.184-1.471.736v.552l.552 1.839v.736l.552.736v1.471l-.552.184v1.287l-.552.92h-1.287l-.368-.368h-1.287l-.92.368-1.287.368-1.103.92-.92 1.471h-.92l-.552 1.287-.736.552H6.796l-.184 1.839h-.184l-.736 1.103-1.103 1.103h-.92l-.552.552-.368 1.287-.552.368-.184 1.287-.552.184v2.023l.368.736v1.103l.736.552v2.207l-.368.184-1.103 2.207z"/>
    </symbol>
    <symbol id="Crimea" viewBox="0 0 52 32">
      <path fill="#748E9A" stroke="#455A64" stroke-linejoin="round" stroke-width=".593" d="M13.083 2.166V1.044l.927-.748h.556l2.316 2.337.741-.093.834-.561.649.28.093.841.556.935.463-.187.278-.654 2.039-.187.463.467-.185.748.185.654.741-.187h.741v.467l-.556.561.185.841 1.297-.748 1.019.187 1.39-.28-.927 1.122.185.748 1.205-.093.556.935 1.297.187 1.019 1.309.556.935-.834 1.683 1.483 1.496.741-.187 2.873 1.215 1.668-.748 1.575-.467 1.205-1.589-.278-.935.741-.28.185.654.649.654.834.374.649-.093.463-1.122 1.39-.561 2.502.187 2.131.093 1.297.187.278.841-.278.561-1.205-.467-.649.28-.092.841-.556.374-.278 1.589.093 1.028.556.374.093.654-1.575.561-.649.654h-.741l-.649-.374-.927-.187-.927.935-1.668.467-.463-.467-.649-.748-1.483-1.028-1.575-.093-1.483 1.122-.37.654-.278 1.589h-1.019l-.278.654-.927.28-.649.841v1.122l-.463.093-.834-.561-.741-.093-.649.467-1.853-.093-.556.561-2.687 1.215-.556 1.309-.556 1.963h-.834l-1.297 1.122-.649 1.122-1.297.468-.556.654h-.741l-.371-.748h-.371l-.741.655h-1.019l-.927-.561-.741-.935h-.371l-1.39-.527-.649-.688-.185-.467.834-.28.649-.561.371-.935-.185-1.309.093-1.028.834-1.028.093-1.122-.556-2.43-1.853-1.776-1.112-.467-.927.467-1.019-.093-2.409-2.15-1.205-.654-1.761-.28-.834.748-1.205.374-.463-.187-.649-.654.093-1.402 2.131-1.776 1.205-.561 1.112-1.496 2.039-.748.741-.654.463-.654.741.28 1.019-.374 1.946-1.589h.927l.371-.374h1.112l.556-.935.093-.561-.278-.187-.463.28-.556-.187-.463-.841V2.168z"/>
    </symbol>
    <symbol id="Dnipro" viewBox="0 0 47 32">
      <path fill="#748E9A" d="m44.38 9.537-.289-.868h-.963v.675h-1.059l-.481-.675-.482-.482-.578.579v1.061h-.482l-.096.482-.866.289-.193-1.447-.385-.386v-.096l-.963-.772-.578-.193.193-1.158-1.541-1.254h-.578l.097-.965-.097-.868-.77-.386-.77.193-.77.868-1.926-.675-1.156-.386-1.252.386-1.444-1.351-1.444-1.061-.867-.675h-2.793L20.403.276l-.867.772-1.156.675-1.156.289-.674.386-.674 1.158-.77 1.351-.482.579v.386l.482.386v1.061l-.193.965-.963-.579-1.156-.675-1.156-.193-.963.193-.482.579-1.059.482-1.252-.289-1.348.289.481.868 1.252.579 1.156.482-.289.675-1.252.772-1.348.868-.963.386v.965l.385 1.447v.965l.578.868-.193.772-.77.675-1.059.675-.867.482-1.156 1.64-.963.482-.578.386-.289.772v.868l.674.675-.193.579v1.736l.385.772H.658l-.385.482.385 1.061.289.579.867.579h.674l.385.482h1.348l.578 1.061.578-.482.867-.193.578-.868h.481l.578.675.963.579h1.252l1.444-.386h2.889l1.252.675 1.83-.675 1.83-.868h3.37l1.444-.579-.481-1.254.289-.675v-1.64l-.674-.482.385-.579-.385-.579-.963-.579-.289-.675.674-.386h.578l.193-.482-.77-.772-.674-.386v-.386h.482v-.386l-.193-.482v-.579h.193l.385.482.77.096.867-.386v-.289h2.119l.385-.386 1.059.096.578.579.77-.289.77.096v.193l1.059-.386.77-.289 1.156.096 1.059.579.77-.579h.77L36 20.147h.482l.193-.289.289.289-.289.579.481.772.77.386v.579l-.77.289.193.579.867.289.289-.482.193-.386h.482l.193.579.578.289.674-.096.289-.386h.77l.481.193.578-.482.193-.868 1.156-.579-.289-.193v-.579l-.674-.579V18.7l.481-.386h1.444l.674.772h1.059l.096-.772v-.868l-.289-.772.289-.096.289-.675v-.772l-.481-.868-1.059-.386.096-2.219V10.5l.674-.579-.289-.386-.77-.096-.482.482-.481-.386z"/>
      <path fill="#748E9A" stroke="#455A64" stroke-linejoin="round" stroke-width=".552" d="m.95 22.077-.674-.386m.674.386.578-.386.963-.482 1.156-1.64.867-.482 1.059-.675.77-.675.193-.772-.578-.868v-.965l-.385-1.447v-.965l.963-.386 1.348-.868 1.252-.772.289-.675-1.156-.482-1.252-.579-.481-.868 1.348-.289 1.252.289 1.059-.482.482-.579.963-.193 1.156.193 1.156.675.963.579.193-.965V6.257l-.482-.386v-.386l.482-.579.77-1.351.674-1.158.674-.386 1.156-.289 1.156-.675.867-.772 1.444.096h2.793l.867.675 1.444 1.061 1.444 1.351 1.252-.386 1.156.386 1.926.675.77-.868.77-.193.77.386.097.868-.097.965h.578l1.541 1.254-.193 1.158.578.193.963.772v.096l.385.386.193 1.447.866-.289.096-.482h.482V8.765l.578-.579.482.482.481.675h1.059v-.675h.963l.289.868.481.386.482-.482.77.096.289.386-.674.579v1.158l-.096 2.219 1.059.386.481.868v.772l-.289.675-.289.096.289.772v.868l-.096.772H45.73l-.674-.772h-1.444l-.481.386v1.351l.674.579v.579l.289.193-1.156.579-.193.868-.578.482-.481-.193h-.77l-.289.386-.674.096-.578-.289-.193-.579H38.7l-.193.386-.289.482-.867-.289-.193-.579.77-.289v-.579l-.77-.386-.481-.772.289-.579-.289-.289-.193.289h-.482l-.193-1.254h-.77l-.77.579-1.059-.579-1.156-.096-.77.289-1.059.386v-.193l-.77-.096-.77.289-.578-.579-1.059-.096-.385.386h-2.119v.289l-.867.386-.77-.096-.385-.482h-.193v.579l.193.482v.386h-.481v.386l.674.386.77.772-.193.482h-.578l-.674.386.289.675.963.579.385.579-.385.579.674.482v1.64l-.289.675.481 1.254-1.444.579h-3.37l-1.83.868-1.83.675-1.252-.675h-2.889l-1.444.386H8.847l-.963-.579-.578-.675h-.481l-.578.868-.867.193-.578.482-.578-1.061H2.876l-.385-.482h-.674l-.867-.579-.289-.579-.385-1.061.385-.482h.867l-.385-.772v-1.736l.193-.579-.674-.675v-.868l.289-.772z"/>
    </symbol>
    <symbol id="Donetsk" viewBox="0 0 24 32">
      <path fill="#748E9A" stroke="#455A64" stroke-linejoin="round" stroke-width=".481" d="m23.594 14.299.226 1.058-.226.227-.452.302h-.753l-.377.227-.377.529v1.209l-.151.605-.904.378-.603.605-.904.076-1.13.378-.452.378-.226.756.151 1.361-.151.831-.527.68.226.605.829-.076v.605l-.678.529-.226.605.527.68-.226.68-.301.605-.452-.605h-2.561l-.452.605-.527.227-1.13.151-.151-.378-.377-.151-.377.151-1.055 2.041-.678.832-.452-.302h-.603l-1.657 1.058-.452-.605.151-.454.301-.227h.452v-.302l-.226-.076v-.378l.377-.302-.377-.151h-.527l-.151-.151-.226-.529-.527-.605-.377-.151-.527-.529.226-.302.301-.454.226-.227-.527-.076v-.302l.301-.378.527.302h.452l.301-.453.151-.832h.753l.151-.529.301-.454-.301-.378-.904-.076-.904-.68-.301-.378-.527-.302-.527.454-.301-.302-.678-.378-.603-.302v-.605l-.452-.227-.301-.907-.904-.302v-.983l-.377-.227-.151-.302.904-.453-.226-.151v-.453l-.527-.453v-1.058l.377-.302h1.13l.527.605h.829l.075-.605v-.68l-.226-.605.226-.076.226-.529v-.605l-.377-.68-.829-.302.075-1.738v-.907l.527-.454-.226-.302-.603-.076-.377.378-.377-.302-.226-.68V5.988L.69 5.459V4.93l.226-.151.452.378h.527l.151-.529h.829l.527.302h.301v-.529l.829-.302.377-.378.151-.605 1.055-.907v-.151l-.226-.227v-.454h.603V.923l.151-.529.603-.151.226.454.527.227h.527l.151-.378.226-.151.226.529L8.903 1v.378l.301.454.829.076.377.529h1.205l.753-.227.452-.302v-.302h1.13l.753.302v.529l.527.605v.907l.377.529-.527.529v.454l.377.529.151 1.209.377.151.151.756h.603l.452.454.452.68v.227l-.452.302v.605l1.055.151.603-.151.377.605v.529l.753.605.904-.076.452.454-.075.605.301.454h1.883l.151.756z"/>
    </symbol>
    <symbol id="Kherson" viewBox="0 0 49 32">
      <path fill="#748E9A" d="m35.909 2.028-1.407-.761h-3.248l-1.624.435h-1.408l-1.083-.652-.65-.761h-.541l-.65.979-.974.217-.65.544-.65-1.196h-1.516l-.433-.544h-.758v1.087l.325.979-.325.652-.758-.435.433 1.305.65.761v1.74l.217.87-.541.761-.758.652-.974.217-.65 1.196 1.083.435 1.299 1.087-.541.979h-.758l.325.761-.758.87H17.07l.866.979-.866.761-1.732-.326-.325-.761h-1.408l-1.191.761h-1.299l-.758.761H9.274l-1.299 1.305H6.568l-1.299.326.433 1.631.866.652.758.218.65.761 1.299-.326 1.083.87 1.299-.217 1.191-1.305.325.652-1.516 1.522-.541.87-.325.153-2.057-.479-1.624-.544H4.728l-1.516-.326-1.299-.326-1.624.652.866 1.305.974-.621 1.083.186 1.516.87 1.299-.326.433.435-.325 1.087-1.407.87-1.191-.218-.866.218v.761l.974.326 1.299-.326 1.083.761h.758l1.083 1.305 1.407.326.866 1.087 1.299.652h1.732l1.407-.544h1.841l.758-.761h1.191l1.732.218.541-.652h.541l.758.435.974-1.087h.541v.652l.974.217.433.652h.541l.325.544 1.083.484.974-.702v-.978h.758l1.083-.87-.217-.652 1.624-.87.758.435 1.083-.435.541.435v.761l.866.652.866-.217.325-1.196.974-1.196.866.217.974 2.066h.433l.541-1.087.758.217.433.87h.65l.433.435-1.083.435v.978l.866 1.087.866-.217.866-1.631h.866l.866 1.196 1.516.435v-1.087l-.758-.761v-.544h-.433l1.299-2.936.866-.217.65.544.65-.326.433-.87-.433-.87-.433-2.392V21.6l-1.083-.218-1.407-.326-.325-.87-.974-.218-.866-.652.433-.652v-.761l-1.191-.217-.217-.87h.65l.325-.761.433-1.413.433-.217v-.761l-1.191-.979-.65-.544-1.191-.217-.325-.761V9.641l-.974-1.196-.325-1.413.541-1.196-.974-.979h-.65l-.325.435v.326H36.77l-.866-1.74V2.03z"/>
      <path fill="#748E9A" stroke="#455A64" stroke-linejoin="round" stroke-width=".577" d="M4.944 16.924v.761l.325.326m0 .001 1.299-.326h1.407l1.299-1.305h1.083l.758-.761h1.299l1.191-.761h1.408l.325.761 1.732.326.866-.761-.866-.979h1.516l.758-.87-.325-.761h.758l.541-.979-1.299-1.087-1.083-.435.65-1.196.974-.217.758-.652.541-.761-.217-.87v-1.74l-.65-.761-.433-1.305.758.435.325-.652-.325-.979V.289h.758l.433.544h1.516l.65 1.196.65-.544.974-.217.65-.979h.541l.65.761 1.083.652h1.408l1.624-.435h3.248l1.407.761v1.848l.866 1.74h1.516V5.29l.325-.435h.65l.974.979-.541 1.196.325 1.413.974 1.196v1.522l.325.761 1.191.217.65.544 1.191.979v.761l-.433.217-.433 1.413-.325.761h-.65l.217.87 1.191.217v.761l-.433.652.866.652.974.218.325.87 1.407.326 1.083.217v.435l.433 2.392.433.87-.433.87-.65.326-.65-.544-.866.217-1.299 2.936h.433v.544l.758.761v1.087l-1.516-.435-.866-1.196h-.866l-.866 1.631-.866.217-.866-1.087v-.978l1.083-.435-.433-.435h-.65l-.433-.87-.758-.217-.541 1.087h-.433l-.974-2.066-.866-.217-.974 1.196-.325 1.196-.866.217-.866-.652v-.761l-.541-.435-1.083.435-.758-.435-1.624.87.217.652-1.083.87h-.758v.978l-.974.702-1.083-.484-.325-.544h-.541l-.433-.652-.974-.217v-.652h-.541l-.974 1.087-.758-.435h-.541l-.541.652-1.732-.218h-1.191l-.758.761h-1.841l-1.407.544h-1.732l-1.299-.652-.866-1.087-1.407-.326-1.083-1.305h-.758l-1.083-.761-1.299.326-.974-.326v-.761l.866-.218 1.191.218 1.407-.87.325-1.087-.433-.435-1.299.326-1.516-.87-1.083-.186-.974.621-.866-1.305 1.624-.652 1.299.326 1.516.326h2.382l1.624.544 2.057.479.325-.153.541-.87 1.516-1.522-.325-.652-1.191 1.305-1.299.217-1.083-.87-1.299.326-.65-.761-.758-.218-.866-.652-.433-1.631z"/>
    </symbol>
    <symbol id="Khmelnytskyi" viewBox="0 0 17 32">
      <path fill="#748E9A" stroke="#455A64" stroke-linejoin="round" stroke-width=".474" d="M11.378 29.184v.355h-.474l-.553.318-.158.556-.474-.318h-.632l-.395.397-.237-.159-.553-.079v-.238l-.553-.079-.316.238-.395.318-.237-.238-.158-.238-.158-.476-.948.238.158.397-.316.397-.237.159v-.397l-.395-.079-.316-.159-.079 1.032-.158.635h-.237l-.316-.159-.079-.397-.316-.715-.869-.079-.237-.318-.395-.556-.316-.556-.237-.556-.474-.397.237-.794v-.794l.158-.238-.395-.476v-.556l.237-.159-.237-.238v-1.271l.237-.159v-.476l-.316-.318.316-.238.158-.635v-.715l-.158-.238v-.794l.395-.318.158-.238v-1.191l-.158-.397-.237-.794-.158-.794-.237-.873.237-.318.553-.556.316-.953-.316-.397.158-.556.158-.238v-.476l-.474-.635v-.873l-.237-.159.158-1.191.395-.318.158-.556.158-.238-.158-.476v-.318l.632-.159-.316-.397-.237-.079.079-.397h.158l.474-.079.316-.238.237-.318.474-.556h1.106v-.238l.237-.159.237-.318v-.238h.395l.316-.397v-.397l.632-.318.237-.318v-.318l.316-.079h.395l.079-.476v-.238h.316l.474-.159v-.159l.316-.079.316.159h.395l.237-.159.158-.238h.395l.237-.238.316-.238.316.476.237.476.474.238.237.318.079.397-.158.318-.316.238.158.476.316.318.316.635.632.318.158.397.948.874.316-.159.079-.159h.316l.237.238v.397l.158.238v.715l.158.238v1.509l-.395.079-.553.238v.238l.237.318-.237.556-.316.238.316.397.395.556.237.556.395.159.632.318.316.238.395.476v.318l-.474.159-.158.159.158.556.237.476-.158.318-.158.476.079.794-.316.079-.316.238.158.476.316.476.316.556v.635l.316.318v.476l.158.318-.158.079v.556l.158.476-.079.794-.237.079-.553.238-.316.159-.474-.159-.395-.318h-.237l-.474.079-.079.318h-.79l-.158.079-.158.556-.553.397-.158.318-.079 2.541-.079.318.158.238-.079.556-.079.238-.079 1.112-.316.598z"/>
    </symbol>
    <symbol id="Ivano-Frankivsk" viewBox="0 0 25 32">
      <path fill="#748E9A" stroke="#455A64" stroke-linejoin="round" stroke-width=".485" d="m11.449 28.485-.56-.748v-.748l.374-.374.187-.561v-.655l-.747-.561-.467-.842.467-.561v-.468l-.374-.374v-.561l-.934-.842-.654-.748-.467-.468h-.56l-.467.374-.84-.374-.187-.842.187-1.029.187-.281v-.561h-.84v.281l-.934.281-.654-.468-.56-.094V16.7l-.654-.561-.28-.374v-.655l-.28-.374h-.747l-.28-.561-.56-.561-.467-.187-.093-.187v-.935l.374-.374v-.655l-.28-.374v-.655l.28-.281v-.374l.28-.374.093-.655.374-.187.374-.281h.467l.093-.748.28-.468.28-.281h.56l.28.281h1.494l.374-.374.28.187.374.187.467-.374h.467l1.214.187.374-.093.187-.094h.56l.28-.187h1.214l.187-.655-.187-.374-.56-.094-.28-.655.28-.655.28-.281.187-.561v-.561l-.187-.281.28-.374.187-.187.28-.374-.28-.468.187-.374.187-.187 1.214.094.56.093.093.281h.467l.56.374h.28l.747 1.496v.655l.28 1.029v.935l.467.374.093.468-.374.561-.467.093.187.281v.655h.28l.28.374h.934l.093.374-.28.281-.28.187-.467.094v.468l.28.187.187.468.56.468h.654l.467.281.374.374v.655l.093.468.28-.281h.56l-.093.655v.655h.28l.28-.468h1.027l.374.187.654.187v.281l.56.281h.467l.374.561.374.281v.748l.28.281-.093.748-.374.094-.747.374v.281l.28.935v.374l.28.374v.748l-.28.094v.655l-.28.468h-.654l-.187-.187h-.654l-.467.187-.654.187-.56.468-.467.748h-.467l-.28.655-.374.281h-.654l-.093.935h-.093l-.374.561-.56.561h-.467l-.28.28-.187.655-.28.187-.093.655-.28.094v1.029l.187.374v.561l.374.28v1.122l-.187.094-.56 1.122-.374.094-.747-1.029-.934-.187-.747-.842v-.655l-.467-.561z" />
    </symbol>
    <symbol id="Kropyvnytskyi" viewBox="0 0 61 32">
      <path fill="#748E9A" stroke="#455A64" stroke-linejoin="round" stroke-width=".696" d="m48.078 24.538.829.474.711-.474 1.184-.593 1.421-2.016 1.066-.593 1.303-.83.947-.83.237-.949-.711-1.067v-1.186l-.474-1.779v-1.186l1.184-.474 1.658-1.067 1.54-.949.355-.83-1.421-.593-1.539-.711-.592-1.067 1.658-.356 1.54.356 1.303-.593.592-.711v-.949l-1.066-.949-1.539.356-1.066.593-.829-.474h-1.54l-.237-.474-1.895-.119-.711-1.186.237-.237v-.83l-.592-.474-2.25-.949-2.843-.474-2.25 1.423.829 1.304-.355.474-3.198 1.423h-1.066l-1.539-2.609h-2.25l-1.895 2.134v1.067l-.237.356-1.54-.593-1.303 1.423h-.711l-.948-1.779h-1.54l-.355.593h-2.132v1.66l-1.777 2.372h-.592l-1.066-.237H21.31l-1.303.711-1.066-.474-3.316-.237-1.066-.119-1.303 1.067-1.303 1.541v2.016h-.829l-.592-.474h-.711l-.592 1.067h-.592l-1.303 1.067-.829-.474-1.777.711-.237.474-.711.83-.948.474-.474-.711-.355-.237-.592.356-1.066 1.067.829.949 1.184.474 1.066.949.474.83v.83l.237.593.829.356h2.961l.947-.711.355.356h3.316l.947-.593h1.303l.711.593.355-.356 1.066.356.829-.356.592-.949h2.606l.592.949.592 1.186h1.777l.711.237.711-.593.711.593-.237.474v.83l.829-.474.829-1.067 1.066.237h1.184v1.304l-.592.356v.593l.948 1.067 1.184.474v1.067l-.474.593.474 1.304h2.724l.592.593.947.593 1.421-1.66h2.014l1.777.711 1.539-.237.829-.474.237-.83v-.949l.355-.711-.355-.474v-.356l.592-.711h1.066l.474.474 1.895-1.897h.711z"/>
    </symbol>
    <symbol id="Kyiv" viewBox="0 0 25 32">
      <path fill="#748E9A" stroke="#455A64" stroke-linejoin="round" stroke-width=".441" d="m1.815 1.527-1.304.145.507.726-.145.653-.652.653v.871l.072.435 1.014.29.507.798v.798l-.507.29-.435.218v.145l.507.218.507.798v.508l-.072.58.072.363.652.073.072.943-.217.29-.217.363-.435.363v.435l.29.363v.29l-.507.363v.218h.29l.072.435-.29.145-.29.29v.218l.58.218h.725l.145.943v.29l.435.145.217.363.145.073v1.306l.217.218v.653l-.217.218h-.362l.072 1.088.217.363.29.145v.508l-.29.363-.507.508-.507.145-.072.29-.58.145-.29.363h-.435v.363l.145.218-.072.435-.072.363.435.073v.58h.072l.362.218-.145.29-.217.363.072.363.435.363.145.218-.29.435.145.218.217.29-.072.435-.507.29-.072.508.29.145.29.508.435.29.725.798.145.653.58.218h.435l.362-.218.435-.508v-.435h.725l.58-.29.797-.653.072.435.29.218.797-.072.435.363.362.218.217-.725.29-.58h1.449l.362-.363.652.508h.362l.29-.29 1.087.072.145-.29v-.435l.435-.653.652-.58.29-.29.435-.653.217-.363-.58-.363.362-.29.362-.218-.145-.943.145-.508v-.363l.072-.218.072-.798 1.087-.653.652-.073.507.29 1.377.363h.435l.29-.29.29-.508.435-.363.362-.508v-.435l.435-.218v-.218l-.29-.363v-.435l.435-.508.507-.218.217-.218v-.29l-.145-.218v-.363l.217-.218h.58l.145-.363.29-.58.072-.508-.435-.508v-.29l-.797-.508-.145-.435.29-.29h.29v-.435h-.58l-.58-.363v-.363l-.435-.363-.362.218-.29.508-.58.145-.29.218-.217.435h-1.377l-.435.29-.435-.29h-.435l-.217.29-.362-.29v-.435l-.725-.725v-.363h.217v-.363l-.435-.725-.435-.363-.145-.435h-.58l-.58.435-.797.073-.217-.218h-.797l-.145-.798.29-.435-.072-.29-.942-.726v-.943l-.435-.435V4.942l-.362-.58-.217-.218.217-.798h-.435l-.29-.29h-.725l-.217-.653-.145-.871L7.898.516H5.797l-.725.508h-.87l-.29-.145V.226l-.797.145-.29.363-.58.29-.435.508z"/>
    </symbol>
    <symbol id="Luhansk" viewBox="0 0 23 32">
      <path fill="#748E9A" stroke="#455A64" stroke-linejoin="round" stroke-width=".474" d="m1.332 3.225-.313-.786h.938l.625-.629L2.191.552l.391-.314h.938l.391.472v.314l1.485.472.547-.314 1.016.157.704.865 1.329.236.625.55h.782l.938-.943h.625l.625 1.101.625.629.391.157.938-.55.547.55.782-.157.547 1.415 1.485.393.313.314.625-.157 1.095-.943h1.173v.236l-.469 1.101v.55l1.095 1.415.313.314-.313 1.337v.55l-.625.943-.704.708-.313.865-.625.236-.782.55h-.625l.156.943.86.708 1.798.393.86-.393.313.157v.472l-.469.865h-.704l-1.251-.236-.547.708-.391.943v.786l.156.943 1.564.472.313.157v.865l.86 1.258v.55l-.469.629v.315l1.095-.157.313.157-.078.472-.86.708.156.708-.391.315v1.022l-.469.786.469 1.179v.629l-.313.865-1.798.236-1.407.472-.469-.079-.938-.393-1.329.708-.547-.157-.625-.55-.235-1.101-.156-.786h-1.954l-.313-.472.078-.629-.469-.472-.938.079-.782-.629v-.55l-.391-.629-.625.157-1.095-.157v-.629l.469-.314v-.236l-.469-.708-.469-.472h-.625l-.156-.786-.391-.157-.156-1.258-.391-.55v-.472l.547-.55-.391-.55v-.943l-.547-.629v-.55l-.782-.314H2.504l-.313-.393.313-.55.156-.314-.235-.314v-.472l.235-.393-.469-.708L.94 12.43v-.393l.078-.236-.235-.314-.391-.314-.156-.865.156-.786.391-.629.235-.55L.705 7.4l.391-1.022V5.67l-.313-.157-.235-.157.547-1.101-.313-.393.547-.629z" />
    </symbol>
    <symbol id="Lutsk" viewBox="0 0 31 32">
      <path fill="#748E9A" stroke="#455A64" stroke-linejoin="round" stroke-width=".474" d="M25.857 2.678V1.404h-.427l-1.281-.318-1.388-.425-.747-.425h-2.455l-1.174.425h-7.473L9.417 1.722l-.213.955-.32.743-1.281 1.168-1.174.743-.854.425h-.747l-.961-.425-.641-.425H1.732l-1.174.212-.32.637 1.067 2.866v.743l-.747 1.274v.425l1.174 1.486 1.174 1.592v.637l.747 2.441.747 2.123.747.849v.637H4.08l-.427.212v.743l.747 1.168.427 1.062.32.849.641.319.534.637.641.425.534-.637.427-.212.854.425v.849h.427l.64.637-.32.425-.32.319v1.061l.32.531.534-.319 1.388.319v.425l.747.531.534 1.168.534-.531h.854l1.495.212.854.318h.747l.854-.531v-.637l-.32-.531-.534-.425v-.531l.534-.319v-.531l.32-.743.534.212h1.174v-1.061h1.067v-1.274h3.309l1.281.849h1.067l.534-.637v-1.911l.534-.318.427-.531h.64l.427-.637V21.04h.427v-.955h.854v-.425l-.214-.212v-.849l-.32-.425h-.961l-.214-.212.214-.955.961-.318.32-.531-.64-1.061-1.067-.318-.427-.955-.427-.849-.214-.849H24.47l-.32-2.123v-.955l.534-.849V7.35l-.214-.318-.64-.743V5.227l.854-.955.534-.849.64-.743z"/>
    </symbol>
    <symbol id="Lviv" viewBox="0 0 31 32">
      <path fill="#748E9A" stroke="#455A64" stroke-linejoin="round" stroke-width=".492" d="M1.517 27.395v-1.18l.182-.817-.272-.545-.726-.817-.454-.545v-.545l.726-1.634-.091-1.453-.272-.726-.182-.908v-1.271l.182-.545 1.634-1.634 1.452-1.544 1.452-1.634 1.361-1.453L8.324 8.51l.998-1.18 1.18-.636.908-.636.726-.908.726-1.09.635-.091 1.271-.091 1.452-.182.635-1.09.545-.545.181-.363V.608l.272-.363.545.272.454.545.545.363.454-.545.363-.182.726.363v.726h.363l.545.545-.272.363-.272.272v.908l.272.454.454-.272 1.18.272v.363l.635.454.454.999.454-.454h.726l1.271.182.726.272h.091l.091.363-.182.182.182.272.363.363.091-.182.635-.182.272.182.091.363h-.182v.454l-.454.182v.272l.272.272v.272l-.272.272-.091.454.272.363v.454h.272l.272.272.182.454h.363l.363.182.181-.182h.545l.181.636v.454l-.181.726-.182.454-.363.636-.635.182-.544.363h-1.634l-.454.545.091.272.091 1.18h-.363l-.817.182-.363.091v.817l-.272.272h-.363l-.182.454h-.908l-.545.182v.272l-.454.363-.272.272v.454h-.272l-.545-.363h-.454l-.091-.272-.545-.091-1.18-.091-.181.182-.182.363.272.454-.272.363-.182.182-.272.363.182.272v.545l-.182.545-.272.272-.272.636.272.636.545.091.182.363-.182.636h-1.18l-.272.182h-.545l-.181.091-.363.091-1.18-.182h-.454l-.454.363-.363-.181-.272-.182-.363.363h-1.452l-.272-.272h-.545l-.272.272-.272.454-.091.726h-.454l-.363.272-.363.182-.091.636-.272.363v.363l-.272.273v.636l.272.363v.636l-.363.363v.817h-.363l-.272-.182h-.817l-.272-.454-.726-.363H5.42l-.998-.363v-.454l-.182-.726h-.726l-.726-.181-.545-.726-.454-.363-.272-.545z"/>
    </symbol>
    <symbol id="Mykolaiv" viewBox="0 0 39 32">
      <path fill="#748E9A" stroke="#455A64" stroke-linejoin="round" stroke-width=".474" d="m13.13 28.548-.309.518v2.178l.619-.104 1.031.518.516.104.825-.415 1.135-1.244.309-.726-.413-.83.413-.208 1.031-.415-.309.83-.309 1.141v1.452l.619.207.722-.933h.825l.309.311 1.135.311 1.031-.311.516-.622v-1.244l-.516-.726.309-.518.619.207v.726l.309.311 1.238-.311h1.341l1.238-1.244h1.031l.722-.726h1.238l1.135-.726h1.341l.309.726 1.65.311.825-.726-.825-.933h1.444l.722-.83-.309-.726h.722l.516-.933-1.238-1.037-1.032-.415.619-1.141.928-.207.722-.622.516-.726-.206-.83v-1.659l-.619-.726-.413-1.244.722.415.31-.622-.31-.933v-1.037l-.928-.622-.309-.622-.413-1.141.413-.519h.928l-.413-.83V6.563l.206-.622-.722-.726v-.933l.309-.83-.722-.415h-.619l-1.65 1.659-.412-.415h-.928l-.516.622v.311l.309.415-.309.622v.83l-.206.726-.722.415-1.341.207-1.547-.622h-1.754L25.3 9.259l-.825-.519-.516-.519h-2.372l-.413-1.141.413-.519v-.933l-1.031-.415-.825-.933v-.519l.516-.311V2.309h-1.031l-.928-.207-.722.933-.722.415v-.726l.206-.415-.619-.519-.619.519-.619-.207h-1.547l-.516-1.037-.516-.83h-2.269l-.516.83-.722.311-.928-.311-.309.311-.619-.519H6.116l-.825.519H2.403l-.309-.311-.825.622.413.83-1.444.415v.311l.206.519v.933l.825.519.206 1.659.206.933.722.726v.519l.413.207v2.178h.516l.206.519h.928l.413-.311.619-.207.619.519.619.207.516-.726.413.726.516.622.722.933-.309.726v2.593l.516 1.556h1.238l.516.311h.516v-.311h1.031l.413.311-.413.726-.413.519.413.519.722.311h.825v.519l.413.519v.83l-.413.622v.519l-.309.518h-1.031l-1.238.207-.309.415.722 1.244 1.341 1.141v1.037z"/>
    </symbol>
    <symbol id="Odesa" viewBox="0 0 23 32">
      <path fill="#748E9A" stroke="#455A64" stroke-linejoin="round" stroke-width=".46" d="m6.41 2.132-.51.447.17.224.283.28h.624l.17-.28.567.056.283.224v.447l.34.336-.34.727.34.447-.227.503v.951l-.397.503L7.6 7.5v.391l.34.336.567.112.624.839.227.615.397.112.454-.447.34.056.227.168v.839l-.34.224.17.839-.34.336v.224h.51l.17.336-.284.895.227.447.397.168.51.391.397.112h.624l.454.615v1.901l.113.391-.113.336-.34.224.17.391.794.447.397.615-.113.224h-1.191l-.17.224h-.567v-.503l-.057-.168-.397-.336-.283-.056-.34.391-.057.336-.397.112-.283-.336-.454-.056-.17-.727H9.53l-.34.447h-.51l-.397.503h-.34l-.057-1.51h-.34l-.51.224-1.077.671-.113.783.113.336v.727l.624.783v.336l-.51.447-.113.447.113.503v.336l-.624.168-.51-.056-.567.503v.839l-.567.783h-.624l-.17.391-.34.336h-.227v.559l.34.391v.503l-.34.559-.68.112-.567-.224-.85.224-.113.336.454.391.397.951.624.615.964.224.51.335 1.021.112.283-.112-.057-.783.34-.392h.283v.559l.34.28.567-.28.794-.727 1.134-.448 1.417-.224 1.531.951.227.392v.951h.284l.397-.671.113-1.062-.284-.671-.737-.056-.057-.335.113-.448v-.279l-.227-.224-.057-1.286.17-.615h.34l.113.392.113.615.454.447h.17l.567-.391-.113-.224-.113-.559.51-.056.17-.447.624-.615h.283l.397.224h.227v-.559l.283-.112.227.336.227-.056.454-.671 1.077-1.174v-.727l-.34-.447-.057-.391-.794-.447-.964-.783-.113-.615.283-.447.454-.224.34.056.113.503.454.391v.559l.624.447.113.559.567.391.567-.28.68-.951v-.727l.68-.783v-1.286l.227-.447h.85l1.02-.391.68-.224v-1.174l.17-.28v-.559l-.737-.615-.397-.671.17-.224.68-.112h.567l.17-.28v-.28l.227-.336v-.447l-.227-.28v-.28h-.454l-.397-.168-.227-.28.227-.28.227-.391-.227-.168h-.567v.168h-.283l-.284-.168h-.68l-.283-.839V7.947l.17-.391-.397-.503-.284-.336-.227-.391-.284.391-.34-.112-.34-.28-.34.112-.227.168h-.51l-.113-.28h-.284V5.151l-.227-.112v-.28l-.397-.391-.113-.503-.113-.895-.454-.28v-.503l-.113-.28v-.168l.794-.224-.227-.447h-1.417L14.007.9l-.113-.28V.229l-.34.112h-.397v.112l-.34.168-.397-.28-.397.112h-.34l-.284.168.227.447v.336l-.397.224h-.85l-.397-.224-.34-.112-.454.336-.567-.112h-.51l-.51-.447-.624-.112v.671l-.567.503z"/>
    </symbol>
    <symbol id="Poltava" viewBox="0 0 40 32">
      <path fill="#748E9A" stroke="#455A64" stroke-linejoin="round" stroke-width=".488" d="m.714 6.848-.47-.472.188-.472.376-.755.094-.66 1.033.189.564-.377.564-.472.376-.377.376.377h.376l.376-.377.564.66h.564l.47.189.188-.189h.564l.564.189.47-.472.939-.377.846-.472.188-.377.376-.189.752-.849.188-.43h1.315l.188.147.658-.566.47.094.564.472.376.283 1.221-.094.47-.189h.47l1.503.66.564-.377.846-.094.282-.66h.846l1.127.849.564-.377.658-.755.939-.283.282.189.094 1.51.376.566.658.472.376.472v.283l-.188.283v.472l.846.566.094.566.846.472-.094.566-.376.283-.188.283.188.283h.845l.188-.283h.376v.283l1.127-.094.094-.283.282-.189.47-.189.47-.472.376.189.282.189.564.094v1.226h.188v.377l-.376.094-.658.943.188.283.282.377v.755l.846.283 1.127.189.376.566.47.189.188-.189.564.094.282.283v1.226l.47.566.752.849.752-.094.658-.283.188.283.094.283-.282.283.094.377.376.472.47.377-.094.283h-.845l.094.189.752.566-.376.472h-1.127v.566l.188.283v1.415l-.939.849-.376.377-1.409.094-.752-.472-.47.566v.377l.282.283-.564.377.564.566v.66h-1.128l-1.409-.094-.845.755-1.128.661-1.127.283-.658.377-.658 1.132-.752 1.321-.47.566v.377l.47.377v1.038l-.188.943-.939-.566-1.127-.661-1.127-.189-.94.189v-.755l-.846-.755-1.221.283-.846.472-.658-.377h-1.221l-.188-.377-1.503-.094-.564-.943.188-.189v-.66l-.47-.377-1.785-.755.282-.377-.846-1.132-1.597-2.17-.658-1.132-1.879-.849-.47-.943.47-1.227-.47-1.038-1.033-.943-.658-.283-.188-1.321-1.033-.189-.752-.755-.47-.66.376-.472.282-.66v-.566l-1.221-1.226-.94-.472V8.451l-.282-.66-1.033-.472-.282-.472z"/>
    </symbol>
    <symbol id="Rivne" viewBox="0 0 30 32">
      <path fill="#748E9A" stroke="#455A64" stroke-linejoin="round" stroke-width=".471" d="M8.325 1.771V.687h1l.454-.452h.909l.727.452 1.545.271 1.273.813 1.727.271.909.813h2.091l2 1.084h1.545l.454-.181 1.182.361.364 1.445.727.452.272.994h1.364l.454-.452.818-.09.545.632h.545l.182.632-.364.903-.636.361-.182.542v.632h-.273l-.545-.632-.364.271.182.452v.723l-.727.903v.361l.273.361v.361l-.636.452v.361l-.454.361-.182.632v.361l-.364.271-.182.452-.455.181-.273.181h-.364l.091.452.182.181v1.174l.182.09v.542l-.182.452v1.174l.091.181.091.271.182.181v.632l-.364.181-.091.452-.182.542-.182.271-.273.632h-.727l-.364.271-.273.271h-.454l-.182.271-.273.181h-.454l-.364-.181-.364.09v.181l-.545.18h-.364v.271l-.091.542h-.454l-.364.09v.361l-.273.361-.727.361v.452l-.364.452h-.454v.271l-.273.361-.273.181v.271h-1.273l-.545.632-.273.361-.364.271-.545.09-.364-.181v-.813l.182-.542-.364-.09-.273.181-.364-.181-.454-.361-.182.181H9.864l-.182.181-.454.181-.182.271h-.545v.452l-.454.181H6.502l-.182.181H5.138l-.182-.181-.364-.09-.182-.09-.091.271-.364.271v.181l.364.181-.091.452-.364.452-.273.271h-.545l-.182.181-.364-.181h-.364l-.182-.452-.273-.271h-.273v-.452l-.273-.361.091-.452.273-.271v-.271l-.273-.271v-.271l.454-.181v-.452h.182l-.091-.361-.273-.181-.636.181-.091.181-.364-.361-.182-.271.182-.181-.091-.361h.636l.727-.452v-.542l-.273-.452-.454-.361v-.452l.454-.271v-.452l.273-.632.454.181h1v-.903h.909v-1.084H6.86l1.091.723h.909l.454-.542v-1.626l.454-.271.364-.452h.545l.364-.542v-.994h.364v-.813h.727v-.361l-.182-.181v-.723l-.273-.361h-.818l-.182-.181.182-.813.818-.271.273-.452-.545-.903-.909-.271-.364-.813-.364-.723-.182-.723H7.132l-.273-1.807v-.813l.454-.723v-.723l-.182-.271-.545-.632v-.903l.727-.813.454-.723.545-.632z"/>
    </symbol>
    <symbol id="Sumy" viewBox="0 0 25 32">
      <path fill="#748E9A" d="M2.523 26.594H1.455v-.263l.229-.383.076-.842-.153-.153-.305-.229v-.383l.153-.306.534-.076.229-.306.076-.23-.229-.422-.381-.037-.076-.383.229-.077.153-.536.076-.383.381-.306v-.842l-.152-.23v-.918l-.763.077-.229-.23-.153-.306-.458-.077-.152-.23-.305-.153v-.995l.229-.077.229-.459.458-.765v-.536l-.152-.306-.305-.306.152-.612.305-.306.381-.23.076-.23.076-.459.153-.306-.076-1.071.153-.383v-.23l-.229-.153-.229-.306.305-.153-.153-.459-.229-.306-.458-.23V8.115l.153-.306.305-.23.076-.383.305-.306h.305l.381-.306.61-.306.305-.23v-.995h.229l.305-.306.305-.153v-.306l-.534-.383-.305-.383-.534-.383-.152-.306.152-.306.305-.306v-.842l.305-.077V.537H4.2l.305.536h.381L6.335.231l.839.077.381.459.61 1.224.686.23.686.765.076 1.76 1.068 1.607.915.689.915.918.305.995-1.83.612-.763.306v.536l.534.842.686.689-.305 1.377v.765l.61.077.229.23-.534 1.301.686.383.686-.383.991.23 1.525.153.381.536h1.144l.61-.306 1.068-.23.991.23v1.301l.534.612 1.068-.306.534.459-.381.995.61.918.381 1.301.534.612-.152 1.301-.305.383.457 1.684.534.689.915.306v.536l.686.995-.686.383-.762.229-.686-.612-.229.306v.306l-.153.077-.305-.077-.229.459h-.381l-.076.383-.381.459-.457-.229h-.381l-.305.459-.534.383-.458.306-.381.23-.458-.076-.229-.153-.305-.153-.381.383-.381.153-.229.153-.076.23-.915.076v-.23h-.305l-.153.23h-.686l-.153-.23.153-.229.305-.23.076-.459-.686-.383-.076-.459-.686-.459v-.383l.153-.23v-.229l-.305-.383-.534-.383-.305-.459-.076-1.224-.229-.153-.763.23-.534.612-.457.306-.915-.689H8.7l-.229.536-.686.077-.457.306-1.22-.536h-.381l-.381.153-.991.077-.305-.23-.458-.383-.381-.076-.534.459-.153-.12z"/>
      <path fill="#748E9A" stroke="#455A64" stroke-linejoin="round" stroke-width=".471" d="m1.455 26.594-.153.349m.153-.349h1.068l.153.12.534-.459.381.076.457.383.305.23.991-.077.381-.153h.381l1.22.536.457-.306.686-.077.229-.536h.686l.915.689.457-.306.534-.612.763-.23.229.153.076 1.224.305.459.534.383.305.383v.229l-.153.23v.383l.686.459.076.459.686.383-.076.459-.305.23-.153.229.153.23h.686l.153-.23h.305v.23l.915-.076.076-.23.229-.153.381-.153.381-.383.305.153.229.153.458.076.381-.23.458-.306.534-.383.305-.459h.381l.457.229.381-.459.076-.383h.381l.229-.459.305.077.152-.077v-.306l.229-.306.686.612.762-.229.686-.383-.686-.995v-.536l-.915-.306-.534-.689-.457-1.684.305-.383.152-1.301-.534-.612-.381-1.301-.61-.918.381-.995-.534-.459-1.068.306-.534-.612v-1.301l-.991-.23-1.068.23-.61.306h-1.144l-.381-.536-1.525-.153-.991-.23-.686.383-.686-.383.534-1.301-.229-.23-.61-.077v-.765l.305-1.377-.686-.689-.534-.842v-.536l.763-.306 1.83-.612-.305-.995-.915-.918-.915-.689L9.61 4.747l-.076-1.76-.686-.765-.686-.23-.61-1.224-.381-.459-.839-.077-1.449.842h-.381L4.197.538h-.763v.765l-.305.077v.842l-.305.306-.152.306.152.306.534.383.305.383.534.383v.306l-.305.153-.305.306h-.229v.995l-.305.23-.61.306-.381.306h-.305l-.305.306-.076.383-.305.23-.152.306v1.377l.457.23.229.306.153.459-.305.153.229.306.229.153v.23l-.153.383.076 1.071-.153.306-.076.459-.076.23-.381.23-.305.306-.152.612.305.306.153.306v.536l-.458.765-.229.459-.229.077v.995l.305.153.152.23.458.077.153.306.229.23.763-.077v.918l.152.23v.842l-.381.306-.076.383-.153.536-.229.077.076.383.381.037.229.422-.076.23-.229.306-.534.076-.153.306v.383l.305.229.153.153-.076.842-.229.383v.263z"/>
    </symbol>
    <symbol id="Ternopil" viewBox="0 0 19 32">
      <path fill="#748E9A" stroke="#455A64" stroke-linejoin="round" stroke-width=".474" d="m18.347 31.006.284.379-.284.379h-.569l-.474-.284-.664-.284h-.759l-.379-.284-.379-.473v-.473l-.474-.473h-.569l-.379.284-.379.189-.759-.095-.284-.189-.474-.852-.19-.189h-.284l-.379.379h-.095l-.379-.379-.474-.095-.19-.095.095-.757-.284-.284v-.758l-.379-.284-.379-.568h-.474l-.569-.284v-.284l-.664-.189-.379-.189H5.738l-.284.473H5.17v-.663l.095-.663h-.569l-.284.284-.095-.473v-.663l-.379-.379-.474-.284H2.8l-.569-.473-.19-.473-.284-.189v-.473l.474-.095.284-.189.284-.284-.095-.379h-.948l-.284-.379h-.284v-.663l-.19-.284.474-.095.379-.568-.095-.473-.474-.379v-.947l-.284-1.041v-.663l-.759-1.515v-.473l.284-.284.474-.379v-.284l.569-.189h.948l.19-.473h.379l.284-.284v-.852l.379-.095.853-.189h.379l-.095-1.231-.095-.284.474-.568h1.707l.569-.379.664-.189.379-.663.19-.473.19-.757v-.473l-.19-.663.284-.284.379-.473.095-.473-.379-.189v-.189l.379-.284.095-.284.19.095.379.095.19.189h1.233l.19-.189h1.612l.474-.189v-.473h.569l.19-.284.474-.189.19-.189h1.138l.19-.189.474.379.379.189.284-.189.379.095-.19.568v.852l.19.189-.095.473.284.095.379.473-.759.189v.379l.19.568-.19.284-.19.663-.474.379-.19 1.42.284.189v1.041l.569.757v.568l-.19.284-.19.663.379.473-.379 1.136-.664.663-.284.379.284 1.041.19.947.284.947.19.473v1.42l-.19.284-.474.379v.947l.19.284v.852l-.19.757-.379.284.379.379v.568l-.284.189v1.515l.284.284-.284.189v.663l.474.568-.19.284v.947l-.284.947.569.473.284.663.379.663.474.663z"/>
    </symbol>
    <symbol id="Uzhhorod" viewBox="0 0 39 32">
      <path fill="#748E9A" stroke="#455A64" stroke-linejoin="round" stroke-width=".52" d="m11.837 1.691.911.781.26.13v1.301l.39.78.65.52.78 1.041 1.041.26h1.041l.26 1.041v.65l1.431.52h1.041l1.041.52.39.65h1.171l.39.26h.39l.26.39.65.26.78.78.39.78h1.041l.39.52v.911l.39.52.911.78v.78l.78.13.911.65 1.301-.39v-.39h1.171v.781l-.26.39-.26 1.431.26 1.171 1.171.52.65-.52h.781l.65.65.911 1.041 1.301 1.171v.78l.52.52v.65l-.65.78.65 1.171 1.041.78v.911l-.26.78-.52.52v.78l-.26.39-2.341-.26-1.821.65-.52.65h-.52l-.78-.65-.911.26-.65-.78-.911-1.041-.65-.26-1.171.78-.65.39h-.52l-.65-.911-1.171-.52-1.821-.52-1.041-.78-.65.52-1.041.26-1.301-1.171-2.602-2.472h-.52l-1.561 1.821-.39 1.041h-.39l-.52-.78h-.39l-.52.39-.39.39h-.65l.26-.39-.26-1.431-.39-1.041-1.171-.78H7.679l-.65-.39-1.561-3.252H3.517l-.52-.65-1.171-3.772h-.78l-.52-.52-.26-3.382.78-.78 1.951-.65.52-.65.26-.78.39-1.821.65-1.041V4.809l.911-.52.26-.78 2.211-1.821V.517l.39-.26L9.89 1.298l1.951.39z"/>
    </symbol>
    <symbol id="Vinnytsia" viewBox="0 0 30 32">
      <path fill="#748E9A" stroke="#455A64" stroke-linejoin="round" stroke-width=".488" d="m25.896 11.251.178.799-.089.799-.444.621-.533.266-.444.444.266.533.621.266v.266l-.533.444.266.266.355.178.444.266-.089 1.154h.266l.355.355v1.065h.355l.621.178.266.355-.621.444.621.178.089.444.533.266.621.799.177 1.154-.355.444v.533l.976.177-.178.355-.533.621-.71.355-.355-.533-.266-.178-.444.266-.799.799.621.71.888.355.799.71.355.621-.533.178h-.621v.178l-.533.266-.621-.444-.621.178h-.533l-.444.266.355.71v.533l-.621.355h-1.331l-.621-.355-.533-.178-.71.533-.888-.178h-.799l-.799-.71-.976-.178v1.065l-.888.799-.799.71-.888-2.219-1.953-.621-1.243.266-.178.533-.621.533-.266-.355v-.71h-.799l-.178-.266.533-.71-.178-.621h-.71l-.533.444h-.355l-.266-.621-1.065-.177-.178-.977-1.154-.266-.621-.533-1.065-1.331-.621-.355H3.167l-.444-.266H1.48l-.089-.533v-.621l.089-.444-.799-1.065-.444-.177v-.397l.355-.668.089-1.243.089-.266.089-.621-.178-.266.089-.355.089-2.84.178-.355.621-.444.178-.621.178-.089h.888l.089-.355.533-.089h.266l.444.355.533.178.355-.178.621-.266.266-.089.089-.888-.178-.533v-.621l.178-.089-.178-.355v-.533l-.355-.355v-.71l-.355-.621-.355-.533-.178-.533.355-.266.355-.089-.089-.888.178-.533.178-.355-.266-.533-.178-.621.178-.178.533-.178v-.355l.355-.178.444-.178.799.178h.888l.71-.444.976.266.621-.266.799.266 1.065-.444h.71l.71.266.621-.266.266.178.533.089.71-.621.533-.888h.799l.444.621v.799l.355.266.089.888-.444.355-.266.444.71 1.243.621.444h2.13l.621-.178.621-.533 1.243-.355.533.266-.177.355-.266.444.089.444.533.444.177.266-.355.533.178.266.266.355-.089.533-.621.355-.089.621.355.178.355.621.533.355.888.976z"/>
    </symbol>
    <symbol id="Zaporizhzhia" viewBox="0 0 36 32">
      <path fill="#748E9A" d="m3.132 11.744-1.716.634v1.54l.722 1.449h1.264v-.272l.271-.362h.542l.813.815-.451.996.271 1.177.813.996v1.268l.271.634.993.181.542.453.993.815v.634l-.361.181-.361 1.177-.271.634h-.542l.181.725.993.181v.634l-.361.543.722.543.813.181.271.724 1.174.272.903.181v.362l.361 1.992.361.725 1.535-1.54-.09-.996-.451-.543v-.362l.451-.091.722 1.087.181 1.087.361.362h.451l.632-1.087 1.084-.906 1.445-.905.903-1.449 1.264-.996 1.535-.725 1.264-.272 1.445-.181.632.725h.361l.452-1.087 1.174-.906 1.445-.453.722-.362h.722l.993.634h.542l.452-.543.09-.724 1.716-1.449-.542-.724.181-.543.361-.272h.542v-.362l-.271-.091v-.453l.451-.362-.451-.181h-.632l-.181-.181-.271-.634-.632-.725-.452-.181-.632-.634.271-.362.361-.543.271-.272-.632-.091v-.362l.361-.453.632.362h.542l.361-.543.181-.996h.903l.181-.634.361-.543-.361-.453-1.083-.091-1.084-.815-.361-.453-.632-.362-.632.543-.361-.362-.813-.453-.722-.362v-.724l-.542-.272-.361-1.087-1.083-.362V3.865l-.451-.272-.181-.362-.181.815-.542.453-.451-.181h-.722l-.271.362-.632.091-.542-.272-.181-.543H23l-.181.362-.271.453-.813-.272-.181-.543.722-.272v-.543l-.722-.362-.451-.724.271-.543-.271-.272-.181.272h-.451L20.29.335h-.722l-.722.543-.993-.543L16.77.244l-.722.272-.993.362V.697l-.722-.091-.722.272-.542-.543-.993-.091-.361.362H9.729v.272l-.813.362-.722-.091-.361-.453h-.181v.543l.181.453v.362h-.451v.362l.632.362.722.724-.181.453h-.542l-.632.362.271.634.903.543.361.543-.361.543.632.453v1.54l-.271.634.451 1.177-1.354.543h-3.16l-1.716.815z"/>
      <path fill="#748E9A" stroke="#455A64" stroke-linejoin="round" stroke-width=".485" d="m.242 11.744 1.174.634m0 0 1.716-.634 1.716-.815h3.16l1.354-.543-.451-1.177.271-.634v-1.54l-.632-.453.361-.543-.361-.543-.903-.543-.271-.634.632-.362h.542l.181-.453-.722-.724-.632-.362v-.362h.451v-.362l-.181-.453V.698h.181l.361.453.722.091.813-.362V.608h1.986l.361-.362.993.091.542.543.722-.272.722.091V.88l.993-.362.722-.272 1.084.091.993.543.722-.543h.722l.181 1.177h.451l.181-.272.271.272-.271.543.451.724.722.362v.543l-.722.272.181.543.813.272.271-.453.181-.362h.451l.181.543.542.272.632-.091.271-.362h.722l.451.181.542-.453.181-.815.181.362.451.272v1.177l1.083.362.361 1.087.542.272v.724l.722.362.813.453.361.362.632-.543.632.362.361.453 1.084.815 1.083.091.361.453-.361.543-.181.634h-.903l-.181.996-.361.543h-.542l-.632-.362-.361.453v.362l.632.091-.271.272-.361.543-.271.362.632.634.452.181.632.724.271.634.181.181h.632l.451.181-.451.362v.453l.271.091v.362h-.542l-.361.272-.181.543.542.724-1.716 1.449-.09.724-.452.543h-.542l-.993-.634h-.722l-.722.362-1.445.453-1.174.906-.452 1.087h-.361l-.632-.725-1.445.181-1.264.272-1.535.725-1.264.996-.903 1.449-1.445.905-1.084.906-.632 1.087h-.451l-.361-.362-.181-1.087-.722-1.087-.451.091v.362l.451.543.09.996-1.535 1.54-.361-.725-.361-1.992v-.362l-.903-.181-1.174-.272-.271-.724-.813-.181-.722-.543.361-.543v-.634l-.993-.181-.181-.725h.542l.271-.634.361-1.177.361-.181v-.634l-.993-.815-.542-.453-.993-.181-.271-.634v-1.268l-.813-.996-.271-1.177.451-.996-.813-.815h-.542l-.271.362v.272H2.134l-.722-1.449v-1.54z"/>
    </symbol>
    <symbol id="Zhytomyr" viewBox="0 0 25 32">
      <path fill="#748E9A" stroke="#455A64" stroke-linejoin="round" stroke-width=".485" d="m6.587 2.534-.569-.327-.081-.082-.569.327-.163.491v.573h-.244l-.488-.573-.325.246.163.409v.655l-.651.819v.327l.244.327v.327l-.569.409v.327l-.407.327-.163.573v.327l-.325.246-.163.409-.407.164-.244.164h-.325l.081.409.163.164v1.064l.163.082v.491l-.163.409v1.064l.081.164.081.246.163.164v.573l-.325.164-.081.409-.163.491-.163.246-.244.573H.243l.325.491.244.491.488.246.244.327.081.409-.163.327-.325.246.163.491.325.327.325.655.651.327.163.409.976.9.325-.164.081-.164h.325l.244.246v.409l.163.246v.737l.163.246v1.555l-.407.082-.569.246v.246l.244.327-.244.573-.325.246.325.409.407.573.244.573.407.164.651.328.325.246.407.491.325-.164.407-.164.732.164h.813l.651-.409.895.246.569-.246.732.246.976-.409h.651l.651.246.569-.246.244.164.488.082.651-.573.488-.819h.732l.407.573v.737l.325.246.081.818-.407.328-.244.409.651 1.146.569.409h1.952l.569-.164.569-.491 1.139-.328v-.655l-.488-.082.081-.409.081-.491-.163-.246v-.409h.488l.325-.409.651-.164.081-.328.569-.164.569-.573.325-.409v-.573l-.325-.164-.244-.409-.081-1.228h.407l.244-.246v-.737l-.244-.246v-1.473l-.163-.082-.244-.409-.488-.164v-.327l-.163-1.064h-.813l-.651-.246v-.246l.325-.327.325-.164-.081-.491h-.325v-.246l.569-.409v-.327l-.325-.409v-.491l.488-.409.244-.409.244-.327-.081-1.064-.732-.082-.081-.409.081-.655v-.573l-.569-.9-.569-.246v-.164l.488-.246.569-.327v-.9l-.569-.9-1.139-.327-.081-.491v-.982l.732-.737.163-.737-.569-.819-.244-.737-.407-.573v-.982l-.813-1.31h-.976l-.651.819-1.22.082-.895 1.064-.081.819h-.895l-.244-1.146-.081-.819-1.545-.164-.732.491-.407-.082-.976-1.473h-.244l-.813.982H8.783L7.97.405l-.651.655.081.737-.813.737z" />
    </symbol>
  </defs>
</svg>
