<svg aria-hidden="true" style="position: absolute; width: 0; height: 0; overflow: hidden;" version="1.1" xmlns="http://www.w3.org/2000/svg" xmlns:xlink="http://www.w3.org/1999/xlink">
<defs>
<symbol id="icon-ukraine" viewBox="0 0 47 32">
<path d="M10.114 1.955v-0.255h-0.085l-0.255-0.064-0.276-0.085-0.149-0.085h-0.489l-0.234 0.085h-1.487l-0.297 0.212-0.043 0.191-0.064 0.149-0.255 0.234-0.234 0.149-0.17 0.085h-0.149l-0.191-0.085-0.128-0.085h-0.297l-0.234 0.042-0.064 0.127 0.212 0.574v0.149l-0.149 0.255v0.085l0.234 0.297 0.234 0.319v0.128l0.149 0.489 0.149 0.425 0.149 0.17v0.128h-0.212l-0.085 0.043v0.149l0.149 0.234 0.085 0.212 0.064 0.17 0.128 0.064 0.106 0.128 0.128 0.085 0.106-0.128 0.085-0.043 0.17 0.085v0.17h0.085l0.128 0.128-0.064 0.085-0.064 0.064v0.212l0.064 0.106 0.106-0.064 0.276 0.064v0.085l0.149 0.106 0.106 0.234 0.106-0.106h0.17l0.297 0.043 0.17 0.064h0.149l0.17-0.106v-0.128l-0.064-0.106-0.106-0.085v-0.106l0.106-0.064v-0.106l0.064-0.149 0.106 0.043h0.234v-0.212h0.212v-0.255h0.659l0.255 0.17h0.212l0.106-0.128v-0.382l0.106-0.064 0.085-0.106h0.127l0.085-0.128v-0.234h0.085v-0.191h0.17v-0.085l-0.043-0.043v-0.17l-0.064-0.085h-0.191l-0.043-0.043 0.043-0.191 0.191-0.064 0.064-0.106-0.127-0.212-0.212-0.064-0.085-0.191-0.085-0.17-0.043-0.17h-0.574l-0.064-0.425v-0.191l0.106-0.17v-0.17l-0.043-0.064-0.127-0.149v-0.212l0.17-0.191 0.106-0.17 0.127-0.149z"></path>
<path d="M10.135 1.955v-0.255h0.234l0.106-0.106h0.212l0.17 0.106 0.361 0.064 0.297 0.191 0.404 0.064 0.212 0.191h0.489l0.467 0.255h0.361l0.106-0.042 0.276 0.085 0.085 0.34 0.17 0.106 0.064 0.234h0.319l0.106-0.106 0.191-0.021 0.127 0.149h0.127l0.043 0.149-0.085 0.212-0.149 0.085-0.043 0.127v0.149h-0.064l-0.127-0.149-0.085 0.064 0.043 0.106v0.17l-0.17 0.212v0.085l0.064 0.085v0.085l-0.149 0.106v0.085l-0.106 0.085-0.043 0.149v0.085l-0.085 0.064-0.043 0.106-0.106 0.043-0.064 0.043h-0.085l0.021 0.106 0.043 0.043v0.276l0.043 0.021v0.128l-0.043 0.106v0.276l0.021 0.043 0.021 0.064 0.043 0.043v0.149l-0.085 0.043-0.021 0.106-0.043 0.128-0.043 0.064-0.064 0.149h-0.17l-0.085 0.064-0.064 0.064h-0.106l-0.043 0.064-0.064 0.043h-0.106l-0.085-0.043-0.085 0.021v0.043l-0.127 0.043h-0.085v0.064l-0.021 0.128h-0.106l-0.085 0.021v0.085l-0.064 0.085-0.17 0.085v0.106l-0.085 0.106h-0.106v0.064l-0.064 0.085-0.064 0.043v0.064h-0.297l-0.127 0.149-0.064 0.085-0.085 0.064-0.127 0.021-0.085-0.043v-0.191l0.043-0.127-0.085-0.021-0.064 0.043-0.085-0.043-0.106-0.085-0.043 0.043h-0.255l-0.043 0.043-0.106 0.043-0.043 0.064h-0.127v0.106l-0.106 0.043h-0.361l-0.043 0.043h-0.276l-0.043-0.043-0.085-0.021-0.043-0.021-0.021 0.064-0.085 0.064v0.043l0.085 0.043-0.021 0.106-0.085 0.106-0.064 0.064h-0.127l-0.043 0.043-0.085-0.043h-0.085l-0.043-0.106-0.064-0.064h-0.064v-0.106l-0.064-0.085 0.021-0.106 0.064-0.064v-0.064l-0.064-0.064v-0.064l0.106-0.043v-0.106h0.043l-0.021-0.085-0.064-0.043-0.149 0.043-0.021 0.043-0.085-0.085-0.043-0.064 0.043-0.043-0.021-0.085h0.149l0.17-0.106v-0.128l-0.064-0.106-0.106-0.085v-0.106l0.106-0.064v-0.106l0.064-0.149 0.106 0.043h0.234v-0.212h0.212v-0.255h0.659l0.255 0.17h0.212l0.106-0.128v-0.382l0.106-0.064 0.085-0.106h0.127l0.085-0.128v-0.234h0.085v-0.191h0.17v-0.085l-0.043-0.043v-0.17l-0.064-0.085h-0.191l-0.043-0.043 0.043-0.191 0.191-0.064 0.064-0.106-0.127-0.212-0.212-0.064-0.085-0.191-0.085-0.17-0.043-0.17h-0.574l-0.064-0.425v-0.191l0.106-0.17v-0.17l-0.043-0.064-0.127-0.149v-0.212l0.17-0.191 0.106-0.17 0.127-0.149z"></path>
<path d="M2.167 12.749v-0.276l0.042-0.191-0.064-0.127-0.17-0.191-0.106-0.127v-0.127l0.17-0.382-0.021-0.34-0.064-0.17-0.042-0.212v-0.297l0.042-0.127 0.382-0.382 0.34-0.361 0.34-0.382 0.319-0.34 0.425-0.382 0.234-0.276 0.276-0.149 0.212-0.149 0.17-0.212 0.17-0.255 0.149-0.021 0.297-0.021 0.34-0.043 0.149-0.255 0.128-0.128 0.043-0.085v-0.255l0.064-0.085 0.128 0.064 0.106 0.128 0.128 0.085 0.106-0.128 0.085-0.043 0.17 0.085v0.17h0.085l0.128 0.128-0.064 0.085-0.064 0.064v0.212l0.064 0.106 0.106-0.064 0.276 0.064v0.085l0.149 0.106 0.106 0.234 0.106-0.106h0.17l0.297 0.043 0.17 0.064h0.021l0.021 0.085-0.043 0.043 0.043 0.064 0.085 0.085 0.021-0.043 0.149-0.043 0.064 0.043 0.021 0.085h-0.043v0.106l-0.106 0.043v0.064l0.064 0.064v0.064l-0.064 0.064-0.021 0.106 0.064 0.085v0.106h0.064l0.064 0.064 0.043 0.106h0.085l0.085 0.043 0.043-0.043h0.127l0.043 0.149v0.106l-0.043 0.17-0.043 0.106-0.085 0.149-0.149 0.043-0.127 0.085h-0.382l-0.106 0.127 0.021 0.064 0.021 0.276h-0.085l-0.191 0.043-0.085 0.021v0.191l-0.064 0.064h-0.085l-0.043 0.106h-0.212l-0.128 0.043v0.064l-0.106 0.085-0.064 0.064v0.106h-0.064l-0.128-0.085h-0.106l-0.021-0.064-0.128-0.021-0.276-0.021-0.043 0.043-0.043 0.085 0.064 0.106-0.064 0.085-0.043 0.043-0.064 0.085 0.043 0.064v0.127l-0.043 0.127-0.064 0.064-0.064 0.149 0.064 0.149 0.128 0.021 0.043 0.085-0.043 0.149h-0.276l-0.064 0.043h-0.128l-0.043 0.021-0.085 0.021-0.276-0.043h-0.106l-0.106 0.085-0.085-0.043-0.064-0.043-0.085 0.085h-0.34l-0.064-0.064h-0.128l-0.064 0.064-0.064 0.106-0.021 0.17h-0.106l-0.085 0.064-0.085 0.043-0.021 0.149-0.064 0.085v0.085l-0.064 0.064v0.149l0.064 0.085v0.149l-0.085 0.085v0.191h-0.085l-0.064-0.043h-0.191l-0.064-0.106-0.17-0.085h-0.17l-0.234-0.085v-0.106l-0.042-0.17h-0.17l-0.17-0.043-0.127-0.17-0.106-0.085-0.064-0.127z"></path>
<path d="M1.976 12.388l0.149 0.127 0.042 0.021v0.212l0.064 0.127 0.106 0.085 0.127 0.17 0.17 0.043h0.17l0.042 0.17v0.106l0.234 0.085h0.17l0.17 0.085 0.064 0.106h0.191l0.064 0.043h0.064l0.042 0.064 0.106 0.043 0.127 0.127 0.064 0.127h0.17l0.064 0.085v0.149l0.064 0.085 0.149 0.127v0.127l0.128 0.021 0.149 0.106 0.212-0.064v-0.064h0.191v0.127l-0.043 0.064-0.043 0.234 0.043 0.191 0.191 0.085 0.106-0.085h0.128l0.106 0.106 0.149 0.17 0.212 0.191v0.127l0.085 0.085v0.106l-0.106 0.128 0.106 0.191 0.17 0.128v0.149l-0.043 0.128-0.085 0.085v0.128l-0.043 0.064-0.382-0.043-0.297 0.106-0.085 0.106h-0.085l-0.128-0.106-0.149 0.043-0.106-0.128-0.149-0.17-0.106-0.043-0.191 0.128-0.106 0.064h-0.085l-0.106-0.149-0.191-0.085-0.297-0.085-0.17-0.128-0.106 0.085-0.17 0.043-0.212-0.191-0.425-0.404h-0.085l-0.255 0.297-0.064 0.17h-0.064l-0.085-0.128h-0.064l-0.085 0.064-0.064 0.064h-0.106l0.042-0.064-0.042-0.234-0.064-0.17-0.191-0.128h-0.234l-0.106-0.064-0.255-0.531h-0.319l-0.085-0.106-0.191-0.616h-0.128l-0.085-0.085-0.043-0.552 0.128-0.127 0.319-0.106 0.085-0.106 0.042-0.127 0.064-0.297 0.106-0.17v-0.234l0.149-0.085 0.042-0.127 0.361-0.297v-0.191l0.064-0.043 0.212 0.17 0.319 0.064z"></path>
<path d="M6.375 17.254l-0.128-0.17v-0.17l0.085-0.085 0.043-0.128v-0.149l-0.17-0.128-0.106-0.191 0.106-0.128v-0.106l-0.085-0.085v-0.127l-0.212-0.191-0.149-0.17-0.106-0.106h-0.128l-0.106 0.085-0.191-0.085-0.043-0.191 0.043-0.234 0.043-0.064v-0.127h-0.191v0.064l-0.212 0.064-0.149-0.106-0.128-0.021v-0.127l-0.149-0.127-0.064-0.085v-0.149l-0.064-0.085h-0.17l-0.064-0.127-0.127-0.127-0.106-0.043-0.021-0.043v-0.212l0.085-0.085v-0.149l-0.064-0.085v-0.149l0.064-0.064v-0.085l0.064-0.085 0.021-0.149 0.085-0.043 0.085-0.064h0.106l0.021-0.17 0.064-0.106 0.064-0.064h0.128l0.064 0.064h0.34l0.085-0.085 0.064 0.043 0.085 0.043 0.106-0.085h0.106l0.276 0.043 0.085-0.021 0.043-0.021h0.128l0.064-0.043h0.276l0.043-0.149-0.043-0.085-0.128-0.021-0.064-0.149 0.064-0.149 0.064-0.064 0.043-0.127v-0.127l-0.043-0.064 0.064-0.085 0.043-0.043 0.064-0.085-0.064-0.106 0.043-0.085 0.043-0.043 0.276 0.021 0.128 0.021 0.021 0.064h0.106l0.128 0.085h0.064l0.17 0.34v0.149l0.064 0.234v0.212l0.106 0.085 0.021 0.106-0.085 0.127-0.106 0.021 0.043 0.064v0.149h0.064l0.064 0.085h0.212l0.021 0.085-0.064 0.064-0.064 0.043-0.106 0.021v0.106l0.064 0.043 0.043 0.106 0.128 0.106h0.149l0.106 0.064 0.085 0.085v0.149l0.021 0.106 0.064-0.064h0.127l-0.021 0.149v0.149h0.064l0.064-0.106h0.234l0.085 0.043 0.149 0.043v0.064l0.127 0.064h0.106l0.085 0.127 0.085 0.064v0.17l0.064 0.064-0.021 0.17-0.085 0.021-0.17 0.085v0.064l0.064 0.212v0.085l0.064 0.085v0.17l-0.064 0.021v0.149l-0.064 0.106h-0.149l-0.043-0.043h-0.149l-0.106 0.043-0.149 0.043-0.127 0.106-0.106 0.17h-0.106l-0.064 0.149-0.085 0.064h-0.149l-0.021 0.212h-0.021l-0.085 0.128-0.128 0.128h-0.106l-0.064 0.064-0.043 0.149-0.064 0.043-0.021 0.149-0.064 0.021v0.234l0.043 0.085v0.128l0.085 0.064v0.255l-0.043 0.021-0.128 0.255-0.085 0.021-0.17-0.234-0.212-0.043-0.17-0.191v-0.149l-0.106-0.128z"></path>
<path d="M7.118 17.976l-0.085 0.021 0.064 0.106 0.446-0.021 0.552-0.616 1.36-0.043 0.34-0.149 0.659-0.021 0.34-0.446 0.043-0.255 0.127-0.064 0.234-0.021 0.085-0.064h0.106l0.064 0.064 0.127-0.021 0.127-0.128 0.382-0.021 0.127-0.191v-0.234l0.085-0.085 0.149-0.021 0.17 0.191 0.149 0.021 0.085-0.149 0.064-0.021 0.234 0.106 0.127 0.064 0.149-0.127 0.212-0.17 0.212 0.021 0.212-0.106-0.021-0.085v-0.17l0.021-0.106-0.191-0.255-0.106-0.043h-0.127l-0.149 0.085-0.043 0.149-0.127-0.085h-0.17l-0.106 0.106-0.064-0.043-0.149-0.021v-0.064l-0.149-0.021-0.085 0.064-0.106 0.085-0.064-0.064-0.043-0.064-0.043-0.127-0.255 0.064 0.043 0.106-0.085 0.106-0.064 0.043v-0.106l-0.106-0.021-0.085-0.043-0.021 0.276-0.043 0.17h-0.064l-0.085-0.043-0.021-0.106-0.085-0.191-0.234-0.021-0.064 0.085h-0.127l-0.106-0.064-0.149-0.064h-0.17l-0.085-0.064-0.085-0.106v-0.106l-0.106-0.106h-0.127l-0.085 0.064-0.085 0.043-0.17-0.021-0.064-0.043-0.106-0.191-0.043-0.043h-0.064l-0.085 0.085h-0.021l-0.085-0.085-0.106-0.021-0.043-0.021-0.085 0.021-0.17 0.085v0.064l0.064 0.212v0.085l0.064 0.085v0.17l-0.064 0.021v0.149l-0.064 0.106h-0.149l-0.043-0.043h-0.149l-0.106 0.043-0.149 0.043-0.127 0.106-0.106 0.17h-0.106l-0.064 0.149-0.085 0.064h-0.149l-0.021 0.212h-0.021l-0.085 0.128-0.128 0.128h-0.106l-0.064 0.064-0.043 0.149-0.064 0.043-0.021 0.149-0.064 0.021v0.234l0.043 0.085v0.128l0.085 0.064v0.255l-0.043 0.021-0.128 0.255z"></path>
<path d="M11.177 15.086l0.064 0.085-0.064 0.085h-0.127l-0.106-0.064-0.149-0.064h-0.17l-0.085-0.064-0.085-0.106v-0.106l-0.106-0.106h-0.127l-0.085 0.064-0.085 0.043-0.17-0.021-0.064-0.043-0.106-0.191-0.043-0.043h-0.064l-0.085 0.085h-0.021l-0.085-0.085-0.106-0.021-0.043-0.021 0.021-0.17-0.064-0.064v-0.17l-0.085-0.064-0.085-0.127h-0.106l-0.127-0.064v-0.064l-0.149-0.043-0.085-0.043h-0.234l-0.064 0.106h-0.064v-0.149l0.021-0.149h-0.127l-0.064 0.064-0.021-0.106v-0.149l-0.085-0.085-0.106-0.064h-0.149l-0.128-0.106-0.043-0.106-0.064-0.043v-0.106l0.106-0.021 0.064-0.043 0.064-0.064-0.021-0.085h-0.212l-0.064-0.085h-0.064v-0.149l-0.043-0.064 0.106-0.021 0.085-0.127-0.021-0.106-0.106-0.085v-0.212l-0.064-0.234v-0.149l-0.17-0.34v-0.106l0.064-0.064 0.106-0.085v-0.064l0.128-0.043h0.212l0.043-0.106h0.085l0.064-0.064v-0.191l0.085-0.021 0.191-0.043h0.085l-0.021-0.276-0.021-0.064 0.106-0.127h0.382l0.127-0.085 0.149-0.043 0.085-0.149 0.043-0.106 0.043-0.17v-0.106l-0.043-0.149 0.064-0.064 0.085-0.106 0.021-0.106-0.085-0.043v-0.043l0.085-0.064 0.021-0.064 0.043 0.021 0.085 0.021 0.043 0.043h0.276l0.043-0.043h0.361l0.106-0.043v-0.106h0.127l0.043-0.064 0.106-0.043 0.043-0.043h0.255l0.043-0.043 0.106 0.085 0.085 0.043 0.064-0.043 0.085 0.021-0.043 0.127v0.191l0.043 0.043-0.021 0.106 0.064 0.021 0.085 0.106-0.17 0.043v0.085l0.043 0.127-0.043 0.064-0.043 0.149-0.106 0.085-0.043 0.319 0.064 0.043v0.234l0.127 0.17v0.127l-0.043 0.064-0.043 0.149 0.085 0.106-0.085 0.255-0.149 0.149-0.064 0.085 0.064 0.234 0.043 0.212 0.064 0.212 0.043 0.106v0.319l-0.043 0.064-0.106 0.085v0.212l0.043 0.064v0.191l-0.043 0.17-0.085 0.064 0.085 0.085v0.127l-0.064 0.043v0.34l0.064 0.064-0.064 0.043v0.149l0.106 0.127-0.043 0.064v0.212l-0.064 0.212 0.127 0.106 0.064 0.149 0.085 0.149 0.106 0.149z"></path>
<path d="M13.769 14.843v0.095h-0.127l-0.149 0.085-0.043 0.149-0.127-0.085h-0.17l-0.106 0.106-0.064-0.043-0.149-0.021v-0.064l-0.149-0.021-0.085 0.064-0.106 0.085-0.064-0.064-0.043-0.064-0.043-0.127-0.255 0.064 0.043 0.106-0.085 0.106-0.064 0.043v-0.106l-0.106-0.021-0.085-0.043-0.021 0.276-0.043 0.17h-0.064l-0.085-0.043-0.021-0.106-0.085-0.191-0.234-0.021-0.064-0.085-0.106-0.149-0.085-0.149-0.064-0.149-0.127-0.106 0.064-0.212v-0.212l0.043-0.064-0.106-0.127v-0.149l0.064-0.043-0.064-0.064v-0.34l0.064-0.043v-0.127l-0.085-0.085 0.085-0.064 0.043-0.17v-0.191l-0.043-0.064v-0.212l0.106-0.085 0.043-0.064v-0.319l-0.043-0.106-0.064-0.212-0.043-0.212-0.064-0.234 0.064-0.085 0.149-0.149 0.085-0.255-0.085-0.106 0.043-0.149 0.043-0.064v-0.127l-0.127-0.17v-0.234l-0.064-0.043 0.043-0.319 0.106-0.085 0.043-0.149 0.043-0.064-0.043-0.127v-0.085l0.17-0.043-0.085-0.106-0.064-0.021 0.021-0.106h0.043l0.127-0.021 0.085-0.064 0.064-0.085 0.127-0.149h0.297v-0.064l0.064-0.043 0.064-0.085v-0.064h0.106l0.085-0.106v-0.106l0.17-0.085 0.064-0.085v-0.085l0.085-0.021h0.106l0.021-0.128v-0.064h0.085l0.127-0.043v-0.043l0.085-0.021 0.085 0.043h0.106l0.064-0.043 0.043-0.064h0.106l0.064-0.064 0.085-0.064 0.085 0.128 0.064 0.128 0.127 0.064 0.064 0.085 0.021 0.106-0.043 0.085-0.085 0.064 0.043 0.128 0.085 0.085 0.085 0.17 0.17 0.085 0.043 0.106 0.255 0.234 0.085-0.043 0.021-0.043h0.085l0.064 0.064v0.106l0.043 0.064v0.191l0.043 0.064v0.404l-0.106 0.021-0.149 0.064v0.064l0.064 0.085-0.064 0.149-0.085 0.064 0.085 0.106 0.106 0.149 0.064 0.149 0.106 0.043 0.17 0.085 0.085 0.064 0.106 0.127v0.085l-0.127 0.043-0.043 0.043 0.043 0.149 0.064 0.127-0.043 0.085-0.043 0.127 0.021 0.212-0.085 0.021-0.085 0.064 0.043 0.127 0.085 0.127 0.085 0.149v0.17l0.085 0.085v0.127l0.043 0.085-0.043 0.021v0.149l0.043 0.127-0.021 0.212-0.064 0.021-0.149 0.064-0.085 0.043-0.127-0.043-0.106-0.085h-0.064l-0.127 0.021-0.021 0.085h-0.212l-0.043 0.021-0.043 0.149-0.149 0.106-0.043 0.085-0.021 0.68-0.021 0.085 0.043 0.064-0.021 0.149-0.021 0.064-0.021 0.297-0.085 0.16z"></path>
<path d="M22.162 4.441l-0.043 0.17-0.064 0.234 0.064 0.064 0.106 0.17v0.552l0.128 0.128v0.276l0.276 0.212 0.021 0.085-0.085 0.128 0.043 0.234h0.234l0.064 0.064 0.234-0.021 0.17-0.128h0.17l0.043 0.128 0.128 0.106 0.128 0.212v0.106h-0.064v0.106l0.212 0.212v0.128l0.106 0.085 0.064-0.085h0.128l0.128 0.085 0.128-0.085h0.404l0.064-0.128 0.085-0.064 0.17-0.043 0.085-0.149 0.106-0.064 0.128 0.106v0.106l0.17 0.106h0.17v0.128h-0.085l-0.085 0.085 0.043 0.128 0.234 0.149v0.085l0.128 0.149 0.234 0.043 0.128-0.085 0.128-0.106 0.085-0.085 0.085 0.085h0.085l0.085-0.085 0.128 0.149h0.128l0.106 0.043 0.043-0.043h0.128l0.128 0.043 0.106-0.106 0.212-0.085 0.191-0.106 0.043-0.085 0.085-0.043 0.17-0.191 0.043-0.097v-0.073l0.064-0.106 0.021-0.234-0.043-0.043-0.085-0.064v-0.106l0.043-0.085 0.149-0.021 0.064-0.085 0.021-0.064-0.064-0.117-0.106-0.010-0.021-0.106 0.064-0.021 0.043-0.149 0.021-0.106 0.106-0.085v-0.234l-0.043-0.064v-0.255l-0.212 0.021-0.064-0.064-0.043-0.085-0.128-0.021-0.043-0.064-0.085-0.043v-0.276l0.064-0.021 0.064-0.128 0.128-0.212v-0.149l-0.043-0.085-0.085-0.085 0.043-0.17 0.085-0.085 0.106-0.064 0.021-0.064 0.021-0.127 0.043-0.085-0.021-0.297 0.043-0.106v-0.064l-0.064-0.042-0.064-0.085 0.085-0.042-0.043-0.127-0.064-0.085-0.128-0.064v-0.382l0.043-0.085 0.085-0.064 0.021-0.106 0.085-0.085h0.085l0.106-0.085 0.17-0.085 0.085-0.064v-0.276h0.064l0.085-0.085 0.085-0.042v-0.085l-0.149-0.106-0.085-0.106-0.149-0.106-0.043-0.085 0.043-0.085 0.085-0.085v-0.234l0.085-0.021v-0.212h-0.319l-0.043-0.043h-0.085l-0.489 0.34-0.149 0.191h-0.064l-0.17-0.128-0.276 0.064-0.382-0.212h-0.51l-0.128 0.765-0.382 0.361-0.276-0.064-0.255 0.021-0.128-0.191h-1.296l-0.255 0.212-0.212-0.17-0.467 0.106-0.043 0.234-0.361 0.297-0.043 0.149-0.319 0.404-0.043 0.234-0.191 0.212 0.043 0.212-0.128 0.085 0.021 0.234 0.149 0.17-0.021 0.297 0.128 0.149v0.234l-0.128 0.064z"></path>
<path d="M15.15 3.676l-0.149-0.085-0.021-0.021-0.149 0.085-0.043 0.127v0.149h-0.064l-0.127-0.149-0.085 0.064 0.043 0.106v0.17l-0.17 0.212v0.085l0.064 0.085v0.085l-0.149 0.106v0.085l-0.106 0.085-0.043 0.149v0.085l-0.085 0.064-0.043 0.106-0.106 0.043-0.064 0.043h-0.085l0.021 0.106 0.043 0.043v0.276l0.043 0.021v0.128l-0.043 0.106v0.276l0.021 0.043 0.021 0.064 0.043 0.043v0.149l-0.085 0.043-0.021 0.106-0.043 0.128-0.043 0.064-0.064 0.149h-0.17l0.085 0.128 0.064 0.128 0.127 0.064 0.064 0.085 0.021 0.106-0.043 0.085-0.085 0.064 0.043 0.128 0.085 0.085 0.085 0.17 0.17 0.085 0.043 0.106 0.255 0.234 0.085-0.043 0.021-0.043h0.085l0.064 0.064v0.106l0.043 0.064v0.191l0.043 0.064v0.404l-0.106 0.021-0.149 0.064v0.064l0.064 0.085-0.064 0.149-0.085 0.064 0.085 0.106 0.106 0.149 0.064 0.149 0.106 0.043 0.17 0.085 0.085 0.064 0.106 0.127 0.085-0.043 0.106-0.043 0.191 0.043h0.212l0.17-0.106 0.234 0.064 0.149-0.064 0.191 0.064 0.255-0.106h0.17l0.17 0.064 0.149-0.064 0.064 0.043 0.128 0.021 0.17-0.149 0.128-0.212h0.191l0.106 0.149v0.191l0.085 0.064 0.021 0.212-0.106 0.085-0.064 0.106 0.17 0.297 0.149 0.106h0.51l0.149-0.043 0.149-0.127 0.297-0.085v-0.17l-0.128-0.021 0.021-0.106 0.021-0.127-0.043-0.064v-0.106h0.128l0.085-0.106 0.17-0.043 0.021-0.085 0.149-0.043 0.149-0.149 0.085-0.106v-0.149l-0.085-0.043-0.064-0.106-0.021-0.319h0.106l0.064-0.064v-0.191l-0.064-0.064v-0.382l-0.043-0.021-0.064-0.106-0.128-0.043v-0.085l-0.043-0.276h-0.212l-0.17-0.064v-0.064l0.085-0.085 0.085-0.043-0.021-0.128h-0.085v-0.064l0.149-0.106v-0.085l-0.085-0.106v-0.128l0.128-0.106 0.064-0.106 0.064-0.085-0.021-0.276-0.191-0.021-0.021-0.106 0.021-0.17v-0.149l-0.149-0.234-0.149-0.064v-0.043l0.128-0.064 0.149-0.085v-0.234l-0.149-0.234-0.297-0.085-0.021-0.128v-0.255l0.191-0.191 0.043-0.191-0.149-0.212-0.064-0.191-0.106-0.149v-0.255l-0.212-0.34h-0.255l-0.17 0.212-0.319 0.021-0.234 0.276-0.021 0.212h-0.234l-0.064-0.297-0.021-0.212-0.404-0.042-0.191 0.127-0.106-0.021-0.255-0.382h-0.064l-0.212 0.255h-0.404l-0.212-0.212-0.17 0.17 0.021 0.191-0.212 0.191z"></path>
<path d="M19.442 4.080l-0.382 0.043 0.149 0.212-0.043 0.191-0.191 0.191v0.255l0.021 0.128 0.297 0.085 0.149 0.234v0.234l-0.149 0.085-0.128 0.064v0.043l0.149 0.064 0.149 0.234v0.149l-0.021 0.17 0.021 0.106 0.191 0.021 0.021 0.276-0.064 0.085-0.064 0.106-0.128 0.106v0.128l0.085 0.106v0.085l-0.149 0.106v0.064h0.085l0.021 0.128-0.085 0.043-0.085 0.085v0.064l0.17 0.064h0.212l0.043 0.276v0.085l0.128 0.043 0.064 0.106 0.043 0.021v0.382l0.064 0.064v0.191l-0.064 0.064h-0.106l0.021 0.319 0.064 0.106 0.085 0.043v0.149l-0.085 0.106-0.149 0.149-0.149 0.043-0.021 0.085-0.17 0.043-0.085 0.106h-0.128v0.106l0.043 0.064-0.021 0.127-0.021 0.106 0.128 0.021v0.17h0.021l0.106 0.064-0.043 0.085-0.064 0.106 0.021 0.106 0.128 0.106 0.043 0.064-0.085 0.127 0.043 0.064 0.064 0.085-0.021 0.127-0.149 0.085-0.021 0.149 0.085 0.043 0.085 0.149 0.128 0.085 0.212 0.234 0.043 0.191 0.17 0.064h0.128l0.106-0.064 0.128-0.149v-0.127h0.212l0.17-0.085 0.234-0.191 0.021 0.127 0.085 0.064 0.234-0.021 0.128 0.106 0.106 0.064 0.064-0.212 0.085-0.17h0.425l0.106-0.106 0.191 0.149h0.106l0.085-0.085 0.319 0.021 0.043-0.085v-0.127l0.128-0.191 0.191-0.17 0.085-0.085 0.128-0.191 0.064-0.106-0.17-0.106 0.106-0.085 0.106-0.064-0.043-0.276 0.043-0.149v-0.106l0.021-0.064 0.021-0.234 0.319-0.191 0.191-0.021 0.149 0.085 0.404 0.106h0.128l0.085-0.085 0.085-0.149 0.128-0.106 0.106-0.149v-0.127l0.128-0.064v-0.064l-0.085-0.106v-0.127l0.128-0.149 0.149-0.064 0.064-0.064v-0.085l-0.043-0.064v-0.106l0.064-0.064h0.17l0.043-0.106 0.085-0.17 0.021-0.149-0.128-0.149v-0.085l-0.234-0.149-0.043-0.128 0.085-0.085h0.085v-0.128h-0.17l-0.17-0.106v-0.106l-0.128-0.106-0.106 0.064-0.085 0.149-0.17 0.043-0.085 0.064-0.064 0.128h-0.404l-0.128 0.085-0.128-0.085h-0.128l-0.064 0.085-0.106-0.085v-0.128l-0.212-0.212v-0.106h0.064v-0.106l-0.128-0.212-0.128-0.106-0.043-0.128h-0.17l-0.17 0.128-0.234 0.021-0.064-0.064h-0.234l-0.043-0.234 0.085-0.128-0.021-0.085-0.276-0.212v-0.276l-0.128-0.128v-0.552l-0.106-0.17-0.064-0.064 0.064-0.234h-0.128l-0.085-0.085h-0.212l-0.064-0.191-0.043-0.255-0.361-0.297h-0.616l-0.212 0.149h-0.255l-0.085-0.042v-0.191l-0.234 0.042-0.085 0.106-0.17 0.085-0.128 0.149z"></path>
<path d="M19.91 12.685l0.043 0.191-0.021 0.191-0.106 0.149-0.128 0.064-0.106 0.106 0.064 0.127 0.149 0.064v0.064l-0.128 0.106 0.064 0.064 0.085 0.043 0.106 0.064-0.021 0.276h0.064l0.085 0.085v0.255h0.085l0.149 0.043 0.064 0.085-0.149 0.106 0.149 0.043 0.021 0.106 0.128 0.064 0.149 0.191 0.043 0.276-0.085 0.106v0.127l0.234 0.043-0.043 0.085-0.128 0.149-0.17 0.085-0.085-0.127-0.064-0.043-0.106 0.064-0.191 0.191 0.149 0.17 0.212 0.085 0.191 0.17 0.085 0.149-0.128 0.043h-0.149v0.043l-0.128 0.064-0.149-0.106-0.149 0.043h-0.128l-0.106 0.064 0.085 0.17v0.128l-0.149 0.085h-0.319l-0.149-0.085-0.128-0.043-0.17 0.128-0.212-0.043h-0.191l-0.191-0.17-0.234-0.043v0.255l-0.212 0.191-0.191 0.17-0.212-0.531-0.467-0.149-0.297 0.064-0.043 0.128-0.149 0.128-0.064-0.085v-0.17h-0.191l-0.043-0.064 0.128-0.17-0.043-0.149h-0.17l-0.128 0.106h-0.085l-0.064-0.149-0.255-0.043-0.043-0.234-0.276-0.064-0.149-0.128-0.255-0.319-0.149-0.085h-0.276l-0.106-0.064h-0.297l-0.021-0.127v-0.149l0.021-0.106-0.191-0.255-0.106-0.043v-0.095l0.085-0.16 0.021-0.297 0.021-0.064 0.021-0.149-0.043-0.064 0.021-0.085 0.021-0.68 0.043-0.085 0.149-0.106 0.043-0.149 0.043-0.021h0.212l0.021-0.085 0.127-0.021h0.064l0.106 0.085 0.127 0.043 0.085-0.043 0.149-0.064 0.064-0.021 0.021-0.212-0.043-0.127v-0.149l0.043-0.021-0.043-0.085v-0.127l-0.085-0.085v-0.17l-0.085-0.149-0.085-0.127-0.043-0.127 0.085-0.064 0.085-0.021-0.021-0.212 0.043-0.127 0.043-0.085-0.064-0.127-0.043-0.149 0.043-0.043 0.127-0.043v-0.085l0.085-0.043 0.106-0.043 0.191 0.043h0.212l0.17-0.106 0.234 0.064 0.149-0.064 0.191 0.064 0.255-0.106h0.17l0.17 0.064 0.149-0.064 0.064 0.043 0.128 0.021 0.17-0.149 0.128-0.212h0.191l0.106 0.149v0.191l0.085 0.064 0.021 0.212-0.106 0.085-0.064 0.106 0.17 0.297 0.149 0.106h0.51l0.149-0.043 0.149-0.127 0.297-0.085 0.128 0.064-0.043 0.085-0.064 0.106 0.021 0.106 0.128 0.106 0.043 0.064-0.085 0.127 0.043 0.064 0.064 0.085-0.021 0.127-0.149 0.085-0.021 0.149 0.085 0.043 0.085 0.149 0.128 0.085 0.212 0.234z"></path>
<path d="M17.891 17.424l-0.191 0.17 0.064 0.085 0.106 0.106h0.234l0.064-0.106 0.212 0.021 0.106 0.085v0.17l0.128 0.128-0.128 0.276 0.128 0.17-0.085 0.191v0.361l-0.149 0.191-0.043 0.191v0.149l0.128 0.128 0.212 0.043 0.234 0.319 0.085 0.234 0.149 0.043 0.17-0.17 0.128 0.021 0.085 0.064v0.319l-0.128 0.085 0.064 0.319-0.128 0.128v0.085h0.191l0.064 0.128-0.106 0.34 0.085 0.17 0.149 0.064 0.191 0.149 0.149 0.043h0.234l0.17 0.234v0.722l0.043 0.149-0.043 0.128-0.128 0.085 0.064 0.149 0.297 0.17 0.149 0.234-0.043 0.085h-0.446l-0.064 0.085h-0.212v-0.191l-0.021-0.064-0.149-0.128-0.106-0.021-0.128 0.149-0.021 0.128-0.149 0.043-0.106-0.128-0.17-0.021-0.064-0.276h-0.106l-0.128 0.17h-0.191l-0.149 0.191h-0.128l-0.021-0.574h-0.128l-0.191 0.085-0.404 0.255-0.043 0.297 0.043 0.128v0.276l0.234 0.297v0.128l-0.191 0.17-0.043 0.17 0.043 0.191v0.128l-0.234 0.064-0.191-0.021-0.212 0.191v0.319l-0.212 0.297h-0.234l-0.064 0.149-0.128 0.128h-0.085v0.212l0.128 0.149v0.191l-0.128 0.212-0.255 0.043-0.212-0.085-0.319 0.085-0.043 0.128 0.17 0.149 0.149 0.361 0.234 0.234 0.361 0.085 0.191 0.128 0.382 0.043 0.106-0.043-0.021-0.297 0.128-0.149h0.106v0.212l0.128 0.106 0.212-0.106 0.297-0.276 0.425-0.17 0.531-0.085 0.574 0.361 0.085 0.149v0.361h0.106l0.149-0.255 0.043-0.404-0.106-0.255-0.276-0.021-0.021-0.128 0.043-0.17v-0.106l-0.085-0.085-0.021-0.489 0.064-0.234h0.128l0.043 0.149 0.043 0.234 0.17 0.17h0.064l0.212-0.149-0.043-0.085-0.043-0.212 0.191-0.021 0.064-0.17 0.234-0.234h0.106l0.149 0.085h0.085v-0.212l0.106-0.043 0.085 0.128 0.085-0.021 0.17-0.255 0.404-0.446v-0.276l-0.128-0.17-0.021-0.149-0.297-0.17-0.361-0.297-0.043-0.234 0.106-0.17 0.17-0.085 0.128 0.021 0.043 0.191 0.17 0.149v0.212l0.234 0.17 0.043 0.212 0.212 0.149 0.212-0.106 0.255-0.361v-0.276l0.255-0.297v-0.489l0.085-0.17h0.319l0.382-0.149 0.255-0.085v-0.446l0.064-0.106v-0.212l-0.276-0.234-0.149-0.255 0.064-0.085 0.255-0.043h0.212l0.064-0.106v-0.106l0.085-0.128v-0.17l-0.085-0.106v-0.106h-0.17l-0.149-0.064-0.085-0.106 0.085-0.106 0.085-0.149-0.085-0.064h-0.212v0.064h-0.106l-0.106-0.064h-0.255l-0.106-0.319v-0.531l0.064-0.149-0.149-0.191-0.106-0.128-0.085-0.149-0.106 0.149-0.128-0.043-0.128-0.106-0.128 0.043-0.085 0.064h-0.191l-0.043-0.106h-0.106v-0.446l-0.085-0.043v-0.106l-0.149-0.149-0.043-0.191-0.043-0.34-0.17-0.106v-0.191l-0.043-0.106v-0.064l0.297-0.085-0.085-0.17h-0.531l-0.149-0.064-0.043-0.106v-0.149l-0.128 0.043h-0.149v0.043l-0.128 0.064-0.149-0.106-0.149 0.043h-0.128l-0.106 0.064 0.085 0.17v0.128l-0.149 0.085h-0.319l-0.149-0.085-0.128-0.043-0.17 0.128-0.212-0.043h-0.191l-0.191-0.17-0.234-0.043v0.255l-0.212 0.191z"></path>
<path d="M23.862 22.523l-0.064 0.106v0.446l0.128-0.021 0.212 0.106 0.106 0.021 0.17-0.085 0.234-0.255 0.064-0.149-0.085-0.17 0.085-0.043 0.212-0.085-0.064 0.17-0.064 0.234v0.297l0.128 0.043 0.149-0.191h0.17l0.064 0.064 0.234 0.064 0.212-0.064 0.106-0.128v-0.255l-0.106-0.149 0.064-0.106 0.128 0.043v0.149l0.064 0.064 0.255-0.064h0.276l0.255-0.255h0.212l0.149-0.149h0.255l0.234-0.149h0.276l0.064 0.149 0.34 0.064 0.17-0.149-0.17-0.191h0.297l0.149-0.17-0.064-0.149h0.149l0.106-0.191-0.255-0.212-0.212-0.085 0.128-0.234 0.191-0.043 0.149-0.128 0.106-0.149-0.043-0.17v-0.34l-0.128-0.149-0.085-0.255 0.149 0.085 0.064-0.128-0.064-0.191v-0.212l-0.191-0.128-0.064-0.128-0.085-0.234 0.085-0.106h0.191l-0.085-0.17v-0.382l0.043-0.128-0.149-0.149v-0.191l0.064-0.17-0.149-0.085h-0.128l-0.34 0.34-0.085-0.085h-0.191l-0.106 0.128v0.064l0.064 0.085-0.064 0.128v0.17l-0.043 0.149-0.149 0.085-0.276 0.043-0.319-0.128h-0.361l-0.255 0.297-0.17-0.106-0.106-0.106h-0.489l-0.085-0.234 0.085-0.106v-0.191l-0.212-0.085-0.17-0.191v-0.106l0.106-0.064v-0.234h-0.212l-0.191-0.043-0.149 0.191-0.149 0.085v-0.149l0.043-0.085-0.128-0.106-0.128 0.106-0.128-0.043h-0.319l-0.106-0.212-0.106-0.17h-0.467l-0.106 0.17-0.149 0.064-0.191-0.064-0.064 0.064-0.128-0.106h-0.234l-0.17 0.106h-0.595l-0.064-0.064-0.17 0.128 0.085 0.17-0.297 0.085v0.064l0.043 0.106v0.191l0.17 0.106 0.043 0.34 0.043 0.191 0.149 0.149v0.106l0.085 0.043v0.446h0.106l0.043 0.106h0.191l0.085-0.064 0.128-0.043 0.128 0.106 0.128 0.043 0.106-0.149 0.085 0.149 0.106 0.128 0.149 0.191-0.064 0.149v0.531l0.106 0.319h0.255l0.106 0.064h0.106v-0.064h0.212l0.085 0.064-0.085 0.149-0.085 0.106 0.085 0.106 0.149 0.064h0.17v0.106l0.085 0.106v0.17l-0.085 0.128v0.106l-0.064 0.106h-0.212l-0.255 0.043-0.064 0.085 0.149 0.255 0.276 0.234v0.212z"></path>
<path d="M28.622 17.296l0.149 0.085 0.128-0.085 0.212-0.106 0.255-0.361 0.191-0.106 0.234-0.149 0.17-0.149 0.043-0.17-0.128-0.191v-0.212l-0.085-0.319v-0.212l0.212-0.085 0.297-0.191 0.276-0.17 0.064-0.149-0.255-0.106-0.276-0.127-0.106-0.191 0.297-0.064 0.276 0.064 0.234-0.106 0.106-0.127v-0.17l-0.191-0.17-0.276 0.064-0.191 0.106-0.149-0.085h-0.276l-0.043-0.085-0.34-0.021-0.128-0.212 0.043-0.043v-0.149l-0.106-0.085-0.404-0.17-0.51-0.085-0.404 0.255 0.149 0.234-0.064 0.085-0.574 0.255h-0.191l-0.276-0.467h-0.404l-0.34 0.382v0.191l-0.043 0.064-0.276-0.106-0.234 0.255h-0.128l-0.17-0.319h-0.276l-0.064 0.106h-0.382v0.297l-0.319 0.425h-0.106l-0.191-0.043h-0.234l-0.234 0.127-0.191-0.085-0.595-0.043-0.191-0.021-0.234 0.191-0.234 0.276v0.361h-0.149l-0.106-0.085h-0.128l-0.106 0.191h-0.106l-0.234 0.191-0.149-0.085-0.319 0.127-0.043 0.085-0.128 0.149-0.17 0.085-0.085-0.127-0.064-0.043-0.106 0.064-0.191 0.191 0.149 0.17 0.212 0.085 0.191 0.17 0.085 0.149v0.149l0.043 0.106 0.149 0.064h0.531l0.17-0.128 0.064 0.064h0.595l0.17-0.106h0.234l0.128 0.106 0.064-0.064 0.191 0.064 0.149-0.064 0.106-0.17h0.467l0.106 0.17 0.106 0.212h0.319l0.128 0.043 0.128-0.106 0.128 0.106-0.043 0.085v0.149l0.149-0.085 0.149-0.191 0.191 0.043h0.212v0.234l-0.106 0.064v0.106l0.17 0.191 0.212 0.085v0.191l-0.085 0.106 0.085 0.234h0.489l0.106 0.106 0.17 0.106 0.255-0.297h0.361l0.319 0.128 0.276-0.043 0.149-0.085 0.043-0.149v-0.17l0.064-0.128-0.064-0.085v-0.064l0.106-0.128h0.191l0.085 0.085 0.34-0.34h0.128z"></path>
<path d="M20.845 15.724l-0.234-0.043v-0.127l0.085-0.106-0.043-0.276-0.149-0.191-0.128-0.064-0.021-0.106-0.149-0.043 0.149-0.106-0.064-0.085-0.149-0.043h-0.085v-0.255l-0.085-0.085h-0.064l0.021-0.276-0.106-0.064-0.085-0.043-0.064-0.064 0.128-0.106v-0.064l-0.149-0.064-0.064-0.127 0.106-0.106 0.128-0.064 0.106-0.149 0.021-0.191 0.17 0.064h0.128l0.106-0.064 0.128-0.149v-0.127h0.212l0.17-0.085 0.234-0.191 0.021 0.127 0.085 0.064 0.234-0.021 0.128 0.106 0.106 0.064 0.064-0.212 0.085-0.17h0.425l0.106-0.106 0.191 0.149h0.106l0.085-0.085 0.319 0.021 0.043-0.085v-0.127l0.128-0.191 0.191-0.17 0.085-0.085 0.128-0.191 0.064-0.106-0.17-0.106 0.106-0.085 0.106-0.064-0.043-0.276 0.043-0.149v-0.106l0.021-0.064 0.021-0.234 0.319-0.191 0.191-0.021 0.149 0.085 0.404 0.106h0.128l0.085-0.085 0.085-0.149 0.128-0.106 0.106-0.149v-0.127l0.128-0.064v-0.064l-0.085-0.106v-0.127l0.128-0.149 0.149-0.064 0.064-0.064v-0.085l-0.043-0.064v-0.106l0.064-0.064h0.17l0.106 0.106 0.064 0.106 0.234 0.106 0.064 0.149v0.255l0.212 0.106 0.276 0.276v0.127l-0.064 0.149-0.085 0.106 0.106 0.149 0.17 0.17 0.234 0.043 0.043 0.297 0.149 0.064 0.234 0.212 0.106 0.234-0.106 0.276 0.106 0.212 0.425 0.191 0.149 0.255 0.361 0.489 0.191 0.255-0.064 0.085-0.51-0.085-0.404 0.255 0.149 0.234-0.064 0.085-0.574 0.255h-0.191l-0.276-0.467h-0.404l-0.34 0.382v0.191l-0.043 0.064-0.276-0.106-0.234 0.255h-0.128l-0.17-0.319h-0.276l-0.064 0.106h-0.382v0.297l-0.319 0.425h-0.106l-0.191-0.043h-0.234l-0.234 0.127-0.191-0.085-0.595-0.043-0.191-0.021-0.234 0.191-0.234 0.276v0.361h-0.149l-0.106-0.085h-0.128l-0.106 0.191h-0.106l-0.234 0.191-0.149-0.085-0.319 0.127z"></path>
<path d="M26.050 8.733l-0.106-0.106 0.043-0.106 0.085-0.17 0.021-0.149 0.234 0.043 0.128-0.085 0.128-0.106 0.085-0.085 0.085 0.085h0.085l0.085-0.085 0.128 0.149h0.128l0.106 0.043 0.043-0.043h0.128l0.128 0.043 0.106-0.106 0.212-0.085 0.191-0.106 0.043-0.085 0.085-0.043 0.17-0.191 0.043-0.097h0.297l0.043 0.033 0.149-0.128 0.106 0.021 0.128 0.106 0.085 0.064 0.276-0.021 0.106-0.043h0.106l0.34 0.149 0.128-0.085 0.191-0.021 0.064-0.149h0.191l0.255 0.191 0.128-0.085 0.149-0.17 0.212-0.064 0.064 0.043 0.021 0.34 0.085 0.128 0.149 0.106 0.085 0.106v0.064l-0.043 0.064v0.106l0.191 0.127 0.021 0.127 0.191 0.106-0.021 0.127-0.085 0.064-0.042 0.064 0.042 0.064h0.191l0.042-0.064h0.085v0.064l0.255-0.021 0.021-0.064 0.064-0.043 0.106-0.043 0.106-0.106 0.085 0.043 0.064 0.043 0.127 0.021v0.276h0.042v0.085l-0.085 0.021-0.149 0.212 0.042 0.064 0.064 0.085v0.17l0.191 0.064 0.255 0.043 0.085 0.127 0.106 0.043 0.042-0.043 0.127 0.021 0.064 0.064v0.276l0.106 0.127 0.17 0.191 0.17-0.021 0.149-0.064 0.042 0.064 0.021 0.064-0.064 0.064 0.021 0.085 0.085 0.106 0.106 0.085-0.021 0.064h-0.191l0.021 0.043 0.17 0.127-0.085 0.106h-0.255v0.127l0.042 0.064v0.319l-0.212 0.191-0.085 0.085-0.319 0.021-0.17-0.106-0.106 0.127v0.085l0.064 0.064-0.127 0.085 0.127 0.127v0.149h-0.255l-0.319-0.021-0.191 0.17-0.255 0.149-0.255 0.064-0.149 0.085-0.149 0.255-0.17 0.297-0.106 0.127v0.085l0.106 0.085v0.234l-0.043 0.212-0.212-0.127-0.255-0.149-0.255-0.043-0.212 0.043v-0.17l-0.191-0.17-0.276 0.064-0.191 0.106-0.149-0.085h-0.276l-0.043-0.085-0.34-0.021-0.128-0.212 0.043-0.043v-0.149l-0.106-0.085-0.404-0.17 0.064-0.085-0.191-0.255-0.361-0.489-0.149-0.255-0.425-0.191-0.106-0.212 0.106-0.276-0.106-0.234-0.234-0.212-0.149-0.064-0.043-0.297-0.234-0.043-0.17-0.17-0.106-0.149 0.085-0.106 0.064-0.149v-0.127l-0.276-0.276-0.212-0.106v-0.255l-0.064-0.149-0.234-0.106-0.064-0.106z"></path>
<path d="M28.728 7.446h-0.297v-0.073l0.064-0.106 0.021-0.234-0.043-0.043-0.085-0.064v-0.106l0.043-0.085 0.149-0.021 0.064-0.085 0.021-0.064-0.064-0.117-0.106-0.010-0.021-0.106 0.064-0.021 0.043-0.149 0.021-0.106 0.106-0.085v-0.234l-0.043-0.064v-0.255l-0.212 0.021-0.064-0.064-0.043-0.085-0.128-0.021-0.043-0.064-0.085-0.043v-0.276l0.064-0.021 0.064-0.128 0.128-0.212v-0.149l-0.043-0.085-0.085-0.085 0.043-0.17 0.085-0.085 0.106-0.064 0.021-0.064 0.021-0.127 0.043-0.085-0.021-0.297 0.043-0.106v-0.064l-0.064-0.042-0.064-0.085 0.085-0.042-0.043-0.127-0.064-0.085-0.128-0.064v-0.382l0.043-0.085 0.085-0.064 0.021-0.106 0.085-0.085h0.085l0.106-0.085 0.17-0.085 0.085-0.064v-0.276h0.064l0.085-0.085 0.085-0.042v-0.085l-0.149-0.106-0.085-0.106-0.149-0.106-0.043-0.085 0.043-0.085 0.085-0.085v-0.234l0.085-0.021v-0.212h0.212l0.085 0.149h0.106l0.404-0.234 0.234 0.021 0.106 0.127 0.17 0.34 0.191 0.064 0.191 0.212 0.021 0.489 0.297 0.446 0.255 0.191 0.255 0.255 0.085 0.276-0.51 0.17-0.212 0.085v0.149l0.149 0.234 0.191 0.191-0.085 0.382v0.212l0.17 0.021 0.064 0.064-0.149 0.361 0.191 0.106 0.191-0.106 0.276 0.064 0.425 0.043 0.106 0.149h0.319l0.17-0.085 0.297-0.064 0.276 0.064v0.361l0.149 0.17 0.297-0.085 0.149 0.128-0.106 0.276 0.17 0.255 0.106 0.361 0.149 0.17-0.042 0.361-0.085 0.106 0.127 0.467 0.149 0.191 0.255 0.085v0.149l0.191 0.276-0.191 0.106-0.212 0.064-0.191-0.17-0.064 0.085v0.085l-0.042 0.021-0.085-0.021-0.064 0.127h-0.106l-0.021 0.106-0.106 0.127-0.127-0.064h-0.106l-0.085 0.127-0.149 0.106-0.127 0.085-0.106 0.064-0.127-0.021-0.064-0.043-0.085-0.043-0.106 0.106-0.106 0.043-0.064 0.043-0.021 0.064-0.255 0.021v-0.064h-0.085l-0.042 0.064h-0.191l-0.042-0.064 0.042-0.064 0.085-0.064 0.021-0.127-0.191-0.106-0.021-0.127-0.191-0.127v-0.106l0.043-0.064v-0.064l-0.085-0.106-0.149-0.106-0.085-0.128-0.021-0.34-0.064-0.043-0.212 0.064-0.149 0.17-0.128 0.085-0.255-0.191h-0.191l-0.064 0.149-0.191 0.021-0.128 0.085-0.34-0.149h-0.106l-0.106 0.043-0.276 0.021-0.085-0.064-0.128-0.106-0.106-0.021-0.149 0.128-0.043-0.033z"></path>
<path d="M34.784 7.968l0.191-0.106 0.127 0.021 0.297-0.361 0.127-0.064h0.637l0.127 0.064 0.234 0.404 0.234 0.021 0.127-0.064 0.064-0.085 0.297 0.17 0.127 0.212 0.212-0.043 0.106-0.212 0.552-0.361h0.425l0.255-0.17 0.17-0.212h0.425l0.127 0.297 0.085 0.043h0.212v0.446l0.425 0.467 0.382 0.106 0.425 0.425 0.085 0.212-0.149 0.17 0.085 0.106-0.149 0.297 0.064 0.043 0.085 0.043v0.191l-0.106 0.276 0.085 0.255-0.064 0.149-0.106 0.17-0.042 0.212 0.042 0.234 0.106 0.085 0.064 0.085-0.021 0.064v0.106l0.34 0.319 0.127 0.191-0.064 0.106v0.127l0.064 0.085-0.042 0.085-0.085 0.149 0.085 0.106v0.085l-0.127 0.085-0.212 0.064h-0.34l-0.106-0.149-0.234-0.021-0.085-0.127v-0.106l0.064-0.021-0.064-0.149-0.064 0.043-0.042 0.106h-0.149l-0.149-0.064-0.064-0.127-0.17 0.043-0.042 0.149v0.127h-0.17v0.127l0.064 0.064v0.043l-0.297 0.255-0.042 0.17-0.106 0.106-0.234 0.085v0.149h-0.085l-0.149-0.085h-0.234l-0.042 0.149h-0.149l-0.127-0.106-0.064 0.043v0.149l0.127 0.149v0.361h-0.212v0.149h-0.234l-0.106-0.149-0.106-0.106-0.127 0.127v0.234h-0.106l-0.021 0.106-0.191 0.064-0.042-0.319-0.085-0.085v-0.021l-0.212-0.17-0.127-0.043 0.042-0.255-0.34-0.276h-0.127l0.021-0.212-0.021-0.191-0.17-0.085-0.17 0.043-0.17 0.191-0.425-0.149-0.255-0.085-0.276 0.085-0.319-0.297-0.319-0.234-0.191-0.149h-0.361v-0.149l-0.127-0.127 0.127-0.085-0.064-0.064v-0.085l0.106-0.127 0.17 0.106 0.319-0.021 0.085-0.085 0.212-0.191v-0.319l-0.042-0.064v-0.127h0.255l0.085-0.106-0.17-0.127-0.021-0.043h0.191l0.021-0.064-0.106-0.085-0.085-0.106-0.021-0.085 0.064-0.064-0.021-0.064-0.042-0.064-0.149 0.064-0.17 0.021-0.17-0.191-0.106-0.127v-0.276l-0.064-0.064-0.127-0.021-0.042 0.043-0.106-0.043-0.085-0.127-0.255-0.043-0.191-0.064v-0.17l-0.064-0.085-0.042-0.064 0.149-0.212 0.085-0.021v-0.085h-0.042v-0.276l0.106-0.064 0.127-0.085 0.149-0.106 0.085-0.127h0.106l0.127 0.064 0.106-0.127 0.021-0.106h0.106l0.064-0.127 0.085 0.021 0.042-0.021v-0.085l0.064-0.085 0.191 0.17 0.212-0.064z"></path>
<path d="M41.264 9.179l-0.085-0.212h0.255l0.17-0.17-0.106-0.34 0.106-0.085h0.255l0.106 0.127v0.085l0.404 0.127 0.149-0.085 0.276 0.043 0.191 0.234 0.361 0.064 0.17 0.149h0.212l0.255-0.255h0.17l0.17 0.297 0.17 0.17 0.106 0.043 0.255-0.149 0.149 0.149 0.212-0.043 0.149 0.382 0.404 0.106 0.085 0.085 0.17-0.043 0.297-0.255h0.319v0.064l-0.127 0.297v0.149l0.297 0.382 0.085 0.085-0.085 0.361v0.149l-0.17 0.255-0.191 0.191-0.085 0.234-0.17 0.064-0.212 0.149h-0.17l0.042 0.255 0.234 0.191 0.489 0.106 0.234-0.106 0.085 0.043v0.127l-0.127 0.234h-0.191l-0.34-0.064-0.149 0.191-0.106 0.255v0.212l0.042 0.255 0.425 0.127 0.085 0.043v0.234l0.234 0.34v0.149l-0.127 0.17v0.085l0.297-0.043 0.085 0.043-0.021 0.127-0.234 0.191 0.042 0.191-0.106 0.085v0.276l-0.127 0.212 0.127 0.319v0.17l-0.085 0.234-0.489 0.064-0.382 0.128-0.127-0.021-0.255-0.106-0.361 0.191-0.149-0.043-0.17-0.149-0.064-0.297-0.042-0.212h-0.531l-0.085-0.128 0.021-0.17-0.127-0.127-0.255 0.021-0.212-0.17v-0.149l-0.106-0.17-0.17 0.043-0.297-0.043v-0.17l0.127-0.085v-0.064l-0.127-0.191-0.127-0.127h-0.17l-0.042-0.212-0.106-0.043-0.042-0.34-0.106-0.149v-0.127l0.149-0.149-0.106-0.149v-0.255l-0.149-0.17v-0.149l-0.212-0.085h-0.319l-0.085-0.106 0.085-0.149 0.042-0.085-0.064-0.085v-0.127l0.064-0.106-0.127-0.191-0.34-0.319v-0.106l0.021-0.064-0.064-0.085-0.106-0.085-0.042-0.234 0.042-0.212 0.106-0.17 0.064-0.149-0.085-0.255 0.106-0.276v-0.191l-0.085-0.043-0.064-0.043 0.149-0.297-0.085-0.106 0.149-0.17z"></path>
<path d="M44.621 16.404l0.064 0.297-0.064 0.064-0.127 0.085h-0.212l-0.106 0.064-0.106 0.149v0.34l-0.042 0.17-0.255 0.106-0.17 0.17-0.255 0.021-0.319 0.106-0.127 0.106-0.064 0.212 0.042 0.382-0.042 0.234-0.149 0.191 0.064 0.17 0.234-0.021v0.17l-0.191 0.149-0.064 0.17 0.149 0.191-0.064 0.191-0.085 0.17-0.127-0.17h-0.722l-0.127 0.17-0.149 0.064-0.319 0.043-0.042-0.106-0.106-0.043-0.106 0.043-0.297 0.574-0.191 0.234-0.127-0.085h-0.17l-0.467 0.297-0.127-0.17 0.042-0.128 0.085-0.064h0.127v-0.085l-0.064-0.021v-0.106l0.106-0.085-0.106-0.043h-0.149l-0.042-0.043-0.064-0.149-0.149-0.17-0.106-0.043-0.149-0.149 0.064-0.085 0.085-0.128 0.064-0.064-0.149-0.021v-0.085l0.085-0.106 0.149 0.085h0.127l0.085-0.128 0.042-0.234h0.212l0.042-0.149 0.085-0.128-0.085-0.106-0.255-0.021-0.255-0.191-0.085-0.106-0.149-0.085-0.149 0.128-0.085-0.085-0.191-0.106-0.17-0.085v-0.17l-0.127-0.064-0.085-0.255-0.255-0.085v-0.276l-0.106-0.064-0.042-0.085 0.255-0.128-0.064-0.043v-0.128l-0.149-0.128v-0.297l0.106-0.085h0.319l0.149 0.17h0.234l0.021-0.17v-0.191l-0.064-0.17 0.064-0.021 0.064-0.149v-0.17l-0.106-0.191-0.234-0.085 0.021-0.489v-0.255l0.149-0.127-0.064-0.085-0.17-0.021-0.106 0.106-0.106-0.085-0.064-0.191v-0.361l-0.127-0.149v-0.149l0.064-0.043 0.127 0.106h0.149l0.042-0.149h0.234l0.149 0.085h0.085v-0.149l0.234-0.085 0.106-0.106 0.042-0.17 0.297-0.255v-0.043l-0.064-0.064v-0.127h0.17v-0.127l0.042-0.149 0.17-0.043 0.064 0.127 0.149 0.064h0.149l0.042-0.106 0.064-0.043 0.064 0.149-0.064 0.021v0.106l0.085 0.127 0.234 0.021 0.106 0.149h0.34l0.212-0.064 0.127-0.085v-0.085h0.319l0.212 0.085v0.149l0.149 0.17v0.255l0.106 0.149-0.149 0.149v0.127l0.106 0.149 0.042 0.34 0.106 0.043 0.042 0.212h0.17l0.127 0.127 0.127 0.191v0.064l-0.127 0.085v0.17l0.297 0.043 0.17-0.043 0.106 0.17v0.149l0.212 0.17 0.255-0.021 0.127 0.127-0.021 0.17 0.085 0.128h0.531l0.042 0.212z"></path>
<path d="M38.353 14.619l-0.064-0.191h-0.212v0.149h-0.234l-0.106-0.149-0.106-0.106-0.127 0.127v0.234h-0.106l-0.021 0.106-0.191 0.064-0.042-0.319-0.085-0.085v-0.021l-0.212-0.17-0.127-0.043 0.042-0.255-0.34-0.276h-0.127l0.021-0.212-0.021-0.191-0.17-0.085-0.17 0.043-0.17 0.191-0.425-0.149-0.255-0.085-0.276 0.085-0.319-0.297-0.319-0.234-0.191-0.149h-0.616l-0.319-0.021-0.191 0.17-0.255 0.149-0.255 0.064-0.149 0.085-0.149 0.255-0.17 0.297-0.106 0.127v0.085l0.106 0.085v0.234l-0.043 0.212-0.212-0.127-0.255-0.149-0.255-0.043-0.212 0.043-0.106 0.127-0.234 0.106-0.276-0.064-0.297 0.064 0.106 0.191 0.276 0.127 0.255 0.106-0.064 0.149-0.276 0.17-0.297 0.191-0.212 0.085v0.212l0.085 0.319v0.212l0.128 0.191-0.043 0.17-0.17 0.149-0.234 0.149-0.191 0.106-0.255 0.361-0.212 0.106-0.128 0.085-0.064 0.17v0.191l0.149 0.149-0.043 0.128v0.382l0.085 0.17h-0.191l-0.085 0.106 0.085 0.234 0.064 0.128 0.191 0.128h0.149l0.085 0.106h0.297l0.128 0.234 0.128-0.106 0.191-0.043 0.128-0.191h0.106l0.128 0.149 0.212 0.128h0.276l0.319-0.085h0.637l0.276 0.149 0.404-0.149 0.404-0.191h0.744l0.319-0.128-0.106-0.276 0.064-0.149v-0.361l-0.149-0.106 0.085-0.128-0.085-0.128-0.212-0.128-0.064-0.149 0.149-0.085h0.127l0.042-0.106-0.17-0.17-0.149-0.085v-0.085h0.106v-0.085l-0.042-0.106v-0.128h0.042l0.085 0.106 0.17 0.021 0.191-0.085v-0.064h0.467l0.085-0.085 0.234 0.021 0.127 0.128 0.17-0.064 0.17 0.021v0.043l0.234-0.085 0.17-0.064 0.255 0.021 0.234 0.128 0.17-0.128h0.17l0.042 0.276h0.106l0.042-0.064 0.064 0.064-0.064 0.128 0.106 0.17 0.17 0.085v0.128l-0.17 0.064 0.042 0.128 0.191 0.064 0.064-0.106 0.042-0.085h0.106l0.042 0.128 0.127 0.064 0.149-0.021 0.064-0.085h0.17l0.106 0.043 0.127-0.106 0.042-0.191 0.255-0.128-0.064-0.043v-0.128l-0.149-0.128v-0.297l0.106-0.085h0.319l0.149 0.17h0.234l0.021-0.17v-0.191l-0.064-0.17 0.064-0.021 0.064-0.149v-0.17l-0.106-0.191-0.234-0.085 0.021-0.489v-0.255l0.149-0.127-0.064-0.085-0.17-0.021-0.106 0.106-0.106-0.085z"></path>
<path d="M32.425 19.357l-0.404 0.149v0.361l0.17 0.34h0.297v-0.064l0.064-0.085h0.127l0.191 0.191-0.106 0.234 0.064 0.276 0.191 0.234v0.297l0.064 0.149 0.234 0.043 0.127 0.106 0.234 0.191v0.149l-0.085 0.043-0.085 0.276-0.064 0.149h-0.127l0.042 0.17 0.234 0.043v0.149l-0.085 0.128 0.17 0.128 0.191 0.043 0.064 0.17 0.276 0.064 0.212 0.043v0.085l0.085 0.467 0.085 0.17 0.361-0.361-0.021-0.234-0.106-0.128v-0.085l0.106-0.021 0.17 0.255 0.042 0.255 0.085 0.085h0.106l0.149-0.255 0.255-0.212 0.34-0.212 0.212-0.34 0.297-0.234 0.361-0.17 0.297-0.064 0.34-0.043 0.149 0.17h0.085l0.106-0.255 0.276-0.212 0.34-0.106 0.17-0.085h0.17l0.234 0.149h0.127l0.106-0.128 0.021-0.17 0.404-0.34-0.127-0.17 0.042-0.128 0.085-0.064h0.127v-0.085l-0.064-0.021v-0.106l0.106-0.085-0.106-0.043h-0.149l-0.042-0.043-0.064-0.149-0.149-0.17-0.106-0.043-0.149-0.149 0.064-0.085 0.085-0.128 0.064-0.064-0.149-0.021v-0.085l0.085-0.106 0.149 0.085h0.127l0.085-0.128 0.042-0.234h0.212l0.042-0.149 0.085-0.128-0.085-0.106-0.255-0.021-0.255-0.191-0.085-0.106-0.149-0.085-0.149 0.128-0.085-0.085-0.191-0.106-0.17-0.085v-0.17l-0.127-0.064-0.085-0.255-0.255-0.085v-0.276l-0.106-0.064-0.042-0.085-0.042 0.191-0.127 0.106-0.106-0.043h-0.17l-0.064 0.085-0.149 0.021-0.127-0.064-0.042-0.128h-0.106l-0.042 0.085-0.064 0.106-0.191-0.064-0.042-0.128 0.17-0.064v-0.128l-0.17-0.085-0.106-0.17 0.064-0.128-0.064-0.064-0.042 0.064h-0.106l-0.042-0.276h-0.17l-0.17 0.128-0.234-0.128-0.255-0.021-0.17 0.064-0.234 0.085v-0.043l-0.17-0.021-0.17 0.064-0.127-0.128-0.234-0.021-0.085 0.085h-0.467v0.064l-0.191 0.085-0.17-0.021-0.085-0.106h-0.042v0.128l0.042 0.106v0.085h-0.106v0.085l0.149 0.085 0.17 0.17-0.042 0.106h-0.127l-0.149 0.085 0.064 0.149 0.212 0.128 0.085 0.128-0.085 0.128 0.149 0.106v0.361l-0.064 0.149 0.106 0.276-0.319 0.128h-0.744l-0.404 0.191z"></path>
<path d="M32.021 19.506l-0.276-0.149h-0.637l-0.319 0.085h-0.276l-0.212-0.128-0.128-0.149h-0.106l-0.128 0.191-0.191 0.043-0.128 0.106-0.128-0.234h-0.297l-0.085-0.106h-0.149v0.212l0.064 0.191-0.064 0.128-0.149-0.085 0.085 0.255 0.128 0.149v0.34l0.043 0.17-0.106 0.149-0.149 0.128-0.191 0.043-0.128 0.234 0.212 0.085 0.255 0.212-0.106 0.191h-0.149l0.064 0.149-0.149 0.17h-0.297l0.17 0.191-0.17 0.149-0.34-0.064-0.064-0.149h-0.276l-0.234 0.149h-0.255l-0.149 0.149h-0.212l-0.255 0.255h-0.276l-0.255 0.064 0.085 0.319 0.17 0.128 0.149 0.043 0.128 0.149 0.255-0.064 0.212 0.17 0.255-0.043 0.234-0.255 0.064 0.128-0.297 0.297-0.106 0.17-0.064 0.030-0.404-0.094-0.319-0.106h-0.467l-0.297-0.064-0.255-0.064-0.319 0.128 0.17 0.255 0.191-0.121 0.212 0.036 0.297 0.17 0.255-0.064 0.085 0.085-0.064 0.212-0.276 0.17-0.234-0.043-0.17 0.043v0.149l0.191 0.064 0.255-0.064 0.212 0.149h0.149l0.212 0.255 0.276 0.064 0.17 0.212 0.255 0.128h0.34l0.276-0.106h0.361l0.149-0.149h0.234l0.34 0.043 0.106-0.128h0.106l0.149 0.085 0.191-0.212h0.106v0.128l0.191 0.043 0.085 0.128h0.106l0.064 0.106 0.212 0.095 0.191-0.137v-0.191h0.149l0.212-0.17-0.043-0.128 0.319-0.17 0.149 0.085 0.212-0.085 0.106 0.085v0.149l0.17 0.128 0.17-0.043 0.064-0.234 0.191-0.234 0.17 0.043 0.191 0.404h0.085l0.106-0.212 0.149 0.043 0.085 0.17h0.127l0.085 0.085-0.212 0.085v0.191l0.17 0.212 0.17-0.043 0.17-0.319h0.17l0.17 0.234 0.297 0.085v-0.212l-0.149-0.149v-0.106h-0.085l0.255-0.574 0.17-0.043 0.127 0.106 0.127-0.064 0.085-0.17-0.085-0.17-0.085-0.467v-0.085l-0.212-0.043-0.276-0.064-0.064-0.17-0.191-0.043-0.17-0.128 0.085-0.128v-0.149l-0.234-0.043-0.042-0.17h0.127l0.064-0.149 0.085-0.276 0.085-0.043v-0.149l-0.234-0.191-0.127-0.106-0.234-0.043-0.064-0.149v-0.297l-0.191-0.234-0.064-0.276 0.106-0.234-0.191-0.191h-0.127l-0.064 0.085v0.064h-0.297l-0.17-0.34v-0.361z"></path>
<path d="M30.576 25.158v-0.255l0.212-0.17h0.128l0.531 0.531 0.17-0.021 0.191-0.128 0.149 0.064 0.021 0.191 0.128 0.212 0.106-0.043 0.064-0.149 0.467-0.043 0.106 0.106-0.042 0.17 0.042 0.149 0.17-0.043h0.17v0.106l-0.127 0.128 0.042 0.191 0.297-0.17 0.234 0.043 0.319-0.064-0.212 0.255 0.042 0.17 0.276-0.021 0.127 0.212 0.297 0.043 0.234 0.297 0.127 0.212-0.191 0.382 0.34 0.34 0.17-0.043 0.659 0.276 0.382-0.17 0.361-0.106 0.276-0.361-0.064-0.212 0.17-0.064 0.042 0.149 0.149 0.149 0.191 0.085 0.149-0.021 0.106-0.255 0.319-0.128 0.574 0.043 0.489 0.021 0.297 0.043 0.064 0.191-0.064 0.128-0.276-0.106-0.149 0.064-0.021 0.191-0.127 0.085-0.064 0.361 0.021 0.234 0.127 0.085 0.021 0.149-0.361 0.128-0.149 0.149h-0.17l-0.149-0.085-0.212-0.043-0.212 0.212-0.382 0.106-0.106-0.106-0.149-0.17-0.34-0.234-0.361-0.021-0.34 0.255-0.085 0.149-0.064 0.361h-0.234l-0.064 0.149-0.212 0.064-0.149 0.191v0.255l-0.106 0.021-0.191-0.128-0.17-0.021-0.149 0.106-0.425-0.021-0.127 0.128-0.616 0.276-0.127 0.297-0.127 0.446h-0.191l-0.297 0.255-0.149 0.255-0.297 0.106-0.128 0.149h-0.17l-0.085-0.17h-0.085l-0.17 0.149h-0.234l-0.212-0.128-0.17-0.212h-0.085l-0.319-0.12-0.149-0.156-0.043-0.106 0.191-0.064 0.149-0.128 0.085-0.212-0.043-0.297 0.021-0.234 0.191-0.234 0.021-0.255-0.128-0.552-0.425-0.404-0.255-0.106-0.212 0.106-0.234-0.021-0.552-0.489-0.276-0.149-0.404-0.064-0.191 0.17-0.276 0.085-0.106-0.043-0.149-0.149 0.021-0.319 0.489-0.404 0.276-0.128 0.255-0.34 0.467-0.17 0.17-0.149 0.106-0.149 0.17 0.064 0.234-0.085 0.446-0.361h0.212l0.085-0.085h0.255l0.128-0.212 0.021-0.128-0.064-0.043-0.106 0.064-0.128-0.043-0.106-0.191v-0.255z"></path>
</symbol>
</defs>
</svg>
